<?xml version="1.0" encoding="UTF-8"?>
<svg id="Layer_2" data-name="Layer 2" xmlns="http://www.w3.org/2000/svg" width="698.49" height="80.73" viewBox="0 0 698.49 80.73">
  <defs>
    <style>
      .cls-1 {
        opacity: .9;
      }

      .cls-2, .cls-3, .cls-4, .cls-5, .cls-6, .cls-7, .cls-8, .cls-9 {
        stroke-width: 0px;
      }

      .cls-2, .cls-5, .cls-6 {
        fill: #41d63c;
      }

      .cls-3 {
        fill: none;
      }

      .cls-10, .cls-6 {
        opacity: .8;
      }

      .cls-4 {
        fill: #66b8d8;
      }

      .cls-5, .cls-7 {
        fill-rule: evenodd;
      }

      .cls-7, .cls-9 {
        fill: #fff;
      }

      .cls-8 {
        fill: #e5e1ef;
      }

      .cls-9 {
        opacity: .3;
      }
    </style>
  </defs>
  <g id="Content">
    <g>
      <g>
        <path class="cls-8" d="m83.67,72.18c-3.83,0-6.95-3.12-6.95-6.95V15.53c0-3.84,3.12-6.97,6.95-6.97h599.32c1.86,0,3.6.72,4.92,2.04,1.31,1.31,2.04,3.06,2.04,4.92v49.71c0,3.83-3.12,6.95-6.95,6.95H83.67Z"/>
        <path class="cls-9" d="m684.53,15.51v24.86H82.12V15.53c0-.86.7-1.57,1.55-1.57h599.31c.43,0,.79.14,1.1.45s.45.67.45,1.1Z"/>
        <g>
          <g>
            <circle class="cls-6" cx="18.53" cy="40.37" r="17.18"/>
            <path class="cls-4" d="m18.53,24.54c8.73,0,15.83,7.1,15.83,15.83s-7.1,15.83-15.83,15.83-15.83-7.1-15.83-15.83,7.1-15.83,15.83-15.83m0-2.7C8.3,21.84,0,30.13,0,40.37s8.3,18.53,18.53,18.53,18.53-8.3,18.53-18.53-8.3-18.53-18.53-18.53h0Z"/>
          </g>
          <g class="cls-10">
            <path class="cls-2" d="m30.93,40.37c0,6.85-5.55,12.4-12.4,12.4s-12.4-5.55-12.4-12.4,5.55-12.4,12.4-12.4,12.4,5.55,12.4,12.4Z"/>
          </g>
        </g>
        <path class="cls-4" d="m682.98,80.73H83.67c-8.55,0-15.51-6.96-15.51-15.51,0-3.49-1.45-6.87-3.98-9.28l-13.65-12.99c-.7-.67-1.11-1.61-1.11-2.58,0-.97.4-1.91,1.11-2.58l13.65-12.99c2.53-2.41,3.98-5.79,3.98-9.28,0-8.57,6.96-15.53,15.51-15.53h599.32c8.55,0,15.51,6.96,15.51,15.51v49.71c0,8.55-6.96,15.51-15.51,15.51ZM83.67,2.7c-7.06,0-12.81,5.75-12.81,12.81,0,4.25-1.76,8.34-4.82,11.26l-13.65,12.99c-.17.16-.27.39-.27.62s.09.46.27.62l13.65,12.99c3.06,2.91,4.82,7.01,4.82,11.24,0,7.06,5.75,12.81,12.81,12.81h599.32c7.06,0,12.81-5.75,12.81-12.81V15.51c0-7.06-5.75-12.81-12.81-12.81H83.67Z"/>
      </g>
      <g class="cls-1">
        <g>
          <polygon class="cls-3" points="26.29 32.4 15.19 43.49 10.78 39.08 8.36 41.51 15.19 48.34 28.71 34.82 26.29 32.4"/>
          <path class="cls-5" d="m9.69,40.71s.01.05.04.06c-.02-.02,0-.05-.04-.06Z"/>
          <path class="cls-5" d="m9.78,40.7s0,.05.04.06c0-.02,0-.06-.04-.06Z"/>
          <path class="cls-5" d="m9.81,40.93s.02.01.05.04c0-.02,0-.03,0-.04-.02,0-.02.01-.04,0Z"/>
          <path class="cls-5" d="m9.84,41.85s0,.03,0,.04c.03,0,.03.02.05.02,0-.04-.01-.06-.05-.06Z"/>
          <path class="cls-5" d="m9.87,40.81s0,.06.02.05c.02-.02,0-.02,0-.05,0,0-.02.01-.02,0Z"/>
          <path class="cls-5" d="m9.9,41.94s0,.04,0,.06c.03,0,.04-.03.04-.06-.01,0-.03,0-.04,0Z"/>
          <path class="cls-5" d="m10.04,41.27s0,.06.04.05c.01-.04-.05-.01-.04-.05Z"/>
          <path class="cls-5" d="m10.05,42.19s.03.02.01.02c0,.02.04,0,.05.01-.01.03,0,.05,0,.08.04-.04.07,0,.11.02-.01-.02-.04-.03-.03-.06-.03.03-.03,0-.06,0,0,0,.01-.02.01-.03-.03,0-.04-.02-.04-.05-.03,0-.05,0-.06,0Z"/>
          <path class="cls-5" d="m10.09,41.35v.04s.03-.01.03,0c.02,0,0-.05-.03-.04Z"/>
          <path class="cls-5" d="m10.3,41.29s.03.03.06.04c-.01-.02-.04-.06-.06-.04Z"/>
          <path class="cls-5" d="m10.37,42.77s.03.06.05.04c-.02-.01-.03-.03-.05-.04Z"/>
          <path class="cls-5" d="m10.44,41.47s0,.06.05.06c-.01-.02-.02-.05-.05-.06Z"/>
          <path class="cls-5" d="m10.64,42.37s.03,0,.07.03c0,0-.01-.02-.01-.03-.04.02-.04-.03-.06,0Z"/>
          <path class="cls-5" d="m10.69,41.59s-.01-.05,0-.08c-.04,0,0,.06,0,.08Z"/>
          <path class="cls-5" d="m10.84,41.82s.03.04.06.05c-.01-.03-.03-.05-.04-.09-.03-.01,0,.05-.02.04Z"/>
          <path class="cls-5" d="m10.84,43s.02.04.03.05c.03-.02-.02-.04-.03-.05Z"/>
          <path class="cls-5" d="m10.98,42.94s-.04-.02-.02-.05c-.02,0-.04.02-.04.04.04,0,.04.04.06.02Z"/>
          <path class="cls-5" d="m10.98,43.54s.02.06.05.07c-.02-.02-.02-.05-.05-.07Z"/>
          <path class="cls-5" d="m11.01,41.41s.01.03,0,.05c.03,0,.03-.02.03-.05h-.04Z"/>
          <path class="cls-5" d="m11.01,41.68s.01.04.02.06c.02,0,.01-.07-.02-.06Z"/>
          <path class="cls-5" d="m11.1,41.55s0,.01.01.01c.01.07.08.09.1.15.04,0,.04-.02.07-.02,0-.04-.04,0-.05-.03,0-.03.02-.03,0-.05-.03.03-.05-.01-.08-.02,0-.03-.01-.04,0-.06-.03-.02,0,.03-.04.02Z"/>
          <path class="cls-5" d="m11.19,43.25s.04,0,.04.01c.04-.01-.02-.02-.01-.04-.03-.01-.03.01-.05.02,0,.02.01.04.02.06.03,0,.01-.04,0-.05Z"/>
          <path class="cls-5" d="m11.21,40.73s0,.07.04.07c-.01-.02-.01-.06-.04-.07Z"/>
          <path class="cls-5" d="m11.24,40.69s0,.05.03.04c.02-.04-.03-.02-.03-.04Z"/>
          <path class="cls-5" d="m11.27,40.81s.03-.01.05-.02c0-.01-.02-.02-.02-.03-.02,0-.03.03-.03.05Z"/>
          <path class="cls-5" d="m11.26,43.3s.03.05.03.09c.05-.02,0-.07-.03-.09Z"/>
          <path class="cls-5" d="m11.42,40.29s.05.03.1.04c-.03-.01-.05-.04-.1-.04Z"/>
          <path class="cls-5" d="m11.43,43.55s.01-.06-.02-.06c-.02.01-.02.07.02.06Z"/>
          <path class="cls-5" d="m11.43,41.29s.07.09.07.03c-.04,0-.05-.02-.07-.03Z"/>
          <path class="cls-5" d="m11.46,41.98s.02.08.07.08c0-.02,0-.02.02-.02,0-.05-.09-.02-.09-.06Z"/>
          <path class="cls-5" d="m11.53,40.75s.02.07.05.08c-.03-.02-.01-.07-.05-.08Z"/>
          <path class="cls-5" d="m11.51,43.67s.01.02,0,.02c.06.01.06.08.11.09-.05-.05-.01-.13-.11-.11Z"/>
          <path class="cls-5" d="m11.64,41.55s.03.02.05.03c0,0-.01-.02-.01-.03,0,0-.02,0-.04,0Z"/>
          <path class="cls-5" d="m11.63,43.79s0,.02,0,.04c.02-.04.02.02.06.02.02-.04-.05,0-.03-.04-.01,0-.03,0-.03-.01Z"/>
          <path class="cls-5" d="m11.68,43.87s0,.09.04.1c-.01-.05.04-.02.03-.07-.04.03-.04-.03-.07-.03Z"/>
          <path class="cls-5" d="m11.88,41.37s.07.05.07,0c-.04,0-.04-.02-.07,0Z"/>
          <path class="cls-5" d="m11.86,44.06s.04.05.05.08c0,.02-.03.02-.05.02.02.05.07,0,.11.06.01-.03,0-.02,0-.06-.04,0,0,.01-.01.04-.04-.04-.04-.11-.1-.13Z"/>
          <path class="cls-5" d="m12.06,42.84s.06.05.08.04c-.02-.03-.05-.05-.08-.04Z"/>
          <path class="cls-5" d="m12.09,42.13s0,.01,0,.04c.02,0,.03-.02.04-.03,0-.01-.03-.01-.04-.01Z"/>
          <path class="cls-5" d="m12.51,42.71s.04.06.08.06c-.03-.01-.05-.08-.08-.06Z"/>
          <path class="cls-5" d="m12.79,41.8s.02.03.02.05c.03.01,0-.05.02-.04,0-.01-.03-.01-.04-.01Z"/>
          <path class="cls-5" d="m12.81,41.25s.04.05.08.05c-.03-.02-.06-.06-.08-.05Z"/>
          <path class="cls-5" d="m12.88,43.44s0,.03,0,.04c0,0,.02-.01.02,0,.03,0,0-.05-.02-.04Z"/>
          <path class="cls-5" d="m13.03,41.83s.05.05.04.1c.02,0,.02-.03.03-.04.02,0,.03.05.05.03,0-.02-.04-.01-.03-.04-.05.02-.05-.04-.09-.04Z"/>
          <path class="cls-5" d="m13.1,43.44s0,.03.02.03c.03,0,.04-.03.02-.05-.03-.02,0,.03-.04.02Z"/>
          <path class="cls-5" d="m13.35,42.14s.04.11.07.08c-.03-.02-.07-.04-.07-.08Z"/>
          <path class="cls-5" d="m13.49,41.92s.02.05.06.05c-.02-.01-.03-.04-.06-.05Z"/>
          <path class="cls-5" d="m13.53,42.5s.02.05.05.06c-.01-.02-.02-.05-.05-.06Z"/>
          <path class="cls-5" d="m13.67,42.74s.03.02.03.04c.01,0,0-.03.01-.04h-.04Z"/>
          <path class="cls-5" d="m13.76,42.81s.03.03.03.05c.02,0,0-.07-.03-.05Z"/>
          <path class="cls-5" d="m13.79,44.29s0,0,.01,0c.01,0,0,.02.01.03.02,0,.04-.03.05,0,.04,0-.02-.04.01-.03-.02-.02-.09-.05-.08,0Z"/>
          <path class="cls-5" d="m13.89,44.31s0,.02.02.02c0,.01,0,.03-.01.03,0,.01.03.01.04.01v-.05s-.03-.02-.05-.01Z"/>
          <path class="cls-5" d="m13.91,44.53s.03.03.05.04c0-.03-.02-.04-.05-.04Z"/>
          <path class="cls-5" d="m13.98,43.18s.05,0,.05-.03c-.03-.03-.03.02-.05.03Z"/>
          <path class="cls-5" d="m14,43.08s.04.09.09.07c-.04-.02-.03-.08-.09-.07Z"/>
          <path class="cls-5" d="m14.02,43.22s.03.04.06.05c-.01-.02-.03-.04-.04-.07-.01,0,0,.02-.02.02Z"/>
          <path class="cls-5" d="m14.02,43.39c.06.04.05.07.07-.01-.04,0-.05,0-.07.01Z"/>
          <path class="cls-5" d="m14.07,44.69s.02.05.05.05c-.01-.02-.02-.05-.05-.05Z"/>
          <path class="cls-5" d="m14.28,45.01c.07.02.1.09.15.07-.04-.04-.08-.08-.13-.1,0-.01.02-.01.03-.01-.02-.06-.05-.01-.05.04Z"/>
          <path class="cls-5" d="m14.38,43.68s.05-.03.05,0c.04-.03-.05-.02-.05,0Z"/>
          <path class="cls-5" d="m14.42,43.7s.03.04.06.04c0-.02-.03-.03-.06-.04Z"/>
          <path class="cls-5" d="m14.54,45.22v.05s.02-.02.04-.02c-.01,0-.02-.04-.04-.03Z"/>
          <path class="cls-5" d="m14.6,44.16s.02-.03.04-.03c0-.02-.06,0-.04.03Z"/>
          <path class="cls-5" d="m15.13,43.85c0,.06,0,0,.01-.03,0,0,0,.02-.01.03Z"/>
          <path class="cls-5" d="m15.23,43.96s0-.05,0-.02c0,.03,0,.03,0,.05,0,.02,0-.01,0-.05,0,0,0-.01,0-.03,0-.05.01.02.01-.03,0,0,0,.01-.01-.02,0,.05,0,.03-.01,0,0,.03.01.07,0,.1Z"/>
          <path class="cls-5" d="m15.27,43.91v.03s.01-.02,0-.05c0-.03,0,.05-.01-.01,0-.02,0,.03,0,.04Z"/>
          <path class="cls-5" d="m15.3,43.94s0-.05,0-.07v-.02s0,.01-.01,0c0,.03,0,.02,0,.04,0,.01,0,.03.01.04Z"/>
          <path class="cls-5" d="m15.33,43.96s0-.01,0-.04c-.01-.01,0,.03-.02-.01,0,.04,0,.02.02.05Z"/>
          <path class="cls-5" d="m15.32,43.87s0,.04.02.05c0,0,0,0,0-.02,0-.01-.01-.02-.02-.03Z"/>
          <path class="cls-5" d="m15.34,43.89s0,.02.02.03c0-.01-.01-.03,0-.02,0-.01-.01-.02-.02-.03v.02Z"/>
          <path class="cls-5" d="m15.32,43.83s.03.05.02.02c0-.01-.02-.03-.02-.02Z"/>
          <path class="cls-5" d="m15.43,43.84s0-.02-.01-.04c-.02-.02,0,0-.02-.01,0,.02.02.04.03.05Z"/>
          <path class="cls-5" d="m15.47,43.8s.02,0,.01,0l-.03-.02v.02Z"/>
          <path class="cls-5" d="m15.54,43.74s.05-.03.08-.05c0-.03-.06,0-.05-.02-.02,0,0,.02,0,.03,0,.02-.03,0-.02.04Z"/>
          <path class="cls-5" d="m15.56,43.62s.01-.04.03-.04c-.02-.02-.04,0-.06,0,0,.02.03,0,.03.03Z"/>
          <path class="cls-5" d="m15.76,43.58c0-.06.07-.06.1-.09,0-.05-.07,0-.11-.01.02.03.03.03,0,.07-.04,0-.06-.02-.08,0,.02.03.04.03.09.02Z"/>
          <path class="cls-5" d="m15.71,43.5s.04-.05.08-.06c-.02-.01-.08.01-.08.06Z"/>
          <path class="cls-5" d="m15.8,43.37s.02-.01.04,0c0-.03-.04-.02-.04-.05-.01,0-.02.02-.02.04.04,0,.03-.02.02.02Z"/>
          <path class="cls-5" d="m15.96,43.21s.03,0,.04,0c-.02,0-.01-.03-.04-.03.02.02,0,.01,0,.04Z"/>
          <path class="cls-5" d="m18.01,41.53s.06-.05.07-.09c-.03.01-.07.02-.1.04,0,.02.02.03.03.05Z"/>
          <path class="cls-5" d="m18.47,40.93s.02-.03.04-.03c0-.02-.05,0-.04.03Z"/>
          <path class="cls-5" d="m19.06,40.43s.07-.02.07-.06c-.03.01-.05.04-.07.06Z"/>
          <path class="cls-5" d="m19.34,40.18s.06-.09.05-.11c-.03.02-.07.08-.05.11Z"/>
          <path class="cls-5" d="m19.85,39.62s.04-.04.07-.05c-.01-.02-.07.01-.07.05Z"/>
          <path class="cls-5" d="m20.49,39.15s0-.04-.02-.05c-.01,0-.02.02-.02.04.02,0,.02.01.04.01Z"/>
          <path class="cls-5" d="m24.03,39.05c.06-.03.06-.12.12-.14-.06-.02-.09.09-.12.14Z"/>
          <path class="cls-5" d="m24.14,38.89s.05-.02.05-.06c-.02.01-.04.03-.05.06Z"/>
          <path class="cls-5" d="m21.44,38.06s-.01-.02-.03-.02c.04-.03.05-.04.08-.09-.05.02-.09.06-.11.1.03,0,.04.01.06.01Z"/>
          <path class="cls-5" d="m21.69,37.97s0-.05-.04-.05c-.02.02,0,.05.04.05Z"/>
          <path class="cls-5" d="m21.54,37.92s.03,0,.04.01c0-.02,0-.04,0-.05-.02,0,0,.05-.03.04Z"/>
          <path class="cls-5" d="m22.77,36.55s.02-.04.02-.06c-.01,0-.02.02-.02.04,0,0,0,.01,0,.02Z"/>
          <path class="cls-5" d="m22.79,36.41s.01-.06,0-.06c-.02.02-.02.04,0,.06Z"/>
          <path class="cls-5" d="m22.92,36.35c.06-.03.09-.09.14-.14-.03-.01,0-.04,0-.07-.07.06-.08.14-.14.22Z"/>
          <path class="cls-5" d="m23.07,36.17s.03-.05.05-.07c-.03,0-.05.03-.05.07Z"/>
          <path class="cls-5" d="m23.14,36.08s.06-.03.07-.06c-.02-.01-.07.02-.07.06Z"/>
          <path class="cls-5" d="m23.23,36.06s.05-.02.08-.03c0-.04,0-.05-.04-.06.03.04-.03.05-.04.09Z"/>
          <path class="cls-5" d="m23,35.73s.04-.02.05-.04c-.02,0-.03,0-.04.01,0,.02.02.03,0,.03Z"/>
          <path class="cls-5" d="m23.44,35.68s0,0,0,.01h.02s.07-.07.07-.13c-.01,0-.02,0-.02-.01-.01.04-.04.06-.05.1-.05,0,0-.03-.03-.05-.03,0,0,.06-.03.05,0,.01.06.01.02.03Z"/>
          <path class="cls-5" d="m23.1,35.63s.07-.07.08-.12c-.04.03-.06.08-.08.12Z"/>
          <path class="cls-5" d="m23.57,35.53s.05.02.07,0c-.03-.01-.04-.03-.02-.06-.03,0-.04.04-.06.07Z"/>
          <path class="cls-5" d="m23.58,35.46s.05-.06.06-.09c-.05.03-.04.05-.06.09Z"/>
          <path class="cls-5" d="m23.83,35.22s-.03,0-.03-.02c-.04.03-.03.12-.09.12.05.06.07-.09.12-.1Z"/>
          <path class="cls-5" d="m23.67,35.31c.05-.02.06-.09.09-.15-.06.02-.06.09-.09.15Z"/>
          <path class="cls-5" d="m23.69,35.15s.04-.04.05-.06c-.03,0-.02.05-.05.06Z"/>
          <path class="cls-5" d="m23.74,35.16s.08-.04.08-.1c0,.05-.07.05-.08.1Z"/>
          <path class="cls-5" d="m23.94,35.04c-.06,0-.04-.05,0-.06.03,0,.01.04,0,.06.04.01.02-.04.05-.03-.03-.06,0-.18,0-.23-.04-.04-.05.1-.03.12-.03-.03-.05.03-.06-.01-.01.07-.01.14-.02.25.04,0,.05-.05.05-.1Z"/>
          <path class="cls-5" d="m24.04,34.85s.03,0,.04.01c.01-.02,0-.05.03-.06,0-.01-.02-.01-.02-.03-.02,0-.03.02-.04.02,0,.03.04.05,0,.06Z"/>
          <path class="cls-5" d="m24.14,34.83s.04-.07,0-.06c-.01.03,0,.04,0,.06Z"/>
          <path class="cls-5" d="m24.12,34.73s.03-.02.05,0c-.01-.02-.02-.02,0-.05-.03,0-.03.05-.05.06Z"/>
          <path class="cls-5" d="m9.54,40.39s.04,0,.03-.04c-.02,0-.02-.01-.04-.01.04.05-.11.07,0,.05.04.05.09.09.11.17.04,0,.04.02.03.04.01,0,0-.02.02-.02.03.01-.01.02,0,.05.03-.02.04,0,.1-.01,0-.03-.05-.03-.08-.04.01-.04-.02-.04-.04-.06.01-.08-.06-.11-.06-.15-.05,0-.01.06,0,.07-.05,0-.03-.06-.07-.06Z"/>
          <path class="cls-5" d="m9.79,41.06s.05.07.08.09c0-.03.01-.03.01-.05-.05.03-.05-.03-.09-.04Z"/>
          <path class="cls-7" d="m9.91,41.2s.03.01.03-.02c.01,0,0,.02.01.03.03.01.04,0,.06,0,.03.03.05.08.1.09-.02.09.07.09.09.14-.04.04-.07-.05-.11-.02.07.05.07.12.18.15,0,.04-.02.07.04.07,0,.04-.04.05-.07.04,0,.02.02.02.02.03,0-.03.06,0,.05-.05,0,.06.08.07.11.11-.07-.03-.12-.04-.13-.05-.02.05.09.07.13.09-.02.03.02.06.04.08.01,0,0-.02.02-.02,0,0,.01.01.02.01,0,0-.02,0-.02.03.04.05.11.08.15.12,0,0-.01,0-.01.02-.06-.04-.09-.04-.15-.08.01.06.07.08.09.13.03,0,0-.02,0-.04.02,0,.03,0,.04.01,0,.04-.04.05-.01.07.02,0,.02-.01.04,0,0-.01-.01,0-.02-.01,0-.02.04-.06,0-.04,0-.06.05-.03.06,0-.04-.01.01.05-.03.05,0,.02.06,0,.06.03,0,.03-.06,0-.07,0-.03,0-.02.04-.04.04,0,.03.05.03.05.07-.02.02-.04,0-.07,0-.01.05.05.03.04.08.03,0-.01-.03,0-.06.01.02.03.03.04.06,0-.04.02-.04.05-.06,0,0,.01.01.02.01.01.03-.03,0-.02.04.06,0,.15.15.1.18.03,0,.04.03.06,0,.01.04-.02.04-.02.07-.02-.03-.07-.04-.08-.08,0,.04.05.11.09.13,0,.02-.03.01-.02.04.04,0,.08.02.08.08.03-.02.05,0,.06-.04,0,.04.05.03.05.08.02-.05.06.03.08,0,.02.06-.05,0-.04.05.04,0,.05.01.06.04-.01.01-.03.02-.04.03-.07-.05-.1-.12-.17-.14,0,.03.04.02.02.05.13.02.1.18.22.21.01.12.19.2.16.28.02.03.04.05.05.08.05-.02.06.04.09.06,0,.01-.02,0-.02.03.03-.02.07.02.04.03.09.03.1.14.18.18,0-.03.04,0,.05,0,0,.02-.05,0-.05.02.02.08.1.1.15.15-.04.03.02.1.05.09,0,.03.01.03,0,.05.08-.02.11.17.22.19-.01.1.17.11.14.2,0-.02-.03-.03-.05-.05-.02.04.08.06.1.11.01.02.04.12.07.09.02,0,0,.04,0,.05.06.02.07.08.13.09.02.06.12.16.19.23.13.16.26.32.39.47l.05.06.02.03.04.04.17.19.35.38c.47.51.95,1.02,1.44,1.54.53-.51,1.07-1.03,1.62-1.57l.68-.67.47-.47c.62-.63,1.24-1.26,1.85-1.89.03,0,.02.02.03.04-.17.1-.25.3-.42.4,0,.03,0,.04-.02.06-.01,0,0-.01,0-.03-.03,0-.02.07-.07.06,0,.03.03.02.03.05-.11,0-.19.11-.24.22-.07.05-.15.1-.18.19-.01,0-.02,0-.02-.01-.07.12-.24.22-.27.32-.03,0-.02-.02-.04,0,0,.01.02,0,.03.01-.16.09-.19.25-.36.33.02.04-.07.07-.1.1-.05.05-.05.12-.1.11-.02.07-.07.11-.14.12-.02.03.03,0,.02.04,0,.02-.05.02-.04,0,0,.06-.06.06-.07.1-.02,0-.02,0-.02-.02-.01.06-.07.08-.09.13-.04-.04,0,0-.05,0,.01.01,0,.04,0,.05,0,0-.02-.01-.04-.01.01.06-.09.06-.11.16-.02,0-.03,0-.03-.02-.03.04-.08.09-.13.14-.01.01-.02.03-.04.04-.02.02-.03.04-.05.05-.03.03-.05.06-.05.07-.05.06-.14.08-.17.18-.07.02-.18.1-.18.16-.19.17-.36.34-.53.51-.17.17-.35.35-.54.52-.02.03,0,.03-.02.05-.03,0-.04.02-.09.04-.14.19-.33.32-.51.5-.06-.06-.13-.12-.19-.16-.02-.03,0-.04-.02-.07-.09-.08-.18-.15-.26-.26,0,.03,0,.13-.08.06-.02-.06,0-.06-.04-.13,0-.04.06,0,.07.04.04,0-.05-.12-.05-.08-.1-.18-.25-.22-.34-.4-.04.02-.12-.08-.15-.17-.02-.01-.02,0-.01.03-.09-.13-.21-.22-.3-.35-.02,0-.01.02-.03.02-.14-.18-.37-.35-.44-.51-.01,0,0,.01,0,.02-.04-.04-.08-.09-.12-.13-.04-.04-.09-.09-.1-.11-.05-.05-.09-.1-.12-.17-.09-.05-.18-.19-.26-.28-.03-.01-.02.03-.05.02,0,0-.02-.01-.02-.02.08-.03-.04-.09-.05-.14-.04.02.02.03,0,.05-.01.03-.04-.01-.05-.02.03-.1-.08-.14-.1-.22-.03-.01-.02.03-.05.02-.01,0,0-.02-.02-.02,0-.01.03,0,.04,0,0-.03-.02-.05-.05-.05-.01,0,0,.04-.03.03,0,.02.03.02.02.04-.04,0-.03-.04-.07-.04.01-.05-.02-.05-.03-.08.02-.03.03.04.06.04,0-.07.03,0,.05,0-.01-.09-.05-.04-.07-.12-.02,0,0,.03-.02.04-.01,0,0-.01-.01-.02-.02,0-.02.01-.01.03-.06,0-.07-.04-.12-.04,0-.03-.01-.04.01-.05-.02-.02-.09,0-.09-.05,0-.02.04,0,.05,0,0-.03-.04-.02-.05,0-.03,0,0-.05-.04-.06,0-.02.03,0,.02-.04-.06.01-.15-.07-.11-.1-.03-.02-.03-.06-.08-.06.01-.07-.08-.07-.05-.12-.09.03-.06-.13-.16-.14-.03-.06-.09-.09-.11-.16,0-.03.03.03.02-.02-.12-.03-.12-.17-.22-.22,0,.02.01.02.01.04,0,.01-.02,0-.02.02-.03-.04-.03-.09-.06-.13-.02,0,0,.02,0,.03,0,.03-.02-.03-.05-.01.01-.01.01-.02,0-.04-.09.02-.06-.11-.14-.12,0-.03,0-.05.04-.04,0-.03-.03-.03-.03-.05-.01,0,0,.03-.01.04-.04,0-.04-.02-.06-.03,0-.02.02-.02.04-.02-.06-.02-.07-.08-.11-.11,0-.02.03,0,.02-.04-.07.03-.15-.13-.21-.14.01-.04-.03-.07.02-.06-.02-.03-.03-.02-.05,0-.03-.02.02-.08-.03-.09,0,.03.02.02.02.04-.01,0-.02,0-.02,0-.05-.06-.07-.14-.17-.16.03-.02.02-.03.03-.07-.03,0-.03.03-.03.06-.07,0-.03-.08-.09-.08-.01-.05.05-.02.05-.06-.04,0-.05.03-.07.03-.04,0,0-.04-.02-.04,0-.01.03,0,.04,0-.01-.03-.05-.04-.06-.02,0-.07-.03-.04-.02-.11-.05-.02-.05-.03-.07-.08-.02,0-.01.04-.05.03v.05s.04-.02.03.03c.02,0,.02,0,.02-.02.03.04.14.13.07.16,0,.02.04,0,.05.01,0,.04-.04.04-.06.03,0,.02.06.07.06.03.03.02.03.06.08.06,0,.02-.05,0-.05.02,0,.04.09.06.03.09,0,.03.03,0,.03,0,.02.02.04.04.04.08.01,0,.02-.02.03-.02.02,0,.02.03.04.03,0,0-.02.01-.03.02.07.03.11.08.14.14,0,.03-.02-.02-.04,0,0,.03.04.03.03.06-.03-.01-.05-.03-.05-.08-.06.02-.06-.08-.12-.09.05.09.13.14.18.21.03,0,0-.02,0-.04.06,0-.01.08.05.09,0-.02-.02-.03-.02-.04.04,0,.02.04.06.03,0,.02-.02.02-.03.02,0,.01.02.01.02.03.04-.02.11.09.14.15-.02.03-.01-.04-.04-.02.08.07.15.14.21.24,0,.01-.03,0-.04,0,0,.05.05.03.06.02.04.03-.03.03-.01.07.04.02,0-.04.03-.04.04.05.12.07.12.15.05-.02.05.02.09.04,0,.03-.01.03-.01.05.06.02.08.06.11.09-.01.03-.04-.02-.05-.03,0,.04.05.07.1.08,0,.03-.03.02-.02.05-.03,0-.04-.04-.06-.02.06.07.12.11.21.14.01.05-.05,0-.04.05.06.06.12.11.14.2.06,0,.05.05.06.07.02,0,.01-.03.04-.02,0,.08.16.13.11.18.07.06.13.19.21.22,0,.06.07.07.06.14.05,0,.05.05.1.04,0,.03-.02.03-.01.05.12.13.25.25.34.41.02,0,.04,0,.02-.03.04.06.08.12.13.18.02.03.05.06.07.08l.07.06s.05.05.08.07c.06.04.07.12.12.17.01,0,0-.03.02-.02.05.07.12.17.22.23l.04.1c.23.19.42.43.63.67,0,0,0-.01.02-.01.36.42.74.77,1.11,1.18,0,0,.02,0,.03.01.09-.12.31-.28.45-.43.09-.09.16-.19.23-.21l.04-.08c.05.02.14-.16.22-.17.09-.12.2-.22.31-.33.12-.11.24-.22.34-.34h.06c.13-.17.27-.3.41-.44.07-.07.14-.13.21-.2.03-.04.07-.07.1-.11.02-.02.04-.04.05-.05,0-.01.01-.02.02-.03.09-.03.11-.14.2-.16,0-.07.08-.06.09-.12.12-.08.22-.19.31-.3.24-.21.43-.46.67-.67v-.04s.02,0,.02.01c.11-.13.2-.21.3-.35h.04s-.03-.05.03-.06c.02,0,0,.01,0,.03.02,0,.04-.04.03-.05.89-.87,1.65-1.81,2.5-2.72v-.03c.14-.1.21-.27.36-.36.02-.03,0-.08.04-.05,0-.03.04-.09.09-.1v-.04s.1-.07.12-.13c.22-.17.36-.44.61-.59v-.04c.06,0,.11-.07.11-.11.02,0,.02.01.04.01-.02-.05.02-.05.05-.05.02-.08.09-.14.16-.21.02,0,.03,0,.03.02.02-.01-.02-.05.04-.06,0-.01-.01,0-.02-.01,0-.03.04-.02.04-.06.02,0,.02,0,.02.02,0-.03.03-.08.06-.11.04.01,0,.03,0,.06.04-.09.1-.17.15-.25h.05s0-.03-.03-.01c0-.06.04-.08.06-.13.03.01.06-.03.05.01.03-.01-.01-.05.06-.05,0-.05-.03,0-.04,0,.01-.06.08-.08.09-.15.01,0,0,.02,0,.03.02,0,.01-.03.04-.02-.04-.02,0-.03,0-.07.13-.05.14-.26.27-.29-.03-.06.04-.11.07-.16.03.03-.04.05-.04.09.02,0,.02-.01.04-.01-.02.04-.02.11-.04.15-.05-.06-.08.08-.09.1.09-.04.17-.16.19-.26.01,0,0,.03,0,.04.03-.04.1-.11.06-.16.01-.03.03,0,.05,0,.03-.09.07-.13.1-.24.08-.08.17-.16.2-.3.06-.04.11-.14.11-.21.13-.08.18-.39.39-.45-.1-.03.05-.12-.02-.17.03-.02,0-.11.07-.1.06-.17.17-.29.33-.35,0-.03,0-.06-.02-.07.01-.02.04-.03.08-.03,0-.04.02-.04.04-.06-.02-.04,0-.05-.01-.08-.02,0-.01.03-.03.03.04-.11.16-.22.29-.26-.03-.05,0-.09.04-.11,0-.14.04-.27.11-.38h.06s.02-.07.03-.11c0,0,.02,0,.02.02.06-.09.13-.17.15-.28.07-.09.17-.22.18-.34.06-.05.11-.21.13-.28.04-.11.08-.21.08-.32-.02.02-.04,0-.06,0,0-.03.03-.03.03-.06-.04.02-.03.05-.07.04,0,.06-.09.06-.06.1,0,.02-.04,0-.06,0-.03.04-.06.08-.09.11,0-.06.02-.07.02-.16-.12.14-.28.32-.37.54,0,.02-.03.03-.05.03,0,0,.02.02.03.02-.02.02-.03.04-.04.06-.07-.02-.06.11-.06.18-.03,0-.02-.04-.02-.07,0,.02-.05.03-.06,0,0-.05.03-.03.02-.08-.03,0,0,.06-.03.04-.01.03.01.03,0,.05,0,0-.01.02-.02.02-.02-.02,0-.06-.02-.07,0,0,.01-.01.01-.02.02.04.04-.03.06-.05.02,0,.02.01.04.01.03-.06,0-.12.03-.18.02.01,0,.07,0,.1.02-.02.05-.07.02-.08.07-.03.08-.13.11-.21-.05.02-.04.09-.06.13-.03-.07.02-.15.09-.16.02-.07.04-.13.1-.16.07-.2.21-.3.29-.49-.05,0-.06.05-.13.04-.02.04-.05.07-.11.07,0,.02,0,.02,0,.03-.06-.01-.05.04-.09.05-.02,0-.02-.03-.02-.05-.05,0-.06.06-.09.08-.03,0-.01-.03-.04-.03-.06.03-.04.09-.09.15-.04-.01,0-.09,0-.12,0,0-.02.01-.04.01,0,.01.01,0,.02.01,0,.03-.04.02-.03.06-.02,0-.02-.01-.04-.01-.02.05-.06.08-.1.11,0,.03.01.04.04.04,0,.02,0,.04-.01.05-.03,0-.05-.03-.08-.04.04-.05.07-.15.04-.21.06-.08.11-.16.19-.21-.06-.02,0-.06.04-.08.03.01-.03.03-.03.05.05,0,.04-.08.06-.11.03,0,.01.04.04.01-.03-.04.05-.12.1-.15,0-.06.05-.09.09-.14-.03-.04-.05.03-.07.04.02-.06.07-.19.17-.22,0-.09.2-.2.13-.3.05-.03.02-.09.07-.1.02.02-.01.03.02.05.05-.12.09-.26.03-.33-.04,0-.09.02-.1-.01-.07.02-.14.1-.21.05,0,.05-.05.08-.02.11.01,0,.01-.02.01-.03.03,0,.01.02,0,.04-.03,0-.05,0-.06.02-.03,0-.03-.01-.03-.04-.02.01-.03.03-.01.04-.07,0-.12.1-.15.18-.11.01-.11.14-.14.24h-.02c-.03-.08.03-.14.03-.21-.02,0-.02.02-.05.01-.04.15-.12.18-.17.31,0,0,0-.01-.02-.01.03-.04.05-.11.04-.16-.03,0-.03.03-.05.03.03.02.02.03-.01.04.02,0,.03.02.04.04-.04.02-.1.11-.04.14,0,.03-.04-.03-.04.01-.01,0,.01-.03-.02-.04-.03.02,0,.08.01.08,0,.02-.04-.02-.06-.01-.02.04.02.04.01.07,0,.03-.03,0-.03-.01-.03.01,0,.04,0,.05,0,0-.04.01-.06,0,0-.03.01-.04.02-.06-.05.01-.03.06,0,.08-.03.04-.07.08-.05.15-.04.01-.02-.03-.05-.03.01-.03.03-.05.05-.08-.04,0-.06-.02-.06-.06-.02,0-.03.03-.01.04-.03-.02-.03.02-.06,0,0,.06-.03.08-.07.12-.02,0,0-.05.03-.04,0,0,0,0,0-.01v-.02s-.04.04-.06.07c-.03-.01-.04-.04-.07-.05,0,.03,0,.02,0,.06-.03,0-.04-.01-.06-.01,0,.02,0,.03,0,.04-.03,0-.02-.02-.05-.01-.02.04-.06.07-.09.1-.04,0,0-.03,0-.06-.03,0-.02.05-.06.04,0,0,0,.03.02.03-.1.06-.13.19-.23.25,0,.01.02,0,.03.01,0,.03,0,.05-.02.06-.1-.06-.09.13-.15.15-.05-.09.02-.12.04-.2-.04,0-.03.07-.08.04v.06s-.03,0-.05-.01c.02-.01,0-.05.04-.05-.03-.02,0-.03-.02-.05-.06-.02,0,.1-.07.08,0,.05,0,.11,0,.16-.04,0-.04-.02-.04-.04-.04,0-.04.03-.07.04.02.01.02.03.02.06.02,0,.01-.03.04-.02,0,.03-.03.05-.06.05v.09s-.02-.03-.06,0c-.04.01-.01-.04-.05-.03.04.06,0,.07,0,.15-.04.02-.07.05-.12.07.02.07,0,.11-.02.18-.04,0,0-.05-.03-.05-.05.05-.03.17-.02.23.06-.04.01-.12.04-.17.02,0,.03,0,.03.02.02,0,.02-.06,0-.05.08,0,.06-.21.17-.22.02.1-.06.18-.12.23.03.1-.05.17-.12.25,0-.05-.02-.08-.05-.13,0,.04-.02.04-.02.07-.1,0-.04.1-.13.09-.03.07-.02.05-.05.11.02,0,.01.02.03.02,0,.02-.03.03-.03.06-.04,0-.02-.04,0-.05-.03-.02-.06.07-.04.09-.02.02-.03.06-.08.05-.03.03-.02.11-.06.12-.05-.01-.04-.07-.05-.12-.04.04-.01.1-.08.15-.04,0-.03-.02-.05,0,0,.04.04-.03.04.01.02-.01.04-.03.05-.05.03.02.03.02.05,0,.01,0,0,.02,0,.03,0,.02-.06,0-.06.02,0,0,0,.03.02.03-.01.03-.04.03-.06.05-.02,0-.02-.02,0-.03,0-.02.01,0,.03,0-.01-.02-.02-.04-.05-.04,0,.15-.07.22-.11.33-.01,0-.03,0-.03-.01,0,.02-.02.11-.05.15-.03-.02.02-.09,0-.1.04,0,.04-.02,0-.01-.04.08-.08.15-.13.2-.05-.02.04-.08,0-.11-.02.02-.04.02-.03.05-.1.04-.15.25-.22.33-.03,0,.02-.07-.03-.05.02.04,0,.07-.02.1.02-.01.05-.02.06-.04,0,0,0,.01.02.01-.02.05-.08.04-.08.11-.02,0-.02-.01-.04-.01,0,.05-.04.06-.06.09-.02,0-.03,0-.03-.02-.02,0-.01.04-.04.03,0,.02,0,.02.02.02-.11.09-.17.17-.25.28-.02,0-.02-.02-.02-.04-.02.01-.02.04-.05.05-.01.04.04.02.03.05-.05,0-.06.04-.07.08-.03,0-.02-.02-.05-.01,0,.02.03.02.03.04-.06,0-.02.03-.06.07-.03,0-.02-.02-.05-.01,0,.01.01.02.03.02-.02.05-.13.09-.16.05-.03.07.07,0,.07.05-.02.02-.03,0-.06,0,0,.04-.06.05-.03.1-.02.02-.05.05-.09.03v.05s-.02-.03.03-.02c.02.05-.09.1-.11.18-.01-.03-.03-.04-.01-.07-.07,0,0,.08-.04.12-.06,0-.06.05-.07.08-.06,0-.08.04-.1.08-.03-.01.02-.04.02-.06-.03,0-.01-.05-.04-.05,0,.06-.04.11-.04.17-.02,0-.02.02-.05.03-.04-.02.06-.07-.02-.06,0-.04.04-.03.04-.06-.04,0-.05.08-.08.04,0,.04-.03.05-.04.09-.04-.04-.03.03-.09.03,0,.06-.05.09-.06.13.02.02.06.01.06-.02.03.04-.04.06-.06.08-.02-.01-.02-.04-.02-.05-.02-.01-.04,0-.06-.02.04.05-.02.04-.02.1.04.02.02-.03.05-.02-.02.02-.02.06-.06.05-.01,0,0-.01,0-.03-.02,0-.03.02-.03,0-.04,0,.02.04-.02.03.02.01.05.02.05.05-.03.03-.02-.02-.05-.01,0,.03.01.03.03.04,0,.01-.02.01-.02.03-.05,0-.02-.06-.07-.06,0,.02,0,.04.03.05,0,.04-.06.01-.05.06-.03,0-.04-.01-.06-.01,0,.04-.04.05-.07.07.02.05-.03.08-.06.1-.03,0,.01-.05-.03-.03,0,.06-.04.07-.07.1-.01.03.03.01.03.04-.03.04-.03-.02-.07-.01-.01.02-.01.03,0,.04-.11,0-.08.14-.17.15.01.05,0,.06-.02.11,0,.01-.04,0-.05.02-.03-.02.02-.05.02-.07-.05.02-.06.06-.06.1-.04.02-.03,0-.07-.01-.02.03-.04.03-.03.06h-.04s-.01.09-.07.07c.02.05-.01.05-.05.07,0,.04,0,0,.03.01,0,.03-.03.03-.03.04-.04,0-.03-.02-.04-.04-.02.02-.05.04-.11.03,0-.01,0-.02.01-.02-.02-.02-.06.04-.09.06.07-.04.09,0,.16-.04-.01.09-.09.03-.12.07.02.02.09,0,.1.03-.03,0-.07.03-.11.02,0,.04.03.06.03.09-.03-.04-.05-.01-.09-.01-.02,0,0-.05-.04-.04,0,.03,0,.03.03.05-.01.01-.05.02-.01.03-.02.02-.05.02-.07.02-.02-.02.05-.05,0-.07-.01.05-.1.22-.14.13-.02.01-.01.05-.05.05.02.07-.07.09-.07.18-.04-.02-.06.03-.07-.01-.03,0,.01.04,0,.07-.05.04-.1.06-.12.13-.03-.02-.06.02-.05.04-.04-.01-.04.02-.07.02.02.01.03,0,.06.02-.02.02-.06.03-.08.02-.03.02.01.04-.06.05,0,.01.02.01.02.03.02-.03.05-.04.09-.05-.04.04-.09.07-.12.11,0,0,0-.01-.02-.01,0-.03.06-.04.04-.07-.04.01-.03.08-.1.08,0,.01,0,.03-.01.03,0,.01.01.02.03.02,0,.04-.05.04-.06.08-.03,0-.03-.01-.05-.01,0,.03.04.01,0,.04-.03,0-.01-.04-.04-.01,0,.02.02.01.02.03-.14.02-.19.18-.29.22-.02,0,0-.04-.02-.04-.04.02-.03.1-.1.08,0,.01.01.02.03.02,0,.03-.02.03-.02.05-.02,0-.02-.02-.02-.03-.03,0-.03.03-.06.04,0,.01.02,0,.03.01,0,.03-.02.02-.02.04,0,0,0-.02-.03-.02v.04s-.02-.02-.05-.01c-.05.06-.09.12-.15.17h.03s0,.05-.04.05c-.02,0-.02-.02-.02-.03-.04.02-.08.1-.08.12-.03-.01-.05,0-.05.03.05,0,.02.02.02.04.04-.06.09-.05.13-.11,0-.02,0,0-.02,0,0-.03.03,0,.02-.04.04,0,.04,0,.08,0-.09.04-.13.17-.21.18,0,0,0,.01,0,.02-.01.03-.01-.02-.04-.01,0,.07-.05.08-.09.1.02.04,0,.06-.04.07-.01-.03-.01-.07-.05-.07.01-.02.05-.04.03-.06-.02.02-.02.02-.05,0,.01.03,0,.04,0,.06-.01.03-.05.02-.05.06-.06-.02-.09.05-.11.1-.03-.03-.05,0-.06.04-.01,0-.02-.01-.02-.03-.05.02-.06.09-.1.11,0,.02.03,0,.03.03,0,.02-.05,0-.03.03-.02,0-.03,0-.03-.02-.02.01.03.03-.01.04-.02,0-.04,0-.04-.02-.01.04-.09.06-.07.1-.03,0-.02-.02-.05-.01.03.03-.02.03-.02.03-.04.04,0,.09-.08.1.02.04-.04.07-.06.09,0,0,0-.02-.03-.02.01.05-.04.04-.04.1.01.03.05,0,.05-.02.01,0,0,.05-.01.05.01.03.03-.02.04-.02.01,0,0,.03,0,.04,0,.01-.06,0-.06.05-.03,0-.05,0-.05-.02-.04,0-.03.05-.08.04,0,.02.03.03,0,.05-.02-.05,0-.12.02-.18-.02.01-.05.02-.08.03,0,.02.02.04-.01.04,0,.01.02.02.02.03-.01.04-.03,0-.06,0,.04.04-.05.14-.1.1.02.03-.02.02-.02.06.04,0,.03-.04.07-.04.02.02-.05.05-.07.06,0,.01.01.03,0,.05,0,.02-.03,0-.02-.02-.03.01,0,.05.03.04,0-.02.03-.02.03-.05.01,0,.02.02.04.02-.01.04-.07.03-.08.07-.02-.01-.02-.09-.06-.06.03.02,0,.02,0,.05-.03-.03,0-.03-.05-.01.02.02.02.03,0,.06-.05-.03-.03.05-.09.04.06-.07.08-.15.18-.2-.06,0,.04-.06-.01-.09-.02,0-.02.01-.04,0,.02.04-.05.06-.08.05.04.01,0,.05.05.06-.02.01-.02.04-.05.04-.03,0,.05-.04-.02-.03,0-.03.03,0,.02-.04-.02,0-.02-.01-.04-.01,0,.06-.03.05-.07.03.04.04-.06.08-.08.12,0,.03.01.01.04.01,0,.07-.1.09-.09.15-.03,0-.02-.03-.04-.03.03-.03.05-.06.09-.08,0-.02-.02-.04-.04-.04,0,.02,0,.02-.02.02,0,0,0,.02.02.02-.06,0-.11.11-.11.16-.03-.07-.06.01-.11-.01,0,.02-.01.03-.02.03.02.04.03-.02.05-.01.03.01.01.06.01.11-.05,0,0-.05-.02-.07-.05,0-.02.02-.04.06.02,0,.03.02.04.03,0,.02-.04,0-.03.04.04,0,.03-.07.09-.05,0-.05.02-.09.05-.11.02,0-.02.03-.02.04,0,.03.05,0,.02-.02.1.09-.14.17-.2.28.01,0,.03,0,.03.01.03,0,.01-.04.04-.03.02.01-.01.07-.05.06.03.01.02.09-.03.08-.01,0,.01-.05.04-.05-.04-.02-.02-.04-.04-.07-.04.01-.04,0-.07,0,.03-.05.07-.05.08-.13-.05,0-.02-.03-.07-.01.02.02.05.01.04.06-.04.04-.08.06-.11.1.02,0,.04,0,.04.02.02-.01.04-.03.06-.04.01.02,0,.04,0,.06-.02,0-.02,0-.02-.02-.05.02.02.04-.03.06-.02-.01-.02-.04-.04-.05,0,.08-.12.11-.12.19-.02,0-.02-.03-.05-.02,0,.03-.04.04-.04.08.02,0,.04,0,.05.01-.02.04-.05.05-.06.09-.03,0-.04-.08.02-.07-.03,0-.02-.04-.05-.04.01.06-.03.07-.05.13.03,0,.02-.03.04-.03.02.03-.03.03-.03.07-.02,0-.02-.01-.04-.01.02.03,0,.05-.02.06-.01,0-.02.01-.03.02,0,0,0,0-.01.01,0,0,0,0,0,0-.02-.02-.03-.02-.02-.04,0-.02.02-.03.01-.05-.01,0,0,.01-.01.02-.03.01,0-.03-.04-.02,0,0,0,0,0,.01,0,0,0,0,0,0,0,0,0,0,0,0,0,0,0,0,.01.02.01.03-.02,0-.02.01-.01-.01-.03-.04-.01-.03-.03-.04,0,.05-.04,0l.02.04s.02.02.03.02c0,.02-.01,0-.03-.02.02.05-.02.02-.05,0,.01.04-.04,0-.04.04.01.03.01,0,.02.01.01.04,0,.04-.02.05-.02-.03.01,0,0-.04-.01-.01-.02-.02-.03-.04,0,.02.01.07.02.1,0,.02-.02-.03-.03-.04,0,0,0,.05-.02,0,0,.05-.02.05-.03.05-.01-.02,0-.05-.02-.07,0,.03.01.05.01.08,0,.03-.02-.04-.02-.06,0,.02,0,0-.01,0,0-.02,0-.05-.01-.07,0,.01,0,.04,0,.03,0,.03,0,0,0,.03,0,.03,0,0-.01,0,0,.03,0,.03,0,.02,0,.02,0,.04,0,.06,0,0,0-.03,0,.02-.01-.04,0-.03,0-.06,0-.02,0,.02,0,.05,0,.02-.01,0-.02.01,0-.03,0-.06,0-.09,0-.01-.02-.08-.02-.05,0-.06,0-.09-.02-.09,0,.02,0,.02,0,.06,0,.03,0,.02,0,.01,0,.02,0,.04,0,.06,0,0,0,0,0,0,0,0,0,0,0,0,0,0,.01.04.01,0,0,.02,0,.04,0,.07,0,0,0-.05,0,.02,0-.02,0-.04,0-.06,0,.02,0,.03,0,.04,0,.01,0,0,0-.02,0,.03,0,.05,0,.05,0,.02,0,0,0,.02,0-.02,0-.06,0-.08,0,0-.01.04,0-.02,0-.02-.01.08-.02.04,0-.02,0-.03,0-.04,0-.01-.01-.08-.02-.03,0,0,0-.02,0-.04,0,0-.03.03-.05.12,0,0,0-.01-.01,0,0-.03.02-.05.02-.08.01-.02,0,0,0,.01.01-.02.02-.05.02-.08,0,0,0,.02,0,.03,0,.01-.01.03-.01,0,0-.03,0,0,.01-.03,0-.04-.01.01,0-.03-.02.08-.02,0-.01-.04-.01.02-.03.07-.02.09.01-.04.01-.02.01,0,0,.02,0,.01,0,0,0,.04.01.03.01.05-.03.03-.05-.05-.08-.05,0-.01,0-.02.01-.02,0-.01,0-.02-.02,0,.02-.04,0-.01,0-.04,0-.02.02-.02.03-.04-.03.04-.02,0-.01-.01-.02.03-.04.04-.02,0-.02.02-.01,0-.03.02.02-.05.02-.06.02-.07,0,0,0,0-.01-.02,0,0,0,0-.01-.01l-.02-.02s-.02-.03-.03-.05c-.02.02-.06.02-.04-.02-.03-.01-.04,0-.05.02,0,0-.02-.01-.02-.02.02-.01.03-.03.06-.03,0-.05-.05.03-.05-.04-.05.03-.04,0-.07-.03,0-.02.03-.02.05-.02-.08-.03-.13-.13-.23-.11-.04-.02-.02-.03-.03-.05,0-.03.04-.01.04-.05-.03,0-.04,0-.05.03-.02-.03-.03-.01-.06-.03.01-.04.08-.04.1-.01,0-.02,0-.02.01,0,0-.07-.02-.15-.13-.16,0-.03.05,0,.04-.04-.05,0-.07-.08-.1-.11-.02,0-.02.01-.04,0,0,0,.02,0,.02-.03-.02-.02-.01,0-.04,0,0-.01.02,0,.02-.02,0-.04-.04-.05-.06-.03,0-.01,0-.02-.01-.02,0-.01.02,0,.03,0-.05-.05-.08-.17-.15-.17-.02-.08-.04-.03-.05-.08-.07,0-.08-.02-.14-.03,0,.03.02.03.02.05-.03,0-.02-.04-.05-.05,0-.01.02,0,.03,0-.03-.04-.04-.09-.07-.13,0-.01.02,0,.03,0-.01-.02-.02-.04-.05-.05-.07.03-.1-.15-.19-.17.05.07.11.14.15.22-.03-.01-.04-.04-.06-.07-.03.01.02.03.02.05-.02,0-.04,0-.06,0,0-.02.01-.02.01-.04-.06-.03-.1.01-.13-.06.01-.02.06.02.08.02.01-.01.01-.04.03-.04-.02,0-.11.03-.12-.04,0-.02.02-.02.04-.02,0-.04-.09,0-.1-.05,0-.04.04,0,.03-.05,0,0,0,0-.01,0-.01.01-.03-.03-.05,0,0-.01-.03-.06-.05-.03,0-.02-.03-.02-.03-.04.02-.02.07,0,.08-.02-.02,0-.05-.02-.07-.03,0-.03.02-.02.01-.05-.04-.03-.06-.07-.09-.1,0-.02.03.02.05,0-.02-.06-.1,0-.1-.08-.02,0-.05,0-.05-.02-.03,0,.01.02,0,.04h-.03c-.01-.05-.06-.07-.07-.12.03-.03.07.02.06.06.03,0,.05.01.06.03-.02-.02-.02-.1-.08-.09,0-.04.04-.02.03-.06-.06.01-.12-.06-.17-.11,0-.03.02.01.04,0-.02-.02,0-.03,0-.06-.04-.02-.06-.06-.1-.07,0-.07-.04-.03-.13-.06.03.02.06.03.07.07.02,0,.02,0,.02-.02.02,0,.04.02.04.05,0,.02-.03,0-.03-.01,0,.02,0,.12.05.12-.01.05.05.11.09.13,0,.03-.02.03.02.03.02.09.06.15.13.2-.03.03.05.07,0,.08.02,0,.04.02.06.04,0-.02-.01-.02-.01-.04.02,0,.03.02.04.02,0,.01-.01.02-.03.02,0,.03.02.03.02.06.02,0,.02,0,.03,0,0,.03,0,.05.03.04,0,.02,0,.04.01.04,0,.03-.05,0-.03.03.06-.01.13.1.12.15,0,.03.02,0,.04,0,0,0,.01.01.02.01,0,.03-.02.03-.01.06.07,0,.1.11.14.17.03,0,.04.01.06.02,0-.05-.04,0-.05-.05.03,0,.02,0,.03-.04.07,0,.08.05.06.09-.03,0,0-.05-.04-.05.02.03,0,.07-.03.06.03.04.05.08.08.12-.04.02-.02.01-.01.05-.02-.01-.03-.04-.03-.08-.02,0,0,.03-.03.03.03.01.03.05.05.07.03,0,.02-.03.02-.06.04.03.05.07.1.08.02,0,.02-.03.04-.04.04.03-.03.03-.01.06,0,.01-.01,0-.03,0,0,.07.09.12.08.19.07.01.09.08.13.13-.01.04-.05,0-.08.01.01.05.07.01.03.07.03,0,.04-.02.05-.05.05.03.08.07.1.12.05-.02.07.03.09.06,0,.01-.02,0-.03,0-.01,0,0-.03-.01-.04-.01,0-.02,0-.02,0h-.02s.06.02.04.07c-.03,0-.03-.03-.04-.03-.03.02.02.05.02.06-.08,0,.03.05.04.1.01-.02.05-.04.07-.01-.04,0-.01.04-.04.07.01,0,.02,0,.02.01.02-.04.05,0,.08-.01,0,.02.02.09.08.1,0,.03-.03.03-.04.04.02.04.04.07.04.11.01,0,.03,0,.04,0v-.04s-.03-.05-.05-.07c.05,0,.04.06.08.07-.06.06.03.09.04.16,0-.02-.04-.03-.04-.06-.03.02.02.06.04.08.02,0,.03-.02.05-.03.02.01,0,.02,0,.03,0,0-.02.02-.02.03.01,0,.01,0,0,.01.03-.03.04-.02.02.03.02-.04.01,0,.05-.03-.01.04-.04,0-.05.05.04-.04.04-.01.06-.03-.01.04-.03.01-.04.03.01.01.01.02.04,0,0,.04-.02,0-.03.03-.01.06.03.02.06.03,0,.02-.02.03-.02.06.03-.02.02.02.04.02,0,.02-.02.03-.03.05-.01,0,0,0-.02,0,0-.02.01-.02.02-.04-.02-.01-.04,0-.05-.02,0,.02,0,.06.02.06,0,.03-.01-.01-.02.02,0-.03-.02-.03-.03-.05,0,0,0,.02-.02.02-.02,0,.01-.03,0-.04-.01,0-.02,0-.02,0-.05.07-.01-.04-.06-.02,0-.02.03-.03.02-.04-.03.01-.03.05-.06.06,0,.02.02.01.01.04,0,0,0-.02.01-.03.02,0,.02.02.03.03-.01.02-.02,0-.04.02-.01,0-.02-.03-.04-.03,0-.03.03-.03.02-.04-.02.01-.04.02-.05.01,0,0-.01,0-.02-.01,0,0-.02-.02-.03-.03-.04-.05-.07-.11-.1-.14.01-.02.05,0,.05-.03.03.04.05.08.08.12l.04.05s.01.02.02.03c.02-.01,0-.03-.02-.02,0-.03,0-.03.03-.04,0,0-.02-.01-.03-.02-.01,0-.02-.02-.03-.02,0-.02.04,0,.03-.05-.05,0-.04,0-.06-.04,0-.03.03-.02.02-.05-.03-.05-.09-.08-.13-.08,0,0,0-.03.02-.03.03,0-.03.03.02.02-.01-.05-.06-.07-.07-.12h-.07s.02-.04.01-.08c-.06,0-.02.05-.03.07-.04,0,0-.07-.05-.07,0-.05.06-.02.05-.07-.01,0,0,.01-.01.02-.06-.03-.08-.08-.11-.13-.04,0-.03.05-.01.07-.03-.01-.1.01-.09-.03.01-.03.03.02.04,0,.01-.03-.03-.01-.02-.04-.03,0-.03.03-.06,0,0-.02,0-.03.03-.03,0-.05-.07.01-.07-.04,0-.02.06,0,.05-.04-.03-.01-.04,0-.06,0,0,0-.02-.01-.02-.02.02-.02.04.01.06-.02-.03-.03,0-.03,0-.08-.03-.07-.11-.1-.14-.14.07,0-.06-.11-.08-.16.03-.02.04.06.09.05-.02-.07-.11-.06-.1-.12-.01,0,0,.02-.01.03-.04,0-.03-.03-.06-.03.01-.09-.09-.1-.07-.16-.07-.03-.07-.09-.14-.1.02.02,0,.01,0,.04-.09-.03-.05-.1,0-.15-.03,0-.04.04-.07.05-.02-.03-.04-.05-.05-.09,0-.02.04.02.06.02,0,.02-.06-.1-.08-.11,0-.02.02-.04.02-.02.02-.02-.02-.02-.03-.03-.01,0,0,.02-.01.03-.04-.04-.05-.17-.13-.21v-.05s-.01-.03-.04-.02c.01-.1-.09-.1-.08-.19-.07-.03-.1-.1-.11-.18.04.02.06,0,.09.02-.05-.05-.14-.08-.13-.14-.04.04-.1.02-.14.08-.02-.03-.03-.07-.05-.11-.04.05.08.12.02.17-.02,0,0-.04-.01-.05-.04.03-.04-.04-.09-.04.02-.01.04-.03.03-.07-.02.03-.04.01-.08,0,0-.04,0-.09-.03-.06,0-.03.02-.04,0-.06,0-.03.02-.01.04,0-.02-.03-.04-.06-.07-.07,0-.04.05-.01.05-.05-.02,0-.07.03-.06-.02-.02,0-.04,0-.03.04-.04-.02-.03-.02-.07,0-.03,0,0-.05-.02-.04-.04,0,0,.03-.01.05-.02-.01-.02-.04-.04-.05,0-.02.05,0,.04-.04-.03.01-.05-.03-.02-.03-.07,0-.11-.07-.11-.16-.01,0-.04,0-.05.02.01.03,0,.02,0,.06.02,0,.02-.01.02-.03.05.04.06.11.09.17-.05-.02-.05-.1-.1-.12.01.03.03.05.03.09-.03-.01-.03-.06-.08-.05,0-.02.04-.02.03-.05-.02,0-.02-.01-.04-.01,0-.02.02-.02.03-.02,0-.02-.03-.02-.02-.04-.04.02-.05-.03-.08,0-.01-.05.04-.03.03-.07-.04,0-.07-.08-.05-.1-.05-.02-.02-.05-.06-.07,0-.03.02.01.04,0,0-.05-.06-.06-.07-.11-.03,0-.04,0-.06.03-.01-.02-.05-.05-.08-.03-.01-.03.03,0,.02-.04,0-.02-.04-.02-.04-.06-.03,0-.03.02-.05,0,0-.03.06,0,.07-.02.03,0-.01.06.03.04.02-.03-.02-.07-.06-.08,0-.03.01-.03.01-.05-.04-.01-.12-.05-.1-.08,0-.01-.02,0-.02,0-.02-.02-.05-.03-.04-.08-.03,0-.03-.02-.06-.02.04,0,0,.08.06.08-.01.04-.04.03-.02.08-.07,0-.04-.04-.04-.06-.05,0,0,.04-.02.06.03,0,.04,0,.03.03.03,0,.03.02.05,0,0-.03-.03-.03,0-.05.02,0,0,.05.03.04-.01.03-.04,0-.02.05.03-.04.02.03.04.05,0,0-.04.03-.04,0,.02.02.01.08.05.1-.03.06.04.07,0,.13.04.02.06,0,.08.03,0,.01-.03,0-.04,0-.01.05.03.06.04.1.02,0,.02-.01.01-.03.04,0,.04.04.06.02,0,0-.03.04,0,.04,0,.03-.02.01-.04,0,0,.05.06.05.05.12.06-.04.01.06.08.05-.04.02,0,.04-.01.06-.02-.02-.05-.03-.04-.08-.06.02-.07-.06-.08-.12-.02.01-.04.02-.07.01.1,0,.07.23.22.2.03.04.07.07.08.12.02,0,.02-.01.01-.03h.06s.02.03.02.05c-.03,0-.03-.04-.07-.03,0,.03.02.04.02.07h.04s.02.02.02.04c0,.02-.03.02-.05.02.03.05.07-.02.09.04.01,0,.02-.01.02-.03.02,0,.03,0,.04.02-.07.02,0,.12,0,.17-.04-.02-.09-.13-.12-.09-.03-.03-.04-.08-.08-.11-.03.02.03.05.03.08-.04-.01-.03-.02-.07-.02.03-.06-.03-.04.01-.09-.04-.01-.05.02-.06.05-.03-.01,0-.04,0-.06-.02,0-.03-.02-.06-.02,0-.03.01-.03.01-.05-.05,0-.01-.01-.03-.04-.04-.01-.05-.05-.09-.06,0-.03.03-.02.03-.04.03.02.06.09.09.05-.01-.02-.04-.02-.06-.03,0,0,.01-.02.01-.03-.05,0-.05,0-.05-.05-.05-.01-.03.04-.08.02,0,0-.01-.01-.02-.01,0-.03.03-.03.04-.04.01-.04-.03-.03-.02-.06-.02,0-.02,0-.02.02-.04-.02-.03-.1-.1-.09-.04-.08-.1-.1-.11-.19-.04,0-.04-.03-.06-.05-.03.02-.03.03-.06.03,0,.05,0,.04,0,.08.04-.01.02-.02.06-.02.03.02.03.06.08.06,0,.03-.06.01-.08.02,0,.03.06.05.02.07.03.04.1.05.09.12-.04,0-.05-.04-.08-.05,0,.02.03.03.02.06.03-.01.03,0,.02.02.08,0,.06.1.11.13.01.03-.02.02-.04.02,0,.03.03.03.03.05,0-.03.03-.04.02-.09,0,0,.02-.01.03-.02.01.01.02.03.03.04,0,.02-.03,0-.02.04.02,0,.03,0,.04,0,.01,0,0,.02.02.02,0,.03-.02,0-.04.02-.03,0-.01-.05-.05-.05.14.2.3.37.42.58.05-.03.08.05.06.09.03,0,.04-.05.07-.06.04.02,0,.06.04.08,0,.01-.02,0-.03,0,.02.03.07.04.08.08-.09.02.03.1.03.18.03.01.02-.02.02-.04.04.05.02.03.04.09.02,0,0-.03.02-.03.01,0,.02.02.02.04.01,0,.03-.01.05,0,.04,0-.01.04.04.05,0,.02-.02.02-.04.02.05.08.02.09.11.16,0,.01-.01.02-.03.02.08.02.1.1.17.14,0,0,0,.02-.02.02.02.02.05.03.09.03,0,.03,0,.04-.03.03.07.06.08.18.2.19,0,.03-.03.02-.02.05-.02,0-.01-.03-.04-.02.06.05.15.08.19.17.03-.01-.02-.06.03-.05,0,.05,0,.09.04.11.05-.01-.02-.03-.02-.05.04,0,.05.03.07.05-.02.02-.04.03-.06.04.06.05.14.06.18.14,0,.01-.02,0-.02.02,0,.02.01.02.01.04.04,0,.03,0,.06,0,0,.01-.01.03-.01.05.04.02.06.05.08.08,0,.03-.03,0-.03-.01-.01.05.07.06.11.05.01.04-.02.03-.05.03.04.04.12.04.13.09,0,.02-.05.01-.03-.01-.02.03,0,.06.02.08,0,0-.04-.03-.03,0-.02,0,0-.03-.04-.02,0,.04.03.04.04.07,0-.02.05-.03.05,0,.02,0,0-.01,0-.03.03.01.05.03.1.03.01.04-.04.01-.03.05.03,0,.06.03.08,0,.04.05.07.12.11.14.01-.01.02-.03.05-.02-.01.05-.06.03-.02.08-.03,0-.03-.02-.05-.04-.02.03.05.05.06.08.01,0,.01-.02.03-.02,0,.03.02.03,0,.07.03.01.03-.02.06,0,.02.01-.02.07.05.07,0,.03-.02.02-.01.05-.03,0-.03-.02-.04-.03.01.07.06.12.12.17.06.05.11.09.15.15-.01.02-.03.02-.06.02.01.03.04.03.05.06.02,0,.03-.02.04-.03.04.04.08.19.18.15,0,.04-.03,0-.04.03.03.04.04.04.06.08.01,0,.01-.02.02-.03.04.02.05.16.1.12,0,.03,0,.04,0,.08.02,0,.05,0,.05.04.05-.05.08.11.14.1,0,.01,0,.05,0,.06.03.01.06,0,.07.09.02-.01.03,0,.04,0,0,.01,0,.03,0,.04,0-.02.04,0,.02.02.02,0,.05.03.07.08,0-.04.01-.03.03-.02,0,.02,0,.02-.01.02.02.04.05.05.08.09-.02.02-.03-.04-.04,0,.01.03.03.06.05.06,0,.02-.01.02-.02.03-.02-.02-.03-.1-.06-.07.03.01,0,.08.03.09,0,.05-.02.03-.04.02,0-.03,0-.04.01-.06-.02-.05-.03-.01-.04,0-.02-.02-.04-.03-.05-.08.04.05.04-.02.07.02.01-.02-.03-.05,0-.05.02,0-.01.05.01.04.03,0,0-.02,0-.06,0,0,.02,0,.02.02-.02-.06-.09-.08-.13-.15,0,.06-.02-.01-.03.03.03.02.05.05.08.05,0,.13-.09,0-.12,0-.03-.08.02-.08,0-.15-.01.05-.03-.05-.06-.02.02,0,.06.08.03.11-.02-.08-.04,0-.07-.08-.01-.05.02-.04,0-.09h-.04s0,.05,0,.05c-.06-.02-.11-.09-.17-.12,0,.05.03.04.04.07-.04,0-.11-.05-.09-.12.01.02.03.03.06.02.02-.02-.02-.04,0-.05-.04-.03-.09,0-.08-.09-.03.01-.03-.02-.04-.03,0,.01-.02,0-.02.03-.03-.06-.12-.09-.11-.16-.02-.02-.05-.04-.08-.06,0-.01.02-.02.03-.02,0-.03-.03,0-.05,0,0-.04.02-.05.05-.05-.01-.03-.05-.05-.03-.1-.03.01-.03.06-.07.05.02.05.05-.03.07.03-.01.03-.03.03-.06.02-.05-.03-.04-.13-.09-.15.01-.04.03,0,.06,0,0-.03-.03-.03-.06-.05,0,0-.01.02-.01.03-.02,0,0-.03-.03-.01,0-.05-.09-.03-.07-.11-.03.02-.07-.03-.05-.06-.06.02-.11-.03-.12-.08-.02,0-.02,0-.03,0,0-.05-.06-.06-.02-.1-.02,0-.05,0-.07,0-.02-.05.05-.02.04-.06-.04,0-.06-.03-.07-.07-.02.01-.06,0-.08.01,0-.03.07-.01.06-.06-.05.05-.11-.03-.12-.08-.04-.02-.06.01-.08-.03.02-.02.06-.01.02-.04.01-.02.04-.02.07-.01,0,0,0-.01-.01-.01v-.02s-.03.02-.06.02c-.04-.01,0-.05,0-.09-.04,0-.03-.05-.06-.06,0,.05.02.07.05.08-.01.01-.01.04-.01.06-.02-.03-.04,0-.04-.06-.03-.02,0,.03-.04.02,0-.05-.05-.09-.08-.14-.02,0,.01.05.03.05-.03.04-.08-.02-.09-.05,0-.04.04.04.04,0,0-.05-.04,0-.05-.05.08-.01-.09-.08-.07-.16-.03,0-.08-.02-.14-.03.05-.04-.08-.09-.1-.09,0-.01,0-.03.01-.03-.02,0-.03-.03-.07-.04.02-.05-.04-.04-.08-.07,0-.02.03-.02.02-.05-.09-.04-.1-.1-.19-.16,0-.02.03-.02.01-.04-.04.04-.05-.02-.04-.07-.02.04-.08.02-.09-.02.02-.03.03.04.05,0,0-.02-.01-.02-.01-.04-.02,0-.02.03-.04,0,0-.01.03,0,.03-.02-.02-.05-.05-.05-.06-.03-.03-.02.03-.03,0-.05-.02.03-.05.01-.08,0,.02-.04-.02-.02,0-.06-.02.02-.05-.01-.05-.04.01-.01.02,0,.03-.02-.04.02-.09-.1-.12-.04,0-.03-.07-.01-.07-.05,0-.04.03,0,.07,0-.01-.03-.04-.04-.05-.07-.07.05-.11-.05-.15-.06.02-.02.05,0,.07,0,0,.02,0,.02-.02.02.01.04.03,0,.06.03-.03-.04-.04-.05-.03-.12-.03-.01-.02.02-.04.03,0-.07-.15-.16-.19-.22-.01,0-.06-.03-.06,0-.05,0-.03-.08-.07-.04,0-.03.03-.02.04-.04.01,0,0,.03.01.04.04,0,.02-.04.06-.02-.03-.03-.04-.02-.09-.04,0,0,.01-.02.01-.03-.04,0,0,.02-.03.04-.03,0-.02-.04-.06-.04.05.11.13.2.21.29.01.03-.03,0-.02.04.02.02.03,0,.05,0,0,.04-.05.02-.09.02-.04-.05-.04-.15-.13-.18-.02-.02-.01-.05-.03-.07,0,.04,0,.03-.03-.01-.03-.01-.02.02-.04.02,0-.08-.04-.06-.07-.1,0-.03.02-.02.01-.05-.02.02-.05.02-.06-.02,0-.03.05,0,.03-.03-.02,0-.02,0-.02-.02,0,0-.02,0-.04,0-.03-.06-.05-.09-.06-.15-.05.03-.02-.05-.07-.05,0-.03.03.02.05,0-.02-.02-.04-.04-.05-.07-.02,0-.05,0-.05-.02-.02.03-.02.02-.07.01.05.04.03.09.08.1,0,.04-.03,0-.03.04.04,0,.05,0,.06-.03.02,0,.03.02.05.03-.03.03.02.05.04.07,0,.04-.04,0-.07.01.02.03.03.02.05.01,0,.01,0,.05.02.08.01-.01.05,0,.07,0-.01.02-.04.03-.03.07.03,0,.03.03.04.05-.02,0-.02.03-.03.04.07.05.11.12.15.19.06,0,.05.08.1.09,0,.11.16.12.13.22.03,0,.03.02.05.01,0,.03,0,.05,0,.07-.03-.01-.03-.05-.07-.03.04-.02,0-.03,0-.05-.03,0,0,.02,0,.04-.05,0-.06-.04-.08-.07,0-.02.04,0,.04.02.02-.03-.06-.07-.08-.1,0,.03.03.02.02.05-.04-.06-.08-.05-.13-.09,0-.03.06.01.04-.03h-.04c-.02-.07-.1-.11-.14-.13.06,0,0-.04-.02-.07-.02,0-.04,0-.02.03-.08,0-.02-.06-.08-.07,0-.03.02-.04.04-.05,0-.02-.06-.02-.07,0-.03-.01-.03-.1-.07-.07,0-.01-.03-.06,0-.06-.04,0-.11-.06-.13-.13.04.02.03.02.08.02,0-.03-.01-.06-.02-.08-.02-.01-.02.05-.03.02-.04.01.02.02.03.03-.03.04-.11,0-.1-.07-.03-.04-.14-.02-.13-.08h-.04s.02-.02.03-.03c-.01-.03-.07-.02-.07-.06,0-.03.03,0,.05,0-.07-.05-.15-.09-.14-.17-.02-.02-.03-.04-.07-.04,0,.02,0,.03-.02.03,0-.05-.09-.08-.09-.14.03,0,.05,0,.05.03,0-.03-.05-.09-.07-.12-.05,0,.02.02,0,.05-.03,0-.04-.04-.07-.04,0,.01-.01.02-.03.02,0,.03.02.02,0,.04,0,0-.02-.01-.03-.01.01-.06,0-.06-.02-.12.04,0,.02.05.06.05,0-.03-.02-.03,0-.06-.01.03-.07,0-.09-.03,0-.01.02,0,.03,0,.01-.04-.03-.03-.02-.06-.02,0,0,.03-.02.04-.05-.02-.06-.09-.11-.11-.03.02.03.02.03.05,0,0-.01,0-.01.02-.02-.04-.04-.03-.08-.05-.03.03,0,.05.04.03,0,.04-.05,0-.02.04-.03,0-.07-.04-.07.01Zm1.71,2.38s.04.04.05.07c-.04,0-.05-.03-.05-.07Zm1.39,1.9s-.06-.05-.06,0c-.04-.02-.07-.06-.08-.1.04,0,.03.01.07,0,0,.02,0,.04,0,.04.01,0,0-.02.02-.02,0,.03.06.02.04.08Zm12.79-10.92s-.02-.05.03-.05c.01.01,0,.05-.03.05Zm-.56-.53s.02-.05.02-.11c.03.01.04-.01.03-.04.04,0,.04,0,.08.02.01-.05-.03-.05-.06-.06.06-.03.1.02.1.07-.07,0-.05.11-.1.12-.04,0,.01-.03-.02-.04,0,.03-.04.06-.06.04Zm-3.19,3.51s-.05.03-.06.06c0-.04.03-.06.06-.06Zm-1.66,1.75s-.06.03-.07,0c.04,0,.06-.05.07,0Zm-1.33,1.24s.02-.04.05-.03c0,.03-.04.06-.05.03Zm-5.71,1.4s-.05-.05-.05-.09c.02.02.08.06.05.09Zm.1.79s-.11-.09-.06-.1c0,.05.06.04.06.1Zm-1.74-2.05s.02-.01.04,0c0,.02.01.02.01.04-.03,0-.06,0-.05-.04Zm1.61,3.36s-.07-.07-.1-.12c.05.02.09.07.1.12Zm-1-1.08s-.06-.06-.04-.08c.02.02.07.05.04.08Zm-.47-.59s-.06.02-.05-.01c0-.02.06,0,.05.01Zm-1.67-1.03s-.01,0-.03,0c.02-.05-.05-.02-.03-.06.05,0,.08.05.06.07Zm.6.91s-.05-.01-.04-.05c.05,0,.04.04.04.05Zm.54.93s-.05-.02-.05-.06c.04,0,.04.03.05.06Zm.14.17s-.07-.06-.04-.09c0,.04.05.04.04.09Zm.02-2.15s.08.06.1.11c-.06-.01-.11-.08-.1-.11Zm.08,2.96s-.06-.02-.06-.06c.05,0,.06.02.06.06Zm.01-1.4s-.05-.02-.05-.06c.03,0,.08.04.05.06Zm0-1.65s-.05-.04-.01-.05c0,.02.06.04.01.05Zm.05.03s0,.02.02.05c-.02,0,0,.03-.02.03-.02-.03,0-.04-.04-.05v-.03s.02-.01.04,0Zm.03.17s-.06-.02-.05-.06c.04,0,.05.02.05.06Zm.14,1.19s.03,0,.04.02c-.04,0-.07.05-.09,0,.02-.03.05,0,.05-.03Zm.04-1.03s-.03,0-.04,0v-.03s.03.02.04.03Zm0-.63s-.02-.02-.03-.05c.03-.03.09.06.03.05Zm.08,1.78c.01.06.1.06.07.12.03-.03.07.01.07.05-.06-.05-.08,0-.16-.03.02-.06-.02-.02,0-.06-.03-.02-.11-.06-.09-.09,0,0,.03.03.03.01-.02-.01-.04-.03-.04-.07.03,0,.03.03.03.05.03,0,.05.04.08.02Zm-.06,1.19s-.05-.02-.06-.04c.02-.02.06,0,.06.04Zm.02-1.38v.04s-.04,0-.04-.02c.03.02,0-.03.04-.02Zm.09-1.35s0-.06-.05-.05c0-.03.04-.03.01-.06.07,0,.01.07.04.11Zm0,.6s-.07,0-.06-.04c.02.02.07,0,.06.04Zm0-.41s.1-.02.1.02c-.02.02-.05.02-.06,0,.03-.03-.01-.03-.04-.02Zm.18,1.77s-.01-.03-.04-.02c-.01-.02-.01-.03,0-.04-.06-.02-.06-.09-.12-.1,0-.03.05-.04-.01-.04,0-.03.04-.07.05-.03-.01,0-.02,0-.02.02.06-.05.11.03.16.06v.05s.07.01.07.06c-.04.02-.1-.03-.11-.06,0,.01-.01,0-.02,0,.02.02.01.06.03.08.06,0,.1,0,.1.06-.04-.05-.05-.01-.08-.02Zm-.12-1.34s0-.03.03-.03c-.01.03.03.01.02.04-.03,0-.05.02-.08.01v-.03s.03,0,.03,0Zm.02,3.06s-.06,0-.05-.03c.02,0,.06,0,.05.03Zm.1-.58s-.06-.08-.04-.06c.01.02.05.02.04.06Zm.02-2.72h-.04s0-.03.01-.03c0,.02.04-.01.03.03Zm.08.32s-.02,0-.02.03h-.05s-.01-.05-.02-.08c.03.02.06.03.09.05Zm-.06-.32s.04-.02.05-.04c0,.02.03.02.02.04-.08-.01.02.06-.02.07,0-.04-.09-.06-.05-.1v.02Zm.08.48s-.03-.04-.04-.08c.06-.03.1.06.04.08Zm.03.05s-.03.04,0,.04c.02,0,.02-.03.04-.03v.04s-.04,0-.03.02c-.03,0-.05,0-.05-.03.01,0,.02,0,.02-.02-.03-.01-.03.01-.05,0,0-.04.05-.02.07-.03Zm0,.28s-.07-.03-.06-.08c.04.01.05.04.06.08Zm-.04-.74s.03.07.07.09c-.04,0-.05-.02-.08-.06.01,0,.01-.02.01-.03Zm.07,1.58h-.04s0-.05-.04-.05v-.03s.06.05.08.08Zm0-1.42s-.03-.03-.03-.06c.03,0,.06.05.03.06Zm.03,2.78s-.05-.07-.08-.09c.04-.02.07.05.08.09Zm0-3.04s.03-.01.05-.02c.02.01.03.03.04.05-.01.02-.03.03-.05.04.06,0,.07.03.1.05-.01.06.01.07.03.13-.04,0-.08-.07-.1-.11,0,.02,0,.03-.02.03-.03-.03-.03-.05,0-.05-.03-.02-.12-.08-.09-.15.01.04.02.02.04.05Zm.03.52s-.06.02-.07-.03c.03.04.04-.01.07.03Zm-.02-.39s.02.03.02.05c-.03,0-.06-.05-.02-.05Zm.03,1.62s.01.02.03.02v.05c.06.02.05.05.1.07-.02,0-.01.03-.04.02,0-.04-.03-.05-.06-.07,0,.02-.02.04-.06.04,0-.02-.02-.04-.02-.07.03,0,.03.03.07.03.01-.03-.04-.06-.02-.08Zm-.01.04s-.05-.03-.04-.07c.03,0,.03.04.04.07Zm.08-1.48s-.03,0-.02.04c-.03,0-.04-.02-.04-.05.01-.01.05,0,.06,0Zm-.03,3.09s-.05,0-.05-.04c.03,0,.04.02.05.04Zm.04-3.16s-.01.02-.01.04c-.03,0-.03-.02-.03-.04h.04Zm.07.86s0,.03-.01.04c-.03-.02-.06-.03-.06-.08.04,0,.03.04.07.04Zm-.03-.72s.06.05.07.1c-.02-.03-.09-.03-.09-.08.01,0,0-.02.02-.02Zm0,.24h.04s0,.05-.02.05c0-.03-.03-.02-.02-.05Zm.02-.32s0-.06.03-.05c.03.03-.02.02-.01.06h-.05s-.03-.05,0-.06c.02,0,.02.03.03.04Zm.02,1.68s-.04,0-.05-.05c.03,0,.09.03.05.05Zm.08-1.2s-.05-.03-.06-.06c.04,0,.05.03.06.06Zm-.01,2.88s-.04,0-.04-.03c.02-.02.05,0,.04.03Zm.06-2.62s-.04-.04-.04-.08c.04,0,.06.06.04.08Zm-.02,1.06s.04.06.06.09c-.04,0-.11-.06-.06-.09Zm.2-1.7s0,0-.01.03c-.03,0-.01-.04-.04-.03-.01.04.02.05.02.08,0,.01-.02.07-.04.03.03,0-.01-.03,0-.05-.05,0-.04-.05-.07-.06,0-.04,0-.06-.02-.08-.02,0,0,.03-.02.03-.02-.08.03-.07.09-.08,0,.02-.01.02-.02.03.02,0,0,.03.02.03,0-.02,0-.03.01-.04.04,0,.03.04.05,0,.01.01.03.02.02.05-.02,0-.03-.02-.03,0,.02.02.03.04.04.07Zm-.02.33s.03,0,.05.02c-.02.04.03.05.04.09-.05,0,.02.02,0,.06-.03-.01-.03-.06-.06-.08-.07-.02-.12.05-.15-.01.05.02.15,0,.12-.07Zm-.02,3.1s-.05,0-.04.03c.04.02.05-.01.07-.01,0,.02.01.02.01.04-.06.02-.08,0-.14.02,0-.08,0-.08-.03-.14.04,0,.09.02.12.06Zm-.04-1.59s-.05,0-.06-.04c.03,0,.04.02.06.04Zm.02-2.02s0,.03-.03.03c-.03-.02.02-.06.03-.03Zm.07.68h-.08s-.01-.02-.01-.04c.02-.03.08,0,.09.04Zm-.05,1.4s.02.03-.01.04c0-.02-.03-.02-.02-.04h.03Zm.07-.77c0,.05-.06.01-.06-.02.03,0,.03.02.06.02Zm-.02-1.04s0,.05-.02.05c0-.03,0-.05.02-.05Zm.02,1.82s-.01,0-.01,0c.02,0,.03.01.03.02-.03,0-.06-.02-.06-.05.02,0,.04,0,.04.01Zm.08-.11s-.05-.02-.05-.06c.03,0,.08.04.05.06Zm.05-2.18s.01.03.02.01c0,.03-.02.03-.03.04-.02-.03-.03-.01-.05-.06.02,0,.05,0,.06,0Zm.2,4.3s-.05-.05-.07-.08c.04,0,.07.03.07.08Zm-.01-2.43s-.03-.02-.03-.04c.03,0,.03.02.03.04Zm0,.91s-.05.04-.04,0c.03,0,.02-.02.04,0Zm.06-.79s.09.07.06.1c0-.05-.05-.04-.07-.07.02,0-.01-.02.01-.03Zm.4,2.83s-.09-.07-.12-.13c.05.03.13.09.12.13Zm-.28-4.24s-.04-.06,0-.07c.02,0,.03.06,0,.07Zm.14.74s.02.05.02.08c-.04,0-.03-.05-.08-.04,0-.02-.02-.02,0-.05.04,0,.03,0,.07,0Zm.02,1.47s0,.06-.04.05c-.01-.02.01-.05-.02-.07.04,0,.03.03.06.03Zm.17-1.77s-.07-.01-.08-.04c.04,0,.08,0,.08.04Zm-.04.92s-.03-.02-.03-.04c.03,0,.03.02.03.04Zm.04-.35s-.06-.02-.06-.06c.03,0,.04.04.06.06Zm.04.23s.06.05.08.09c-.05.02-.07-.03-.11-.07-.01,0-.02.01-.02-.01.01,0,.03-.01.05,0Zm.07.83s-.07-.04-.09-.07c.05,0,.07.04.09.07Zm.06-1.54s-.04-.02-.05-.04c.03,0,.03-.03.06-.04,0,.04-.02.04-.01.07Zm-.1-.07s0-.04,0-.07c.04.03.13.01.1.07-.04-.02-.06,0-.09,0Zm.06.12s-.06-.05-.02-.06c.02.02.05.03.04.08-.02,0-.02,0-.02.03-.03,0-.05-.02-.06-.05.02,0,.05.03.06,0Zm.06.67s-.04-.02-.03-.05c.03,0,.05.05.03.05Zm-.06-.07s0-.04.04-.03c.01.03-.03.06-.04.03Zm.02.22s.04.02.06.03c0,.04.01.04.02.06-.03-.01-.02,0-.06,0,.01-.03.01-.04-.03-.04,0-.02,0-.03.01-.04Zm.08,1.61s-.06-.03-.08,0v-.02s-.02,0-.01-.01c.03-.01.08,0,.09.05Zm.52,2s.05.04.04.07c-.03,0-.07-.08-.04-.07Zm-.54-4.41s-.03-.04-.03-.06c.04-.01.04.06.03.06Zm.07,2.1s-.05-.03-.06-.07c.03.01.05.03.06.07Zm.1-1.85s-.01,0-.03,0c-.02-.03.01-.06-.04-.07-.02.01.02.05-.02.05-.02-.02-.02-.04,0-.07.06,0,.13.05.1.09Zm-.07,1.51s.07.03.06.08c-.04,0-.05-.03-.08-.04,0-.02,0-.04.02-.04Zm.06-.87s.01.03,0,.05c-.04,0-.04-.05,0-.05Zm.08-.55s-.02,0-.03,0c0-.01-.01-.03,0-.05.03,0,.04.02.04.05Zm.02.68s-.07,0-.06-.04c.03,0,.05.01.06.04Zm.06.24s-.02-.03-.06-.02c0-.02,0-.03.01-.04.04,0,.05.02.05.06Zm-.1-.13s.06.03.05.08c-.05,0-.08-.05-.05-.08Zm.04-.65s-.03-.03-.03-.05c.03,0,.02.04.03.05Zm.06.64s-.03-.02-.05-.04c.02-.02.06,0,.05.04Zm.1.03s-.06-.02-.09,0c-.02-.02,0-.03.01-.05.03,0,.04.02.06.03,0-.01-.02-.03,0-.03.04.02.04.06.04.1-.01,0-.02.01-.04,0,0-.03.02-.03.02-.05Zm.02.14c-.06-.02-.09-.06-.11-.1.05-.04.1.05.11.1Zm-.03-.97s-.05-.06-.07-.09c.04.02.07.04.07.09Zm0,.31s-.04.03-.05,0c0,0,.05-.02.05,0Zm.08-.15s-.05,0-.04.03c0,.02.05.01.04.05-.05,0-.07-.05-.09-.08.03-.01.05.03.09,0Zm-.07.91c.07,0,.05.09,0,.1,0-.04.02-.04,0-.1Zm.07-.06h-.05s0-.03.01-.03c0,.03.06,0,.04.03Zm.05-.45s-.02.02-.04.03c0-.01-.01-.02-.01-.03.02,0,.03,0,.05,0Zm.03-.2s-.03.05-.06.05c0-.04.04-.06.06-.05Zm-.05.58s.04.05.02.06c-.05,0-.01-.02-.02-.06Zm.14-.49s0,.03.01.04c-.04-.02-.02-.04-.07-.03.02-.04-.02-.03-.02-.07.04,0,.04.05.08.06Zm.09.21c0-.07-.1-.09-.08-.14.03.04.14.1.08.14Zm-.03-.03s-.01.03-.04.02c0-.01-.01-.02-.01-.04.03.02.04,0,.05.03Zm.2.18s.03.02.02.05c-.02,0-.04-.01-.05-.04.01,0,.02-.02.03-.02Zm-.08.62s-.06-.01-.02-.05c0,.04.04.03.02.05Zm.17,1.26c.02.05-.02.07-.03.03.02,0,0-.03.03-.03Zm-.16-1.3s-.01-.01-.02-.03c.01,0,.04-.05.04-.03-.01.01-.01.04-.02.06Zm.04-.05s-.03.07-.03.04c0-.02.01-.03.03-.04Zm.1-.39s.02,0,0,.03c-.02.01-.03,0-.03-.01l.03-.02Zm-.07.34l-.02.02v-.03s.02,0,.02.01Zm-.02.19s0,.04.02.06c-.01,0-.03-.03-.02-.06Zm.02.08v.04s-.04,0-.02-.03c0,.03.02,0,.02-.02Zm.26,1.3s-.02-.04-.04-.07c.04.04.08.07.12.12.03-.03.07-.05.1-.06-.02.09-.04,0-.06.08.01.01.03-.01.02.04-.02.02-.01-.03-.04-.04,0,.02-.01.03-.02.03-.02-.02-.03-.07-.05-.05.01.02.03.03.04.09-.01.02-.02-.02-.03,0-.02-.04,0-.07-.02-.08-.02,0,.01.06,0,.06-.01,0-.02-.03-.03-.06,0-.03.03-.03.02-.07Zm-.24-1.48c0,.05.02.03.02.07-.02.02-.02.06-.04.05,0-.03.01-.04.02-.06-.01,0-.02-.02-.03,0,0-.03.01-.04.03-.05Zm.07-.37s-.04.03-.03,0c.01,0,.04-.03.03,0Zm-.05.79l-.02.02v-.03s.02-.01.02.02Zm.14-.09s.01,0,.01.03c-.03.02-.02-.1-.03-.13l-.02.02c-.01-.07-.03-.09-.06-.1-.01.04-.03.05-.04.06.02-.06-.02,0-.02-.04.03-.02.05-.03.08-.07,0,.09.05.05.07.06,0,.01-.02.01-.02.04.01-.01.02,0,.04,0,0-.01,0-.02,0-.03,0,.04.04.01.03.07,0-.04-.04,0-.04.06.01-.06.04.02.04.05-.01-.01-.04-.08-.04,0Zm.03-.07s.02-.03.03-.02c0,.02.01.02.01.05-.02.02-.03-.01-.04-.03Zm-.12-.62s.02.02.02.04c-.01,0-.04,0-.02-.04Zm-.03.34s-.02,0,0-.03c.02-.03.02.02,0,.03Zm.04.08s-.04,0-.02-.03c0,.02.02.01.02.03Zm.03-.36s-.03.02-.02,0c.02-.02.02,0,.02,0Zm.4,1.75s-.03.04-.03.09c-.03,0,0-.11.03-.09Zm.06-.06s-.03.05-.04.12h-.02c.02-.06.04-.13.06-.12Zm-.42-1.23s-.03,0-.02-.04c0,.02.02,0,.02.04Zm.02-.3s-.02.02-.02,0c.01-.02.02-.02.02,0Zm.08.53s.02.01.02.03c-.01.02-.02.06-.03.03,0-.01,0-.05,0-.05Zm.06.16s0,.04.01.05h0s0,.03,0,.03c-.02-.06,0,.04-.02.04,0-.02-.02,0-.02-.06.02-.01.02-.04.03-.06Zm-.02-.21s0,.04,0,.06c-.01-.03-.03,0-.04-.06.02-.01.02.04.03,0Zm2.44.83s.03.02.03.05c-.01,0-.02,0-.03.01-.01-.01,0-.05,0-.06Zm-1.9-.02s.03-.04.06-.03c-.01.05,0,.11-.04.1.01-.05.02-.09-.02-.07Zm-.44-.54s-.02-.02-.01-.05c0,.01,0,.02-.02.03-.02,0-.05-.06-.05-.13.02.05.04.07.05.07,0-.01.01-.03.02-.05,0,.03,0,.05,0,.07,0-.04,0-.05.02-.06,0,.01,0,.03,0,.05,0-.06,0-.02.02-.04-.01-.03,0-.06.02-.03,0,.03-.01.03-.02.09-.02,0-.02-.02-.03.05Zm-.11-.95s.02-.03.02-.03c0,.05,0,.04-.02.08,0-.04,0,0-.01,0,0-.02,0-.04,0-.05Zm.1.77s.03,0,.04,0c0,.03-.02.05-.03.05,0-.02-.02.01-.01-.05Zm-.07-.56s-.01.06-.02.03c0,0,.01-.05.02-.03Zm0-.2s0,0-.01.03c0,.03,0,.02,0,.05,0-.02-.02-.01,0-.06,0-.02.02-.06.02-.02Zm.14.79s.03-.05.02,0c0,.02-.03.06-.02,0Zm-.07-.31s-.02.02-.03.04h0s0,0,0,0c0-.03.03-.08.03-.03Zm-.06-.39s0,.02,0,.03c0-.02-.01-.03,0-.06,0,.03.01-.02.01.03Zm.26.57s-.05.07-.07.1c0,.02.02.03,0,.06-.01-.07-.02,0-.04-.03,0-.05.02-.05,0-.11.03.08.06-.03.09-.02Zm2.5.49s-.02.06-.06.05c0-.02.04-.08.06-.05Zm-1.87-.05s.03,0,.03-.03c.04.02,0,.12-.04.13.02-.06.02-.06,0-.1Zm-.87-.95s-.02-.03-.03-.03v-.02s.02.02.03.06Zm.35.74s-.05.06-.06.01c.02,0,.05-.07.06-.01Zm-.07-.13s.04-.03.06-.02c-.01.06-.06.07-.07.05,0,0,0-.02,0-.03Zm-.26-.62s0,.03,0,.05c0-.01,0,0,0,0,0,0,0,0,0-.02,0,0,0-.01,0-.02,0-.01,0-.02,0,0Zm.03.01s0,.04-.01.03c0-.01,0-.05.01-.03Zm.22.5c.01-.05.02-.02.04.01,0,.02,0,.04,0,.05h-.01c0-.06-.02-.06-.03-.06Zm-.24-.63s.01-.04.02,0c0,.01,0,.07,0,.08,0-.02,0-.09,0-.07,0,.02,0,.04,0,.07,0-.03,0-.06,0-.09Zm.04.11s0,.04,0,.06c0-.04,0,0-.02-.03v-.02s0-.01.02-.01Zm.31.44s-.04.12-.05.05c.03.02.02-.07.05-.05Zm.15.03s-.01.04-.02.04c0-.02,0-.05.02-.04Zm-.03-.08s-.06.1-.09.03c.04.02.06-.06.09-.03Zm.22.05s-.01.04-.03.04c-.01-.02,0-.04.03-.04Zm-.08-.07c.05.03.05-.03.08-.03.01.05-.05.06-.08.08,0-.02-.01-.03,0-.05Zm0-.03s0-.07.04-.06c0,.04,0,.02,0,.06-.01.01-.04.05-.05,0Zm.14-.1s0,.04-.02.05c-.01-.02-.01-.06.02-.05Zm-.48-.3s0,.03-.01.03c0-.01,0-.04.01-.03Zm-.02-.02s-.01.03-.02,0c.01.01,0-.03.02,0Zm.07.05s.02.02.03.04c0,.02,0,.03-.01.02,0-.02-.03-.06-.01-.06Zm-.07-.14s0,.04.03.06c0-.02.01,0,.02,0,0,.02,0,.07-.01.06,0-.04-.07-.15-.04-.13Zm.77.34s-.03.06-.04.03c.02,0,.01-.04.04-.03Zm-.68-.26s0,.03-.01.02c0-.02,0-.03.01-.02Zm.51.21s.06-.08.1-.06c0-.04.07-.04.04-.08h.04s-.02.03,0,.05c-.04.02-.06.03-.04.07-.03.01-.02-.02-.04-.02v.05c-.06,0-.05-.05-.1-.01Zm.23-.15c.06,0,.01.09-.03.08,0-.01-.02-.02-.02-.03.03-.04.06.01.05-.05Zm.03-.09s.03.04.03.07c-.02,0-.01.03-.03.02-.01-.05.02-.04,0-.09Zm.25,0s-.01.05-.05.05c0-.03.02-.05.05-.05Zm2.75-.25s.04-.07.06-.04c-.03,0-.03.04-.01.05-.02,0-.03,0-.04-.01Zm-2.52-.12c.06,0,0,.12-.03.07.04,0,0-.04.03-.07Zm2.6.02s.06-.11.11-.08c-.05.02,0,.04,0,.07-.04,0-.05-.03-.07-.04,0,.04-.02.08-.05.05Zm.17-.17s-.02.04-.05.04c-.03-.03.04-.09.05-.04Zm-3.17-.27s-.03.05-.06.05c0-.04.03-.05.06-.05Zm.07-.12c-.02-.05.03-.03.05-.04-.04-.01-.03-.06-.03-.08.05,0,0,.08.06.07,0-.01-.01-.02,0-.04,0,0,.06-.02.06,0-.05.01-.08.22-.12.11-.02.02-.05.09-.09.06,0-.03.05-.1.09-.08Zm-.01-.08s-.04.07-.07.09c.01-.04.03-.08.07-.09Zm3.41.05s.05-.11.09-.07c-.03.02-.04.1-.09.07Zm-3.33-.16s.04,0,.04.01c-.04,0-.05.03-.04.06-.04-.01-.02-.04,0-.07Zm.16-.04s.02-.04.05-.02c0,.03-.05.06-.05.02Zm-.15-.07s.04,0,.04.02c-.01,0-.03,0-.03.01,0,0,0,.02-.01.02v-.05Zm3.59,0s.01.02,0,.04c-.03,0-.03.02-.05.02,0-.03.01-.06.05-.06Zm-3.25-.13s.04-.01.04,0c0-.01-.02-.02-.02-.03.03-.03.06-.01.06.03-.03.02-.06.06-.1.07.01-.03,0-.05.02-.06Zm3.38.08h-.04s.05-.04.04,0Zm-3.22-.19s.02-.04.06-.04c0,.03-.02.04-.05.05,0,0,0-.01,0-.01Zm3.39-.12s.03-.02.05-.02c0,.01.04.03,0,.04,0-.02-.03-.02-.03,0,.01,0,.02.02.03.03-.02,0-.02.03-.04.02.01-.04-.03-.03-.01-.07Zm-3.27-.09s.07-.08.1-.06c-.02,0-.03.04-.05.05.02,0,.02-.01.04,0,0,.02-.03.05,0,.07-.03-.01-.06-.03-.09-.05Zm3.38-.01s.02.03.02.05c-.03,0-.06-.04-.02-.05Zm-3.24-.07s.07.02.08.05c-.01,0-.02,0-.03.01,0-.03-.06-.02-.05-.06Zm3.32.05s0,.04-.03.04c0-.03,0-.04.03-.04Zm-3.26-.13s-.05.07-.09.08c.03-.04.02-.05.05-.07,0,0,0,.01.02.01,0-.01,0-.02.02-.02Zm.06-.02s.02.01.03.02c-.01.05-.05.08-.09.09,0-.03-.02-.03-.02-.06.03-.01.05-.04.08-.05Zm3.3-.01s0,.06.01.07c-.03,0-.03.03-.06.04,0-.06-.03,0-.04-.04.04,0,.04-.06.08-.07Zm-3.31-.08s.02.01.04.01c0-.01,0-.01,0-.02.04-.01.03.01.03.04-.01,0-.03,0-.03.01.01,0,0,.02,0,.03h-.03c0-.05.01-.04,0-.07Zm.15,0s.04-.03.06-.05c0,.04-.03.08-.06.05Zm.09-.16s.02-.05.05-.05c0,.04-.02.03-.04.05,0,0,.02,0,.02.01-.01,0-.02,0-.03-.01Zm.16-.08s-.03.04-.07.04c0-.03.05-.07.07-.04Zm0,.02s.01,0,.01-.02c.02,0,.04,0,.04.02-.02,0-.02.02-.03.02,0-.01-.02,0-.02-.02Zm.13-.11c0,.05-.04.08-.08.09,0-.05.06-.06.08-.09Zm-.03-.07s-.02.07-.05.09c0-.05.01-.09.05-.09Zm.2-.06s.02.02.04.01c0,.04-.02.07-.07.07.03-.03.04-.07.03-.08Zm.26-.38s.02-.01.04,0c0,.03-.05.04-.05.02.02,0,0-.02.01-.02Zm2.26-2.2s.03-.03.06-.02c0,.04-.02.07-.04.09h-.03s.02-.03,0-.07Zm.21-.14s-.04.07-.07.02c.02,0,.05-.05.07-.02Zm3.58-.53c-.02.09.06-.04.06.06-.04,0-.04-.01-.06,0,0-.02-.03-.06,0-.07Zm0,.11s-.03,0-.03.01c0,.02.05.04.02.06-.02,0-.01-.03-.04-.03.03-.03-.02-.07,0-.1.02.01.05.02.05.06Zm-3.08-.14s.03-.04.05-.05c.02.02-.01.03,0,.07-.03,0-.02-.02-.04-.02Zm3.16-.06s.04.03.06.04c-.02,0-.01.05-.05.04,0-.04,0-.04-.01-.08Zm-3.03-.04s0,.04-.04.05c-.02,0,.01-.09.04-.05Zm3.05.03s.01-.03.03-.03c0,.02,0,.03,0,.04,0-.01-.02-.01-.03-.01Zm-1.54-1.7s-.03.05-.06.06c0-.04.03-.09.06-.06Zm.08-.09s-.05.06-.09.07c0-.05.04-.07.09-.07Zm.02-.06v.04s-.03,0-.03,0c0-.03.02-.03.03-.04Zm2.56-.86s.04.03.04.06c-.01.04-.05.07-.07.13-.01,0-.03,0-.03-.01,0-.05.04-.13.07-.19Zm.15-.14s.03,0,.04.02c-.03.04-.05.09-.09.12.01-.05.04-.09.05-.15Zm-1.78-.05s0,.08-.04.09c0-.05.02-.07.04-.09Zm1.9-.16c-.02.07-.05.12-.04.19h-.04s0-.15.08-.19Zm-1.66-.37s0-.03.01-.04c.05,0,.03.07.09.05-.02.02-.02.07-.06.06.04-.03.01-.08-.05-.07Zm2.09,0s.02.03.04.04c-.02,0-.02.03-.05.02,0-.02.02-.03.02-.06Zm-.61-.21s0-.06,0-.07c.03-.01.02.02.04.02,0,0,0-.01.02-.01-.02.03-.05.05,0,.07-.01.01-.04,0-.05-.01Zm-.68-.29s-.01.04-.04.03c-.01-.03.03-.06.04-.03Zm.16-.14s-.03.08-.07.09c.03-.03.03-.08.07-.09Zm.12-.09s-.01.05-.05.04c0-.03.02-.04.05-.04Zm-.11-.09s.04,0,.02-.02c.04,0,.01.06-.01.05,0-.01,0-.02,0-.03Zm1.18-.74s0,.06-.02.07c-.01-.01-.01-.07.02-.07Z"/>
          <path class="cls-5" d="m15.04,43.84s0,.01,0,.02c.04-.05.03.02.05,0,0-.04,0-.05-.02-.05,0,0,0,.02-.01.03,0,0-.01.01-.01,0Z"/>
          <path class="cls-5" d="m10.02,42.12s.05.03.06.05c-.01-.02-.02-.05-.06-.05Z"/>
          <path class="cls-5" d="m11.08,43.02s-.03,0-.04,0c0,.01.03.01.04.01,0,0-.01.02-.01.03.03,0,.01-.03.01-.05Z"/>
          <path class="cls-5" d="m11.07,41.47s.03.04,0,.06c.02,0,.03-.02.04-.03,0-.04-.03,0-.04-.03Z"/>
          <path class="cls-5" d="m11.09,42.13s-.03,0-.03.03c.01-.01.03,0,.04.01.02,0-.01-.03-.01-.04Z"/>
          <path class="cls-5" d="m11.16,41.95s.02,0,.02-.03c-.02,0-.04,0-.05,0,0,.02.03.01.03.03.01,0,0,0,0-.01Z"/>
          <path class="cls-5" d="m11.17,43.43s.03,0,.04,0c.03,0-.01.02,0,.04.06,0,.08.04.09.08.02,0,.03-.01.04-.02-.04,0-.09-.06-.11-.11-.04,0-.04-.01-.06,0Z"/>
          <path class="cls-5" d="m11.23,41.78c.07.06.1.11.2.15,0-.02-.02-.03,0-.03-.01-.03-.02,0-.05-.03.03-.02-.07-.09-.03-.09,0-.03-.08-.02-.11-.01Z"/>
          <path class="cls-5" d="m11.27,43.89s.06.1.1.12c-.04-.04-.07-.08-.1-.12Z"/>
          <path class="cls-5" d="m11.41,40.23s-.03-.01-.06,0c.02.05.04.03.06.04.02,0,0-.01,0-.03Z"/>
          <path class="cls-5" d="m11.37,41.92s.03.05.07.05c0-.04-.05-.03-.07-.05Z"/>
          <path class="cls-5" d="m11.48,43.56s-.01.02-.03.02c0,.02.03.02.04.03.03,0-.03-.02,0-.05Z"/>
          <path class="cls-5" d="m11.67,41.06s0-.01.01-.02c.03,0,.02.02.05.01-.01-.03-.02-.06-.07-.06,0,.03.03.03,0,.06Z"/>
          <path class="cls-5" d="m11.94,41.96s.01.04.04.07c.04,0,.03-.01.06-.02-.04-.01-.08-.06-.1-.05Z"/>
          <path class="cls-5" d="m11.98,44.27s.04.02.05,0c0-.03-.04-.01-.03-.04-.02.02-.06,0-.06.06.02,0,.04.01.05.04.02,0-.01-.03-.01-.04Z"/>
          <path class="cls-5" d="m12.05,44.39s.07.03.06.09c.04,0,0-.03.02-.03-.03-.02-.05-.05-.08-.06Z"/>
          <path class="cls-5" d="m12.19,44.49s.01-.02.01-.04c-.04-.02-.07-.06-.08-.1-.04.05.05.07.03.13.04,0,.04.03.04.07.04.03.05.01.09.03,0-.02-.02-.03-.02-.04-.02,0-.02.02-.03.02,0,0-.01-.01-.02-.01,0-.02.03,0,.02-.04-.02-.01-.03-.01-.04,0Z"/>
          <path class="cls-5" d="m12.75,41.1s0,0,0,.01c0,.01,0,.03-.01.03,0,.01.03.01.04.01,0-.02-.02-.04-.03-.05Z"/>
          <path class="cls-5" d="m13.11,41.78s.03.11.08.11c0-.01-.05-.03-.02-.04,0-.03-.07-.02-.06-.07Z"/>
          <path class="cls-5" d="m13.29,42.14s-.02.08.04.09c.04-.04-.05-.07,0-.1-.03-.02,0,.03-.04.02Z"/>
          <path class="cls-5" d="m13.53,43.95s.01.03.01.04c.02,0,.03-.02.03,0,0,0,0,0,.01,0v-.02s-.06,0-.03,0c0-.02-.02,0-.02-.01Z"/>
          <path class="cls-5" d="m13.83,42.82s.03.06.04.09c-.04.02-.02.09-.01.11.03-.03.04-.07.06-.11-.06.04-.02-.04-.06-.08-.02.01-.03,0-.03-.01Z"/>
          <path class="cls-5" d="m13.9,43.09s.05.07.06.11c.03,0-.03-.05.01-.05-.02,0-.07-.02-.07-.06Z"/>
          <path class="cls-5" d="m13.93,42.96s-.02.02,0,.02c0,.02,0,.03-.02.03,0,.01.02.02.02.03,0-.02.03-.06.03,0,.01,0,0-.03.01-.04-.03,0-.04-.02-.04-.05Z"/>
          <path class="cls-5" d="m14.17,43.27s-.02-.02-.02-.03c-.03-.01-.02.03-.05.02.02.02.03,0,.07.02Z"/>
          <path class="cls-5" d="m14.62,43.31s-.01,0-.04,0c0,.03-.04,0-.02.05h.03s.01-.04.03,0c.03,0-.01-.02,0-.04Z"/>
          <path class="cls-5" d="m14.64,44.06s-.01.01,0,0c0,.01-.02.02-.04.02,0,.02.05,0,.05-.03,0,0-.01,0-.01,0Z"/>
          <path class="cls-5" d="m14.58,45.3s0,0,0,0c.02,0,.02.07.05.04,0-.06-.03-.05-.05-.07,0,0,0,.03-.01.03Z"/>
          <path class="cls-5" d="m15.04,43.71s.01-.03,0-.02c-.02.04-.01.03-.03.06.03-.04.02,0,.03-.02,0,0,.01-.05-.01-.02Z"/>
          <path class="cls-5" d="m15.02,43.76s.02-.01.01.02c.04-.07,0,.04.03,0,0-.01,0-.03.01-.04,0,0-.03.03,0-.02-.02.02-.01,0-.02-.02,0,0-.01.02-.02.03,0,0,0-.02-.02,0Z"/>
          <path class="cls-5" d="m15.11,43.62c-.04.06-.03.08,0,.06,0-.01-.03,0,0-.06Z"/>
          <path class="cls-5" d="m15.1,43.76s0,.02,0,.03c0-.03,0-.03,0-.03Z"/>
          <path class="cls-5" d="m15.14,43.86s.02.07.03.07c0-.06,0,0,0-.07,0,.07,0-.02-.01.02,0-.03,0-.06,0-.07,0,.05,0,.06-.01.04Z"/>
          <path class="cls-5" d="m15.15,43.77s0,.02,0,.03c0-.03,0-.02,0-.05,0,.03,0,.04,0,.02Z"/>
          <path class="cls-5" d="m15.17,43.93s.01.06.02.06c0-.13-.01-.07-.02-.06Z"/>
          <path class="cls-5" d="m15.3,43.98s0,0,.01-.02v-.02s-.02,0-.01.04Z"/>
          <path class="cls-5" d="m15.34,43.82v.05s0-.05.02-.03c0-.02,0,0-.02-.02Z"/>
          <path class="cls-5" d="m15.43,43.79c.04.05-.01-.03.04.02,0,0-.01-.01-.02-.02-.03-.02-.01,0-.02,0Z"/>
          <path class="cls-5" d="m15.85,43.39s0,.02.01,0c.02,0,.02.03.03.04.02-.02.02-.06.06-.05-.02-.07.04-.07.06-.1.02-.03-.03,0-.02-.04-.02.04-.07.05-.08.1-.02,0-.02-.01-.04-.01.02.02,0,.05-.02.06Z"/>
          <path class="cls-5" d="m16.79,42.56c.05,0,.03-.08.09-.08,0-.01-.03,0-.04-.01,0,.05-.05.04-.05.09Z"/>
          <path class="cls-5" d="m17.35,41.99s.09-.04.08-.06c-.03.02-.04.05-.08.06Z"/>
          <path class="cls-5" d="m18.01,41.57s-.02-.03-.03-.05c-.02,0-.03.03-.04.05.03,0,.02-.02.03-.03.02,0-.03.04.03.03Z"/>
          <path class="cls-5" d="m20.04,39.44s.05-.03.08-.03c0,0,0,0,0-.01h-.02s-.03.03-.05.04Z"/>
          <path class="cls-5" d="m23.71,39.43s.06-.06.1-.08c-.02-.04.04-.07.07-.09,0,0,0-.01,0-.02,0,0,0,0,0-.01-.04.08-.11.13-.15.21Z"/>
          <path class="cls-5" d="m23.04,36.12s-.03-.02-.02-.06c0,0-.01.01-.02.01v.02s0,.05.04.03Z"/>
          <path class="cls-5" d="m23.32,35.91c.06,0-.04-.04,0-.05,0-.03-.04,0-.03.03.02,0,.03,0,.03.02Z"/>
        </g>
      </g>
    </g>
  </g>
</svg>