<?xml version="1.0" encoding="UTF-8"?>
<svg id="Layer_2" data-name="Layer 2" xmlns="http://www.w3.org/2000/svg" width="210.03" height="153.86" xmlns:xlink="http://www.w3.org/1999/xlink" viewBox="0 0 210.03 153.86">
  <defs>
    <style>
      .cls-1 {
        fill: #f56243;
      }

      .cls-1, .cls-2, .cls-3, .cls-4, .cls-5, .cls-6, .cls-7, .cls-8, .cls-9, .cls-10, .cls-11, .cls-12, .cls-13 {
        stroke-width: 0px;
      }

      .cls-2 {
        fill: #49b2a4;
      }

      .cls-3 {
        fill: #ff9f89;
      }

      .cls-4 {
        fill: #9cd9ef;
      }

      .cls-5 {
        fill: none;
      }

      .cls-6 {
        fill: #ffcfbf;
      }

      .cls-7 {
        fill: #384955;
      }

      .cls-8 {
        fill: #ffd1c3;
      }

      .cls-9 {
        fill: #ff8f65;
      }

      .cls-10 {
        fill: #fdbaa0;
      }

      .cls-14 {
        clip-path: url(#clippath);
      }

      .cls-11 {
        fill: #e79780;
      }

      .cls-12 {
        fill: #a9e0e5;
      }

      .cls-13 {
        fill: #ff7b56;
      }
    </style>
    <clipPath id="clippath">
      <path class="cls-5" d="m6.21,104.74c4.28,47.69,46.21,50.46,89.75,34.32,15.64-5.8,37.8-6.17,61.49,3.43,21.67,8.79,55.68-.86,52.35-20.59-5.05-29.99-25.01-21.66-11.61-51.35,9.77-21.65,4.54-52.42-25.19-45.67-22.3,5.07-31.83-4.89-35.2-10.18-2.34-3.67-5.43-6.87-9.17-9.3-28.22-18.32-43.47,16.63-59.05,8.06-29.33-16.14-58.83.3-43.82,26.64C38.27,62.05,3.76,77.44,6.21,104.74Z"/>
    </clipPath>
  </defs>
  <g id="Content">
    <g>
      <g class="cls-14">
        <path class="cls-12" d="m6.21,104.74c4.28,47.69,46.21,50.46,89.75,34.32,15.64-5.8,37.8-6.17,61.49,3.43,21.67,8.79,55.68-.86,52.35-20.59-5.05-29.99-25.01-21.66-11.61-51.35,9.77-21.65,4.54-52.42-25.19-45.67-22.3,5.07-31.83-4.89-35.2-10.18-2.34-3.67-5.43-6.87-9.17-9.3-28.22-18.32-43.47,16.63-59.05,8.06-29.33-16.14-58.83.3-43.82,26.64C38.27,62.05,3.76,77.44,6.21,104.74Z"/>
        <g>
          <path class="cls-10" d="m42.25,91.28s-4.32-3.96-2.53-10.86c1.79-6.89,6.88-11.46,11.27-13.61,7.21-3.53,13.41-.16,11.63,2.45-.99,1.45.4,6.16,1.51,6.04,5.21-.53-9.74,24.91-21.87,15.98Z"/>
          <path class="cls-10" d="m22.01,120.48l8.34,1.75,24.91,2.26c1.11-3.21,2.29-6.57,3.63-9.65,1.48-3.41,4.15-8.94,7.65-10.27,3.15-1.19,4.7-2.32,4.78-2.31,3.46-2.48,6.7-7.2,8.76-10.91,2.35-4.13,4.75-9.48,6.02-13.02-3.22-.07-38.8-.8-43.08-.89-.73,5.91-14.46,30.02-21.01,43.05Z"/>
          <path class="cls-11" d="m65.78,104.91c-3.01.69-6.23.21-8.89-1.35-.2-.12-.04-.44.17-.32,2.57,1.51,5.7,2,8.61,1.33.23-.05.34.29.11.34h0Z"/>
          <path class="cls-8" d="m31.65,102.13c3.15.66,4.04-3.58,6.41-6.56,2.21-2.79.93-5.8.42-6.76-1.97,4.04-4.38,8.68-6.83,13.32Z"/>
          <path class="cls-2" d="m60.4,138.18c-.81-7.54-.35-13.79-.31-13.96h0c.46-2.34,1.08-4.96,1.9-7.44.1-.3.2-.6.31-.9,1.34-3.75.9-5.1-1.17-5.57-.13-.03-.26-.05-.4-.08-1.1-.18-2.59-.17-4.44-.15-1.31.01-2.81.03-4.48,0-5.8-.13-11.36-6.71-15.85-11.17h0c-.6-.6-1.18-1.16-1.74-1.66-.81-.73-1.58-1.33-2.29-1.74-.97-.56-1.84-.79-2.61-.52-.92.32-1.58.84-2.09,1.53-.1.14-.2.28-.29.43h0c-.81,1.32-1.21,3.1-1.78,5.05-.06.21-.13.43-.19.65-.65,2.14-1.91,4.19-3.45,6.58-1.8,2.79-3.99,6.33-6.22,10.02-3.83,6.33-12.93,19.21-15.28,23.44l59.06,11.19c.12-1.43,1.54-13.83,1.35-15.68Z"/>
          <path class="cls-2" d="m38.7,98.14c.57.54,1.15,1.09,1.72,1.63.36.34-.16.92-.52.58-.57-.54-1.15-1.09-1.72-1.63-.36-.34.16-.92.52-.58h0Z"/>
          <g>
            <g>
              <path class="cls-1" d="m83.67,99.35s-31.41-35.89-14.06-50.42c17.34-14.52,6.33-1.13,6.33-1.13l-5.39,7.62s-3.78,6.72,5.59,22.16c9.37,15.44,13.4,16.22,13.4,16.22l-5.86,5.55Z"/>
              <ellipse class="cls-9" cx="99.46" cy="106.73" rx="18.05" ry="17.33" transform="translate(-46.14 97.58) rotate(-43.42)"/>
              <ellipse class="cls-13" cx="101" cy="105.27" rx="15.93" ry="16.21" transform="translate(-44.72 98.24) rotate(-43.42)"/>
              <g>
                <path class="cls-6" d="m118.71,83.28s-.33-10.38,4.29-10.75c4.62-.36,9.11,7.88,6.69,11.46-2.42,3.59-9.22,1.14-10.1.21l-.88-.93Z"/>
                <path class="cls-3" d="m126.74,86c-1.1-.23-.37.2-.11-.28.11-.21.52-.49.67-.67.7-.83,1.18-1.9,1.37-2.98.34-1.87-.21-3.66-.93-5.41-.43-1.03-.77-2.17-1.84-2.79-2.11-1.24-3.83.39-4.17,2.29-.27,1.5-2.56.77-2.3-.72.56-3.13,3.53-5.15,6.71-4.03,3.06,1.08,4.49,5.19,4.91,8.09.35,2.43-.21,4.87-1.65,6.79-.73.97-1.89,2.28-3.27,1.99-1.51-.32-.88-2.59.62-2.28h0Z"/>
              </g>
              <ellipse class="cls-9" cx="135.12" cy="74.4" rx="18.05" ry="19.28" transform="translate(-14.16 113.25) rotate(-43.42)"/>
              <ellipse class="cls-13" cx="137.67" cy="71.99" rx="18.05" ry="19.28" transform="translate(-11.8 114.34) rotate(-43.42)"/>
              <path class="cls-7" d="m139.36,76.58c-1.11,10.54-5.6,20.54-12.74,28.37-.63.69.37,1.76,1.01,1.06,7.42-8.13,12.05-18.45,13.2-29.39.1-.94-1.37-.97-1.46-.04h0Z"/>
              <ellipse class="cls-9" cx="137.5" cy="72.74" rx="7.87" ry="8.4" transform="translate(-12.36 114.43) rotate(-43.42)"/>
              <ellipse class="cls-1" cx="137.53" cy="71.84" rx="7.87" ry="8.4" transform="translate(-11.74 114.19) rotate(-43.42)"/>
              <path class="cls-9" d="m140.15,68.22c-5.96-6.47-12.45-12.47-19.61-17.6-10-7.17-22.11-12.87-34.7-11.23-7.7,1-12.98,6.36-18.33,11.86-3.04,3.13-3.4,7.43-2.95,7.91.36.38,4.11-2.14,5.98-3.74,9.42-8.05,16.59-7.44,17.66-7.51.37-.02.75-.05,1.12-.06,1.38-.04,2.76.01,4.13.16.33.04.67.09,1,.12.75.08-1.02-.19.01,0,.71.13,1.41.27,2.11.43,1.37.32,2.73.72,4.07,1.19.61.21,1.22.44,1.83.67.32.13.65.26.97.39.16.07.32.14.48.2.85.35-.69-.33-.2-.09,1.3.63,2.61,1.23,3.88,1.92,2.5,1.35,4.9,2.85,7.23,4.47,1.15.8,2.29,1.63,3.4,2.48.5.38.99.76,1.48,1.15.13.1,1.08.86.4.32-.64-.52.32.26.48.4,1.88,1.55,3.71,3.17,5.49,4.83,2.66,2.49,5.21,5.09,7.68,7.77,1.56,1.69,4.57,1.86,6.21.17,1.67-1.73,1.84-4.4.17-6.21h0Z"/>
              <path class="cls-9" d="m133.25,58.57c2.04-.8,4.26-.7,6.27.16.86.37,1.27-1.04.41-1.41-2.37-1.02-4.97-.98-7.36-.05-.88.34-.18,1.63.69,1.29h0Z"/>
              <path class="cls-9" d="m144.32,62.29c2.74,1.82,5.05,4.36,5.96,7.59.92,3.28-.04,6.17-1.45,9.13-.4.84.85,1.61,1.25.76,1.57-3.31,2.64-6.56,1.62-10.23-1-3.62-3.55-6.47-6.62-8.51-.78-.52-1.54.73-.76,1.25h0Z"/>
              <path class="cls-9" d="m123.52,76.47c1.1,3.16,3.25,5.71,6.26,7.21.84.42,1.6-.83.76-1.25-2.64-1.32-4.62-3.49-5.59-6.29-.31-.88-1.73-.56-1.43.33h0Z"/>
            </g>
            <path class="cls-9" d="m128.73,101.71c-.23-.13-.49-.25-.74-.18-.19.05-.34.18-.48.32-1.53,1.44-2.89,3.06-4.05,4.81,0,0-.37.44-.24,1.19.06.32.29.59.51.83.57.63,1.42,1.17,2.24.92.49-.15.85-.54,1.2-.91.41-.45.83-.91,1.24-1.36.88-.97,1.78-1.96,2.31-3.16.06-.14.12-.29.1-.44-.02-.12-.09-.23-.17-.33-.5-.69-1.16-1.27-1.9-1.69Z"/>
          </g>
          <path class="cls-11" d="m39.84,86.52c1.08,2.85,2.69,5.51,4.72,7.79.57.64,1.17,1.25,1.8,1.83.17.16-.07.43-.24.27-2.28-2.09-4.18-4.6-5.57-7.37-.39-.78-.74-1.58-1.05-2.39-.08-.22.26-.33.34-.11h0Z"/>
          <path class="cls-10" d="m41.68,75.58c2.19-4.65,9.14-14.82,12.96-17.69,7.15-5.37,10.44-13.05,11.86-13.06,1.42-.01,4.14,3.77,1.45,10.39-2.66,6.53-8.09,9.95-8.44,11.4-.34,1.46-1.65,8.03-1.65,8.03,0,0-17.87,4.54-16.17.93Z"/>
          <path class="cls-10" d="m62.07,73.27c.43-.69-.17-1.21,1.41-1.71,5.22-2.43,10.99-3.4,16.71-4.15,2.38-.31,4.9-.57,7.07.44,2.17,1.01,3.71,3.78,2.55,5.88-.86,1.55-2.74,2.14-4.46,2.58-6.38,1.64-11.5,1.83-18.08,1.99-1.7.04-3.41-.39-4.61-1.6-1.2-1.21-1.49-1.98-.59-3.42Z"/>
          <path class="cls-10" d="m82.23,74.66c2.09-1.36,5.09-.59,7.35.46,2.26,1.05,3.85,3.93,2.65,6.1-.89,1.61-2.85,2.23-4.63,2.68-6.63,1.7-10.95.54-17.79.7-1.77.04-4.57-.23-5.13-1.41-1.53-3.26,3.13-4.92,10.88-5.33,2.69-.14,5.24-2.28,6.67-3.21Z"/>
          <path class="cls-10" d="m67.42,84.81c.45-.42,5.69-1.8,10.32-1.14,1.93.27,3.96.62,5.52,1.83,1.55,1.21,2.32,3.58,1.06,4.89-.93.97-2.52,1.01-3.94.97-5.3-.14-4.77,0-10-1.29-1.35-.33-3.33-1.2-4.09-2.34-.75-1.15.18-2.04,1.12-2.91Z"/>
          <path class="cls-10" d="m60.83,65.59c4.63-2.15,8.15-3.39,13.22-4.06,2.11-.28,4.35-.51,6.27.39,1.93.9,3.29,3.35,2.26,5.21-.76,1.37-2.43,1.9-3.95,2.29-5.66,1.45-10.77,3.73-16.58,3.16-6.48-.63-2.63-6.54-1.22-6.99Z"/>
          <path class="cls-11" d="m82.05,67.56c-3.68.51-7.35,1.17-10.97,2-1.76.4-3.54.8-5.27,1.33-1.62.49-3.23,1.36-3.75,3.09-.09.3-.55.13-.46-.17.45-1.52,1.74-2.52,3.16-3.08,1.75-.68,3.66-1.05,5.48-1.48,3.87-.91,7.78-1.63,11.72-2.17.31-.04.4.44.09.48h0Z"/>
          <path class="cls-11" d="m72.53,62.01c-2.03.53-4.04,1.11-6.04,1.76-1.76.57-3.65,1.08-5.28,1.97-1.49.8-2.86,2.43-2.52,4.24.34,1.84,2.23,2.24,3.81,2.41.3.03.26.5-.04.47-1.24-.13-2.56-.34-3.45-1.28-.95-1-1.01-2.44-.49-3.66.57-1.34,1.71-2.25,3-2.85,1.58-.73,3.3-1.24,4.96-1.77,1.97-.64,3.97-1.21,5.97-1.74.29-.08.37.39.08.46h0Z"/>
          <path class="cls-11" d="m88.43,75.11c-1.65-.49-3.45.38-5.01.85-1.32.4-2.64.76-3.98,1.06-2.65.61-5.34,1.03-8.01,1.51-.3.05-.39-.41-.08-.47,2.76-.5,5.54-.93,8.28-1.58,1.42-.33,2.82-.73,4.22-1.15,1.53-.47,3.14-1.16,4.76-.67.29.09.13.53-.17.45h0Z"/>
          <path class="cls-11" d="m83.18,85.8c-.57-.42-1.29-.48-1.98-.58-.49-.07-.99-.13-1.48-.19-1.27-.15-2.54-.28-3.81-.37-1.36-.1-2.72-.18-4.08-.2-1.11-.01-2.25,0-3.34.2-.45.09-.85.21-1.21.51-.66.54-1.32,1.63-.79,2.46.15.23-.24.41-.39.18-.72-1.15.35-2.82,1.44-3.31.88-.4,1.97-.41,2.92-.45,2.93-.1,5.89.17,8.79.5.64.07,1.27.15,1.91.24.79.11,1.61.18,2.27.67.22.16-.03.51-.25.35h0Z"/>
          <path class="cls-11" d="m80.59,91.67c-2.1-.02-4.21-.27-6.27-.61-2.16-.35-4.45-.78-6.43-1.76-.69-.34-1.43-.78-1.79-1.49-.12-.25.27-.43.39-.18.3.62.99,1,1.59,1.29.89.43,1.84.73,2.79.98,2.19.59,4.46.93,6.72,1.15,1.01.1,2.03.18,3.05.18.28,0,.24.43-.04.43h0Z"/>
          <path class="cls-11" d="m72.56,78.36c-1.32.26-2.66.3-4,.25-1.17-.05-2.34-.14-3.47-.44-1.94-.51-4.32-2.04-3.49-4.37.11-.3.56-.12.46.17-.84,2.35,2.13,3.58,3.94,3.9,2.1.37,4.39.42,6.48,0,.31-.06.39.42.09.48h0Z"/>
          <path class="cls-11" d="m58.37,74.47c-.17,1.77-.07,3.54.32,5.27.36,1.61.77,3.12.67,4.78-.18,2.93-.96,6.03-2.34,8.63-.75,1.41-1.72,2.68-2.94,3.72-.25.21-.57-.18-.32-.39,2.21-1.88,3.5-4.54,4.27-7.29.4-1.44.69-2.95.82-4.44.14-1.69-.25-3.21-.63-4.83-.41-1.8-.52-3.66-.35-5.49.03-.32.53-.28.5.05h0Z"/>
          <path class="cls-11" d="m65.99,80.55c.61-.41,1.35-.57,2.07-.65.63-.07,1.59-.14,2.12.29.75.61.85,2.78-.03,3.32-.46.29-1.23.26-1.75.26-.78,0-1.66-.1-2.3-.58-.87-.65-.96-1.92-.11-2.63.26-.22.61.19.34.41-.84.7-.27,1.73.58,2.05.63.23,1.35.25,2.01.21.21-.01.41-.03.62-.07.13-.02.28-.04.38-.13.26-.23.28-.8.28-1.12,0-.33-.04-.86-.24-1.14-.27-.37-.9-.36-1.32-.36-.75,0-1.68.14-2.31.56-.28.19-.63-.22-.34-.41Z"/>
          <path class="cls-11" d="m63.91,72.86c.62-.51,1.44-.76,2.22-.92.68-.14,1.64-.28,2.3.03.6.29.83,1.15.91,1.75.08.58.09,1.47-.35,1.92-.43.45-1.38.52-1.96.57-.87.09-1.83.08-2.61-.34-1.14-.61-1.43-2.08-.5-3.02.27-.27.66.19.39.46-.91.92,0,2.01.97,2.24.77.18,1.61.1,2.38-.04.2-.04.41-.07.61-.14.69-.24.56-1.39.41-1.95-.1-.38-.24-.86-.66-.97-.41-.11-.9-.06-1.32,0-.81.11-1.74.33-2.39.87-.3.25-.68-.21-.39-.46Z"/>
          <path class="cls-11" d="m60.07,67.8c.54-.56,1.32-.88,2.06-1.12.66-.22,1.57-.46,2.26-.24,1.11.34,1.62,2.61,1.06,3.52-.33.55-1.27.72-1.85.85-.86.2-1.86.31-2.7-.02-1.18-.46-1.71-1.9-.88-2.93.24-.3.73.05.49.35-.84,1.05.18,2.05,1.24,2.16.79.08,1.61-.09,2.36-.32.21-.06.45-.13.64-.24.59-.35.24-1.62,0-2.12-.24-.52-.51-.75-1.12-.72-.34.02-.68.08-1.01.17-.77.2-1.62.54-2.18,1.11-.27.28-.65-.19-.39-.46Z"/>
          <path class="cls-11" d="m68.13,85.62c.71-.24,1.53-.16,2.25.03.65.18,1.16.43,1.21,1.16.03.58-.14,1.37-.59,1.78-.26.24-.61.21-.93.16-.75-.11-1.58-.32-2.16-.83-.75-.66-.72-1.84.23-2.3.29-.14.51.31.21.46-.79.38-.49,1.24.09,1.62.42.28.93.43,1.43.52.14.03.3.07.45.07.48,0,.67-.53.75-.94.05-.27.09-.6-.08-.83-.17-.22-.51-.31-.77-.38-.57-.15-1.29-.24-1.86-.05-.3.1-.52-.35-.21-.46Z"/>
          <path class="cls-11" d="m65.41,46.18c.49-.04.89.32.89.82,0,.71-.67,1.37-1.08,1.89-.64.82-1.71,2.73-2.96,1.66-.23-.2.04-.59.28-.39.84.72,1.55-.61,2-1.17.26-.32.51-.64.76-.97.11-.14.22-.29.31-.44.14-.22.44-.97-.11-.93-.3.02-.39-.45-.08-.47h0Z"/>
        </g>
      </g>
      <g>
        <g>
          <path class="cls-4" d="m145.54,109.21c.9-9.16,9.59-15.63,18.79-16.1,11.39-.58,16.61,5.8,16.61,15.01s-5.34,15.06-16.38,16.22c-9.16.97-20.2-3.13-19.02-15.14Z"/>
          <path class="cls-4" d="m156.51,120.44c.17,2.73-.73,5.51-2.46,7.63-.36.44-.81.88-1.37.94,4.62-.07,9.03-3.27,10.53-7.64l-6.69-.93Z"/>
        </g>
        <g>
          <path class="cls-9" d="m191.64,115.93c-.68-6.98-7.3-11.9-14.31-12.26-8.67-.44-12.65,4.42-12.65,11.43s4.07,11.47,12.47,12.36c6.97.74,15.38-2.38,14.49-11.53Z"/>
          <path class="cls-9" d="m183.29,124.48c-.13,2.08.56,4.2,1.88,5.81.27.34.61.67,1.05.72-3.52-.05-6.88-2.49-8.02-5.82l5.09-.71Z"/>
        </g>
      </g>
      <g>
        <path class="cls-4" d="m148.03,41.23c.21,1.5.31,3,.3,4.52,0,.84,1.3.84,1.3,0,0-1.63-.11-3.25-.34-4.86-.12-.83-1.38-.48-1.26.35h0Z"/>
        <path class="cls-4" d="m151.48,39.4c.07,2.73.15,5.45.22,8.18.02.84,1.33.84,1.3,0-.07-2.73-.15-5.45-.22-8.18-.02-.84-1.33-.84-1.3,0h0Z"/>
        <path class="cls-4" d="m155.19,36.61c-.06,4.7.09,9.41.45,14.1.06.83,1.37.84,1.3,0-.36-4.69-.51-9.39-.45-14.1.01-.84-1.29-.84-1.3,0h0Z"/>
        <path class="cls-4" d="m158.84,39.4v6.09c0,.84,1.3.84,1.3,0v-6.09c0-.84-1.3-.84-1.3,0h0Z"/>
        <path class="cls-4" d="m162.24,41.81c.22.43.33.93.27,1.41-.05.35.08.7.46.8.3.08.76-.1.8-.46.12-.86,0-1.65-.4-2.42-.39-.75-1.51-.09-1.13.66h0Z"/>
        <path class="cls-4" d="m165.57,38.36c.22,1.97.25,3.94.09,5.91-.07.84,1.24.83,1.3,0,.16-1.97.13-3.94-.09-5.91-.09-.83-1.4-.83-1.3,0h0Z"/>
        <path class="cls-4" d="m169.42,35.57c-.13,4.64.04,9.29.51,13.91.08.83,1.39.84,1.3,0-.46-4.62-.63-9.26-.51-13.91.02-.84-1.28-.84-1.3,0h0Z"/>
        <path class="cls-4" d="m172.94,39.4c-.07,1.11,0,2.21.2,3.3.15.83,1.4.48,1.26-.35-.17-.98-.22-1.96-.16-2.96.05-.84-1.25-.84-1.3,0h0Z"/>
        <path class="cls-4" d="m176.41,41.14c.06.35.12.69.18,1.04.06.34.49.56.8.46.36-.12.52-.44.46-.8-.06-.35-.12-.69-.18-1.04-.06-.34-.49-.56-.8-.46-.36.12-.52.44-.46.8h0Z"/>
        <path class="cls-4" d="m180.12,35.92c.25,4.82.5,9.63.76,14.45.04.84,1.35.84,1.3,0-.25-4.82-.5-9.63-.76-14.45-.04-.84-1.35-.84-1.3,0h0Z"/>
        <path class="cls-4" d="m183.89,40.27c.02,1.16.09,2.32.22,3.48.09.83,1.4.83,1.3,0-.13-1.16-.2-2.31-.22-3.48-.01-.84-1.32-.84-1.3,0h0Z"/>
        <path class="cls-4" d="m187.3,41.29c.2.32.32.69.27,1.07-.05.35.09.7.46.8.31.08.75-.1.8-.46.11-.73,0-1.44-.4-2.07-.45-.71-1.58-.05-1.13.66h0Z"/>
      </g>
    </g>
  </g>
</svg>