<?xml version="1.0" encoding="UTF-8"?>
<svg id="Layer_2" data-name="Layer 2" xmlns="http://www.w3.org/2000/svg" width="93.44" height="67.91" viewBox="0 0 93.44 67.91">
  <defs>
    <style>
      .cls-1 {
        fill: #8d789e;
        stroke-width: 0px;
      }
    </style>
  </defs>
  <g id="Content">
    <g>
      <g>
        <path class="cls-1" d="m14.37,39.57v25.24c0,.98-.85,1.75-1.82,1.63-7.07-.9-12.54-6.94-12.54-14.25s5.47-13.36,12.54-14.25c.97-.12,1.82.65,1.82,1.63Z"/>
        <path class="cls-1" d="m18.72,67.91h0c-1.25,0-2.26-1.01-2.26-2.26v-26.92c0-1.25,1.01-2.26,2.26-2.26h0c1.25,0,2.26,1.01,2.26,2.26v26.92c0,1.25-1.01,2.26-2.26,2.26Z"/>
      </g>
      <path class="cls-1" d="m83.75,37.03c0,.95-.04,1.88-.1,2.81h-3.54c.08-.93.12-1.87.12-2.81,0-2.93-.38-5.77-1.08-8.48h-3.14c-3.67-12.7-15.39-22-29.28-22s-25.61,9.29-29.28,22h-3.14c-.71,2.71-1.08,5.55-1.08,8.48,0,.95.04,1.89.12,2.81h-3.54c-.07-.93-.1-1.87-.1-2.81C9.69,16.58,26.27,0,46.72,0s37.03,16.58,37.03,37.03Z"/>
      <g>
        <path class="cls-1" d="m79.08,39.57v25.24c0,.98.85,1.75,1.82,1.63,7.07-.9,12.54-6.94,12.54-14.25s-5.47-13.36-12.54-14.25c-.97-.12-1.82.65-1.82,1.63Z"/>
        <path class="cls-1" d="m74.72,67.91h0c1.25,0,2.26-1.01,2.26-2.26v-26.92c0-1.25-1.01-2.26-2.26-2.26h0c-1.25,0-2.26,1.01-2.26,2.26v26.92c0,1.25,1.01,2.26,2.26,2.26Z"/>
      </g>
    </g>
  </g>
</svg>