<?xml version="1.0" encoding="UTF-8"?>
<svg id="Layer_2" data-name="Layer 2" xmlns="http://www.w3.org/2000/svg" width="37.42" height="37.39" viewBox="0 0 37.42 37.39">
  <defs>
    <style>
      .cls-1 {
        fill: #606060;
        stroke-width: 0px;
      }
    </style>
  </defs>
  <g id="Content">
    <path class="cls-1" d="m15.99,32.06V5.4H5.33c0,.89.03,1.72,0,2.54-.06,1.61-1.18,2.75-2.65,2.75-1.48,0-2.61-1.15-2.65-2.76-.04-1.71-.04-3.42,0-5.13C.06,1.11,1.11.02,2.77.02c10.64-.02,21.29-.02,31.93,0,1.62,0,2.64,1.07,2.68,2.69.05,1.75.04,3.51,0,5.26-.04,1.6-1.21,2.74-2.67,2.72-1.48-.03-2.57-1.18-2.62-2.79-.03-.79,0-1.58,0-2.47h-10.61v26.64c2.07,0,4.14,0,6.21,0,.54,0,1.09-.02,1.63,0,1.6.06,2.75,1.17,2.76,2.65,0,1.48-1.12,2.64-2.73,2.65-3.8.04-7.6.02-11.4.02-3.13,0-6.26,0-9.39,0-1.99,0-3.24-1.09-3.19-2.71.05-1.6,1.26-2.59,3.19-2.6,2.45,0,4.91,0,7.44,0Z"/>
  </g>
</svg>