<?xml version="1.0" encoding="UTF-8"?>
<svg id="Layer_2" data-name="Layer 2" xmlns="http://www.w3.org/2000/svg" width="31.14" height="42.39" viewBox="0 0 31.14 42.39">
  <defs>
    <style>
      .cls-1 {
        fill: #604177;
        stroke-width: 0px;
      }
    </style>
  </defs>
  <g id="Content">
    <g>
      <path class="cls-1" d="m3.64,11.71c0-2.61,2.12-4.74,4.74-4.74s4.74,2.12,4.74,4.74v3.82c1.32-.4,2.28-1.63,2.28-3.07V3.21c0-1.77-1.44-3.21-3.21-3.21h-7.6C2.81,0,1.37,1.44,1.37,3.21v9.24c0,1.45.96,2.67,2.28,3.07v-3.82Z"/>
      <g>
        <path class="cls-1" d="m27.93,0h-7.6c-1.77,0-3.21,1.44-3.21,3.21v9.24c0,1.77,1.44,3.21,3.21,3.21h7.6c1.77,0,3.21-1.44,3.21-3.21V3.21c0-1.77-1.44-3.21-3.21-3.21h0Z"/>
        <path class="cls-1" d="m22.04,19.97c-1.26,0-2.28,1.02-2.28,2.28v-1.16c0-1.26-1.02-2.28-2.28-2.28s-2.28,1.02-2.28,2.28v-.98c0-1.2-.92-2.18-2.09-2.27-.06,0-.12,0-.18,0-.92,0-1.71.54-2.07,1.33-.13.29-.21.61-.21.95v-8.4c0-1.26-1.02-2.28-2.28-2.28s-2.28,1.02-2.28,2.28v19.55h-.1s-1.4-6.02-1.4-6.02c-.29-1.22-1.51-1.99-2.74-1.7-1.29,0-2.1,1.02-1.81,2.28l1.63,6.96c.85,5.45,5.25,9.61,5.25,9.61h13.83c2.31-3.52,3.54-7.63,3.54-11.84v-8.31c0-1.26-1.02-2.28-2.28-2.28h0Z"/>
      </g>
    </g>
  </g>
</svg>