<?xml version="1.0" encoding="UTF-8"?>
<svg id="Layer_2" data-name="Layer 2" xmlns="http://www.w3.org/2000/svg" width="698.49" height="80.73" viewBox="0 0 698.49 80.73">
  <defs>
    <style>
      .cls-1 {
        fill: #7fc2d6;
      }

      .cls-1, .cls-2, .cls-3, .cls-4, .cls-5 {
        stroke-width: 0px;
      }

      .cls-2 {
        fill: #d8eff7;
      }

      .cls-3 {
        fill: #66b8d8;
      }

      .cls-4, .cls-5 {
        fill: #fff;
      }

      .cls-5 {
        opacity: .3;
      }
    </style>
  </defs>
  <g id="Content">
    <g>
      <path class="cls-1" d="m83.67,72.18c-3.83,0-6.95-3.12-6.95-6.95V15.53c0-3.84,3.12-6.97,6.95-6.97h599.32c1.86,0,3.6.72,4.92,2.04,1.31,1.31,2.04,3.06,2.04,4.92v49.71c0,3.83-3.12,6.95-6.95,6.95H83.67Z"/>
      <path class="cls-5" d="m684.53,15.51v24.86H82.12V15.53c0-.86.7-1.57,1.55-1.57h599.31c.43,0,.79.14,1.1.45s.45.67.45,1.1Z"/>
      <g>
        <g>
          <circle class="cls-2" cx="18.53" cy="40.37" r="17.18"/>
          <path class="cls-3" d="m18.53,24.54c8.73,0,15.83,7.1,15.83,15.83s-7.1,15.83-15.83,15.83-15.83-7.1-15.83-15.83,7.1-15.83,15.83-15.83m0-2.7C8.3,21.84,0,30.13,0,40.37s8.3,18.53,18.53,18.53,18.53-8.3,18.53-18.53-8.3-18.53-18.53-18.53h0Z"/>
        </g>
        <g>
          <path class="cls-4" d="m30.93,40.37c0,6.85-5.55,12.4-12.4,12.4s-12.4-5.55-12.4-12.4,5.55-12.4,12.4-12.4,12.4,5.55,12.4,12.4Z"/>
          <path class="cls-2" d="m28.92,40.38c0,.57-.04,1.13-.14,1.66-.79-4.96-5.07-8.74-10.25-8.74s-9.47,3.78-10.26,8.74c-.1-.53-.14-1.09-.14-1.66,0-5.74,4.66-10.4,10.4-10.4s10.38,4.66,10.38,10.4Z"/>
        </g>
      </g>
      <path class="cls-3" d="m682.98,80.73H83.67c-8.55,0-15.51-6.96-15.51-15.51,0-3.49-1.45-6.87-3.98-9.28l-13.65-12.99c-.7-.67-1.11-1.61-1.11-2.58,0-.97.4-1.91,1.11-2.58l13.65-12.99c2.53-2.41,3.98-5.79,3.98-9.28,0-8.57,6.96-15.53,15.51-15.53h599.32c8.55,0,15.51,6.96,15.51,15.51v49.71c0,8.55-6.96,15.51-15.51,15.51ZM83.67,2.7c-7.06,0-12.81,5.75-12.81,12.81,0,4.25-1.76,8.34-4.82,11.26l-13.65,12.99c-.17.16-.27.39-.27.62s.09.46.27.62l13.65,12.99c3.06,2.91,4.82,7.01,4.82,11.24,0,7.06,5.75,12.81,12.81,12.81h599.32c7.06,0,12.81-5.75,12.81-12.81V15.51c0-7.06-5.75-12.81-12.81-12.81H83.67Z"/>
    </g>
  </g>
</svg>