<?xml version="1.0" encoding="UTF-8"?>
<svg id="Layer_2" data-name="Layer 2" xmlns="http://www.w3.org/2000/svg" width="37.63" height="37.63" viewBox="0 0 37.63 37.63">
  <defs>
    <style>
      .cls-1 {
        fill: #fff;
        stroke-width: 0px;
      }
    </style>
  </defs>
  <g id="Content">
    <g>
      <path class="cls-1" d="m22.4,5.97c8.4,0,15.23,6.83,15.23,15.23,0,2.87-.8,5.64-2.31,8.06l2.27,7.19c.11.37-.02.76-.32.99-.17.12-.35.18-.54.18-.18,0-.36-.05-.5-.16l-5.29-3.64c-2.53,1.71-5.47,2.6-8.54,2.6-8.4,0-15.23-6.83-15.23-15.23s6.83-15.23,15.23-15.23h0Zm0,23.89c.5,0,.9-.41.9-.9s-.39-.9-.9-.9-.9.41-.9.9.41.9.9.9h0Zm-5.16-11.87c0,1.72.91,3.33,2.39,4.22l1.34.8c.33.2.54.56.54.96v1.42c0,.49.41.9.9.9s.9-.41.9-.9v-1.42c0-1.02-.54-1.97-1.41-2.48l-1.34-.81c-.93-.56-1.52-1.59-1.52-2.68v-.29c0-1.85,1.51-3.37,3.37-3.37s3.37,1.52,3.37,3.37c0,.5.41.9.9.9s.9-.39.9-.9c0-2.84-2.32-5.16-5.16-5.16s-5.16,2.32-5.16,5.16v.29Z"/>
      <path class="cls-1" d="m.36,31.48c.17.12.35.18.54.18.18,0,.36-.05.5-.16l5.29-3.64s.04.02.06.04c-.88-2.05-1.37-4.31-1.37-6.69,0-9.39,7.63-17.02,17.02-17.02,1.29,0,2.53.14,3.74.42C23.32,1.67,19.43,0,15.23,0,6.83,0,0,6.83,0,15.23,0,18.1.8,20.87,2.31,23.3L.04,30.49c-.11.37.02.76.32.99H.36Z"/>
    </g>
  </g>
</svg>