<?xml version="1.0" encoding="UTF-8"?>
<svg id="Layer_2" data-name="Layer 2" xmlns="http://www.w3.org/2000/svg" width="32.81" height="32.19" viewBox="0 0 32.81 32.19">
  <defs>
    <style>
      .cls-1 {
        fill: #fff;
        stroke-width: 0px;
      }
    </style>
  </defs>
  <g id="Content">
    <g>
      <path class="cls-1" d="m16.41,0c-3.79,0-7.28,1.34-10.04,3.55-.35.28-.79.2-1.01-.18l-.64-1.14c-.74-1.32-2.73-.99-2.99.5L.02,12.4c-.09.5.06,1.01.41,1.38.37.4.92.58,1.46.49l9.68-1.71c1.49-.26,1.83-2.26.5-2.99l-1.03-.57c-.39-.22-.43-.62-.06-.87,1.54-1.06,3.4-1.68,5.43-1.68,3.83,0,7.1,2.2,8.67,5.4.78,1.6,2.71,2.25,4.31,1.47,1.59-.79,2.25-2.72,1.47-4.31C28.23,3.66,22.72,0,16.41,0h0Z"/>
      <path class="cls-1" d="m16.41,32.19c3.79,0,7.28-1.34,10.04-3.55.35-.28.79-.2,1.01.18l.64,1.14c.74,1.32,2.73.99,2.99-.5l1.71-9.67c.09-.5-.06-1.01-.41-1.38-.37-.4-.92-.58-1.46-.49l-9.68,1.71c-1.49.26-1.83,2.26-.5,2.99l1.03.57c.39.22.43.62.06.87-1.54,1.06-3.4,1.68-5.43,1.68-3.83,0-7.1-2.2-8.67-5.4-.78-1.6-2.71-2.25-4.31-1.47-1.59.79-2.25,2.72-1.47,4.31,2.63,5.33,8.13,8.99,14.45,8.99h0Z"/>
    </g>
  </g>
</svg>