<?xml version="1.0" encoding="UTF-8"?>
<svg xmlns="http://www.w3.org/2000/svg" width="2123" height="1080" xmlns:xlink="http://www.w3.org/1999/xlink" viewBox="0 0 2123 1080">
  <defs>
    <style>
      .cls-1 {
        fill: #4b2a69;
      }

      .cls-2 {
        fill: url(#linear-gradient-2);
      }

      .cls-3 {
        fill: #e8e8e8;
      }

      .cls-3, .cls-4, .cls-5, .cls-6 {
        mix-blend-mode: multiply;
      }

      .cls-3, .cls-5, .cls-6 {
        opacity: .45;
      }

      .cls-7 {
        fill: #fff;
      }

      .cls-8 {
        fill: #3a3a4c;
      }

      .cls-9 {
        fill: #c6b19e;
      }

      .cls-10 {
        fill: #70c3e0;
      }

      .cls-11 {
        fill: #efd6bd;
      }

      .cls-12 {
        fill: #558596;
      }

      .cls-13 {
        fill: #857265;
      }

      .cls-14 {
        fill: url(#linear-gradient-6);
      }

      .cls-15 {
        isolation: isolate;
      }

      .cls-16 {
        opacity: .2;
      }

      .cls-17 {
        fill: #ffebd5;
      }

      .cls-4 {
        opacity: .15;
      }

      .cls-18 {
        fill: #f5f6f6;
      }

      .cls-5 {
        fill: #edb16e;
      }

      .cls-19 {
        fill: url(#linear-gradient-10);
      }

      .cls-20 {
        fill: #db863f;
      }

      .cls-21 {
        fill: #193c82;
      }

      .cls-22 {
        fill: #231f20;
        opacity: .25;
      }

      .cls-23 {
        fill: url(#linear-gradient-5);
      }

      .cls-24 {
        clip-path: url(#clippath);
      }

      .cls-25 {
        fill: #dceefa;
      }

      .cls-26 {
        fill: #c5a892;
      }

      .cls-27 {
        fill: none;
      }

      .cls-28 {
        fill: #f3e1ce;
      }

      .cls-29 {
        fill: url(#linear-gradient-7);
      }

      .cls-30 {
        fill: url(#linear-gradient-9);
      }

      .cls-31 {
        fill: url(#linear-gradient-3);
      }

      .cls-32 {
        fill: #a2a6a8;
      }

      .cls-33 {
        fill: url(#linear-gradient);
      }

      .cls-34 {
        fill: url(#linear-gradient-4);
      }

      .cls-35 {
        fill: #f2bc79;
      }

      .cls-36 {
        fill: #010101;
      }

      .cls-37 {
        fill: url(#linear-gradient-8);
      }

      .cls-38 {
        fill: #bfc4c7;
      }
    </style>
    <clipPath id="clippath">
      <path class="cls-27" d="m791.84,1007.7c-13.44-56.1-47.3-79.25-86.08-107.36-73.22-53.07-176.88-77.89-249.52-125.1-132.88-86.36-168.62-190.68-323.19-249.51-37.26-14.18-86.47-19.71-133.04,1.66v552.61h775.85c15.72-19.38,22.97-43.17,15.99-72.3Z"/>
    </clipPath>
    <linearGradient id="linear-gradient" x1="792.46" y1="298.59" x2="792.46" y2="245" gradientUnits="userSpaceOnUse">
      <stop offset="0" stop-color="#fefbdc" stop-opacity=".2"/>
      <stop offset="1" stop-color="#fefdeb" stop-opacity=".6"/>
    </linearGradient>
    <linearGradient id="linear-gradient-2" x1="337.54" y1="1073.91" x2="337.54" y2="618.11" gradientUnits="userSpaceOnUse">
      <stop offset="0" stop-color="#b7b7b7"/>
      <stop offset=".18" stop-color="gray"/>
      <stop offset=".36" stop-color="#525252"/>
      <stop offset=".53" stop-color="#2e2e2e"/>
      <stop offset=".68" stop-color="#141414"/>
      <stop offset=".82" stop-color="#050505"/>
      <stop offset=".94" stop-color="#000"/>
    </linearGradient>
    <linearGradient id="linear-gradient-3" x1="389.97" y1="1166.56" x2="389.97" y2="848.46" xlink:href="#linear-gradient-2"/>
    <linearGradient id="linear-gradient-4" x1="340.19" y1="890.95" x2="340.19" y2="1101.22" gradientUnits="userSpaceOnUse">
      <stop offset="0" stop-color="#d5d5d5"/>
      <stop offset=".14" stop-color="#bdbdbd"/>
      <stop offset=".44" stop-color="gray"/>
      <stop offset=".87" stop-color="#1f1f1f"/>
      <stop offset="1" stop-color="#000"/>
    </linearGradient>
    <linearGradient id="linear-gradient-5" x1="337.22" y1="792.99" x2="337.22" y2="1189.98" gradientUnits="userSpaceOnUse">
      <stop offset="0" stop-color="#b7b7b7"/>
      <stop offset=".17" stop-color="gray"/>
      <stop offset=".34" stop-color="#525252"/>
      <stop offset=".5" stop-color="#2e2e2e"/>
      <stop offset=".65" stop-color="#141414"/>
      <stop offset=".79" stop-color="#050505"/>
      <stop offset=".9" stop-color="#000"/>
    </linearGradient>
    <linearGradient id="linear-gradient-6" x1="820.69" y1="1062.85" x2="820.96" y2="1062.85" gradientUnits="userSpaceOnUse">
      <stop offset="0" stop-color="#5e3a29"/>
      <stop offset="1" stop-color="#844f30"/>
    </linearGradient>
    <linearGradient id="linear-gradient-7" x1="-.95" y1="962.43" x2="162.49" y2="962.43" gradientTransform="translate(161.53 1924.85) rotate(-180)" gradientUnits="userSpaceOnUse">
      <stop offset="0" stop-color="#765293"/>
      <stop offset="1" stop-color="#3b8693"/>
    </linearGradient>
    <linearGradient id="linear-gradient-8" x1="44.52" y1="1024.88" x2="161.54" y2="1024.88" gradientTransform="matrix(1, 0, 0, 1, 0, 0)" xlink:href="#linear-gradient-7"/>
    <linearGradient id="linear-gradient-9" x1="43.84" y1="910.45" x2="162.08" y2="910.45" gradientTransform="matrix(1, 0, 0, 1, 0, 0)" xlink:href="#linear-gradient-7"/>
    <linearGradient id="linear-gradient-10" x1="88.23" y1="1014.62" x2="5.38" y2="900.13" gradientTransform="matrix(1, 0, 0, 1, 0, 0)" xlink:href="#linear-gradient-7"/>
  </defs>
  <g class="cls-15">
    <g id="Layer_2" data-name="Layer 2">
      <g>
        <g class="cls-24">
          <rect class="cls-10" y="218.76" width="1525.64" height="861.24"/>
          <path class="cls-33" d="m851.85,273.01c-4.81,0-9.05,2.09-11.69,5.28.59-2.08.94-4.25.94-6.49,0-14.8-13.6-26.79-30.38-26.79-13.87,0-25.52,8.21-29.16,19.42-3.96-3.18-9.2-5.13-14.97-5.13-11.03,0-20.16,7.07-21.94,16.35-2.76-2.45-6.59-3.96-10.81-3.96-8.43,0-15.26,6.03-15.26,13.46s6.83,13.46,15.26,13.46h118.03c8.01,0,14.5-5.73,14.5-12.79s-6.49-12.79-14.5-12.79Z"/>
          <g class="cls-4">
            <g>
              <polygon class="cls-2" points="744.58 666.7 744.58 682.44 735.84 686.26 735.84 693.73 733.61 693.73 733.61 699.78 719.46 699.78 719.46 714.24 714.45 714.24 714.45 708.44 711.03 705.02 711.03 688.01 708.49 688.01 708.49 685.31 693.07 685.31 693.07 627.59 690.2 627.59 690.2 615.98 649.5 615.98 649.5 627.27 644.25 627.27 644.25 677.2 611.82 677.2 611.82 679.1 606.57 679.1 606.57 687.53 603.07 687.53 603.07 681.49 598.62 678.95 592.74 681.01 592.74 687.69 589.08 687.69 589.08 681.17 582.88 678.95 575.81 680.69 575.81 700.64 551.28 700.64 551.28 699.12 550.1 699.12 550.1 695.26 529.85 695.26 529.85 687.78 518.75 687.78 518.75 682.65 510.35 682.65 507.16 683.75 503.8 683.75 502.54 682.48 479.68 682.48 479.68 687.86 461.86 687.86 461.86 686.7 435.52 686.7 435.52 691.24 433.69 691.24 427.58 693.15 427.58 673.3 426.38 673.3 426.38 671.09 417.26 671.09 417.26 674 415.55 674 415.55 653.04 413.55 653.04 413.55 645.12 412.24 645.12 412.24 643.41 399.41 643.41 399.41 645.52 398 645.52 398 653.34 395.11 653.34 395.11 693.04 382.01 693.04 382.01 688.45 376.06 648.46 368.9 688.99 368.9 693.04 366.87 693.04 366.87 688.85 363.63 688.85 363.63 686.42 354.18 686.42 354.18 690.34 351.07 690.34 351.07 694.53 342.58 694.53 342.58 662.2 290.82 662.2 290.82 676.55 282.85 680.02 282.85 686.83 280.82 686.83 280.82 692.34 267.93 692.34 267.93 705.52 263.36 705.52 263.36 700.24 260.25 697.12 260.25 681.62 257.93 681.62 257.93 679.15 243.88 679.15 243.88 626.56 241.27 626.56 241.27 615.98 204.18 615.98 204.18 626.27 199.39 626.27 199.39 671.76 169.84 671.76 169.84 673.5 165.05 673.5 165.05 681.18 161.87 681.18 161.87 675.68 157.81 673.36 152.45 675.24 152.45 681.33 149.12 681.33 149.12 675.39 143.47 673.36 137.03 674.95 137.03 693.12 114.67 693.12 114.67 691.75 113.6 691.75 113.6 688.22 95.14 688.22 95.14 681.41 85.03 681.41 85.03 676.74 77.37 676.74 74.46 677.73 71.4 677.73 70.25 676.58 49.42 676.58 49.42 681.48 33.19 681.48 33.19 680.42 9.18 680.42 9.18 684.56 7.52 684.56 1.95 686.31 1.95 668.21 .86 668.21 .86 666.2 -7.46 666.2 -7.46 668.85 -9.01 668.85 -9.01 649.75 -10.84 649.75 -10.84 642.53 -12.03 642.53 -12.03 640.98 -23.72 640.98 -23.72 642.9 -25 642.9 -25 650.03 -27.64 650.03 -27.64 686.2 -39.58 686.2 -39.58 682.02 -45 645.58 -51.52 682.51 -51.52 686.2 -53.37 686.2 -53.37 682.39 -56.32 682.39 -56.32 680.17 -64.94 680.17 -64.94 683.74 -67.77 683.74 -67.77 687.56 -77.36 687.56 -77.36 1416.8 752.44 1416.8 752.44 666.7 744.58 666.7"/>
              <path class="cls-31" d="m852.13,845.39h-20.19v25.57h-10.18v-8.72h-39.46v-91.14h-37.24v5.72h-4.14v-6.62h-6.05v86.93h-7.96v-102.57h-3.82v-16.24h-6.68v-19.55h-27.05v-29.48h-15.91v171.16c-2.55-18.05-14.32-33.99-18.46-33.99h-13.55v-101.07h-71.52v119.98h-23.23v56.91h-13.04v-56.01h-3.08v-5.38h-2.99v-169.5c0-18.46,10.32-31.12,10.32-49.84s-13.34-50.31-20.17-50.31-23.5,26.25-23.5,46.44,12.87,42.81,12.87,52.7v104.13c-4.12-26.3-20.86-60.71-29.35-60.71s-21.43,31.95-25.03,51.32v-184.84h-67.28v17.76h-42.47v64.65h-7.14l-14.4,79.41h-33.02l-1.71-12.02-18.1-30.97-16.39,42.53h-16.15v39.29h-7.35v-22.5h-11.17v-17.78h-35.26v38.05h-16.46v90.83h-50.55v-18.89h-9.11v-5h-10.58v5h-5.88v30.55h-35.56v-17.5h-13.81l-23.22,17.78H5.67l-4.41-33.89h-15.87l-2.64,10.55h-4.11l12.96-113.75h-63.8v643.45h924.34v-542.47Z"/>
            </g>
            <path class="cls-34" d="m852.13,963.34v-4.48h-4.51l.08-.3c-154.46-40.87-237.55-119.12-273.99-154.1v-31.79h.63c.63,0,1.14-.51,1.14-1.14s-.51-1.14-1.14-1.14h-.63v-25.49l-.45-.73v-1.4h.76c.63,0,1.14-.51,1.14-1.14s-.51-1.14-1.14-1.14h-.76v-.97l.43-.81-7.54-28.39v-1.78c.19-.19.3-.45.3-.74s-.12-.55-.3-.74h-1.54c-.19.19-.3.45-.3.74s.12.55.3.74v1.32l-6.03,22.68h-4.91l-11.06-37.49v-1.79c.68,0,.81-1.11.04-1.11h-4.83c-.77,0-.64,1.11.04,1.11v1.79l-11.06,37.49h-5.25l-5.91-22.22v-1.78c.19-.19.3-.45.3-.74s-.12-.55-.3-.74h-1.54c-.19.19-.3.45-.3.74s.12.55.3.74v1.32l-7.67,28.85.43.81v.97h-.45c-.63,0-1.14.51-1.14,1.14s.51,1.14,1.14,1.14h.45v1.4l-.45.73v25.49h-.3c-.63,0-1.14.51-1.14,1.14s.51,1.14,1.14,1.14h.3v7h-65.29v-1.17h-13.69v1.17h-68.08v-7.62h-3.45v5.71h-1.49v-2.67h-.72v2.67h-1.61v-2.67h-.72v2.67h-1.61v-2.67h-.72v2.67h-1.63v-1.5h.77v-2.93h-2.93v-2.46h1.54v-1.42h-1.42v-4.09h-1.41v4.09h-1.42v1.42h1.54v2.46h-2.93v2.93h.77v1.5h-1.63v-2.67h-.72v2.67h-1.61v-2.67h-.72v2.67h-1.61v-2.67h-.72v2.67h-1.49v-5.71h-3.45v7.62h-68.51v-1.17h-13.69v1.17h-73.49v-7h.63c.63,0,1.14-.51,1.14-1.14s-.51-1.14-1.14-1.14h-.63v-25.49l-.45-.73v-1.4h.76c.63,0,1.14-.51,1.14-1.14s-.51-1.14-1.14-1.14h-.76v-.97l.43-.81-7.54-28.39v-1.78c.19-.19.3-.45.3-.74s-2.15-.29-2.15,0,.12.55.3.74v1.32l-6.03,22.68h-4.91l-11.06-37.49v-1.79c.68,0,.81-1.11.04-1.11h-4.83c-.77,0-.64,1.11.04,1.11v1.79l-11.06,37.49h-5.25l-5.91-22.22v-1.78c.19-.19.3-.45.3-.74s-2.15-.29-2.15,0,.12.55.3.74v1.32l-7.67,28.85.43.81v.97h-.45c-.63,0-1.14.51-1.14,1.14s.51,1.14,1.14,1.14h.45v1.4l-.45.73v25.49h-.29c-.63,0-1.14.51-1.14,1.14s.51,1.14,1.14,1.14h.29v32.75c-36.95,35.44-119.95,112.64-272.99,153.15l.08.3h-5.84v4.48l.04-.04,4.56,4.56-4.56,4.56-.04-.04v4.41H85.3v-.65h108.85v-4.89l9.87,10.64-9.87,1.14v-6.04h-108.87v93.77h108.87v-85.22l139.37-16.15,6.12-.36v-4.77l-59.7-.04h-.66l-70.17-.05-.15-.15-.42.15h-14.38v-1.78l145.49.1v-5l-157.42-.11v-1.28h-2.05v-3.74h-6.77v-6.38h1.51c.63,0,1.14-.51,1.14-1.14s-.51-1.14-1.14-1.14h-1.51v-42.49h1.51c.63,0,1.14-.51,1.14-1.14s-.51-1.14-1.14-1.14h-1.51v-6.04h1.51c.63,0,1.14-.51,1.14-1.14s-.51-1.14-1.14-1.14h-1.51v-33.39h1.51c.63,0,1.14-.51,1.14-1.14s-.51-1.14-1.14-1.14h-1.51v-6.04h1.51c.63,0,1.14-.51,1.14-1.14s-.51-1.14-1.14-1.14h-1.51v-13.06l-.92-5.67,1.79-10.27h.63c.63,0,1.14-.51,1.14-1.14s-.51-1.14-1.14-1.14h-.63v-6.04h.63c.63,0,1.14-.51,1.14-1.14s-.51-1.14-1.14-1.14h-.63v-9.47h155.69v1.31h29.39v-1.31h147.06v9.47h-.3c-.63,0-1.14.51-1.14,1.14s.51,1.14,1.14,1.14h.3v6.04h-.3c-.63,0-1.14.51-1.14,1.14s.51,1.14,1.14,1.14h.3l1.79,10.27-.92,5.67v13.06h-1.17c-.63,0-1.14.51-1.14,1.14s.51,1.14,1.14,1.14h1.17v6.04h-1.17c-.63,0-1.14.51-1.14,1.14s.51,1.14,1.14,1.14h1.17v33.39h-1.17c-.63,0-1.14.51-1.14,1.14s.51,1.14,1.14,1.14h1.17v6.04h-1.17c-.63,0-1.14.51-1.14,1.14s.51,1.14,1.14,1.14h1.17v42.49h-1.17c-.63,0-1.14.51-1.14,1.14s.51,1.14,1.14,1.14h1.17v6.38h-6.77v3.74h-2.05v1.28l-158.42.11v5l146.46-.1v1.77h-15.35s-.42-.14-.42-.14l-.15.15-70.17.05h-.66l-59.7.04v4.77l6.12.36,140.34,16.26v69.25h108.87v-77.92h-108.87v6.15l-10.84-1.26,10.84-11.69v5.93h108.56v.65h257.05v-4.41l-.04.04-4.56-4.56,4.56-4.56.04.04Zm-693.76-218.45l.75,207.48h-.75v-207.48Zm-7.7,34.02c0-1.06.65-1.98,1.57-2.38.92.4,1.57,1.31,1.57,2.38v2.32h-3.14v-2.32Zm0,3.07h3.14v7.29h-3.14v-7.29Zm0,9.58h3.14v5.15h-3.14v-5.15Zm-1.02,45.82c0-1.71,1.04-3.18,2.52-3.82,1.48.64,2.52,2.11,2.52,3.82v1.26h-5.04v-1.26Zm0,2.47h5.04v5.45h-5.04v-5.45Zm-14.4-43.13v-5.15h3.14v5.15h-3.14Zm2.18,8v1.32h-3.14v-1.32c0-1.06.65-1.98,1.57-2.38.92.4,1.57,1.32,1.57,2.38Zm.96-52.36v7.29h-3.14v-7.29h3.14Zm-3.14-.75v-2.32c0-1.06.65-1.98,1.57-2.38.92.4,1.57,1.31,1.57,2.38v2.32h-3.14Zm1.57,24.93c.92.4,1.57,1.31,1.57,2.38v2.32h-3.14v-2.32c0-1.06.65-1.98,1.57-2.38Zm1.57,5.45v7.29h-3.14v-7.29h3.14Zm-.09,57.87h5.04v5.45h-5.04v-5.45Zm0-1.21v-1.26c0-1.71,1.04-3.18,2.52-3.82,1.48.64,2.52,2.11,2.52,3.82v1.26h-5.04Zm4.09-87.04h-3.14v-2.32c0-1.06.65-1.98,1.57-2.38.92.4,1.57,1.31,1.57,2.38v2.32Zm.02,53.11v1.32h-3.14v-1.32c0-1.06.65-1.98,1.57-2.38.92.4,1.57,1.32,1.57,2.38Zm-.02-52.36v7.29h-3.14v-7.29h3.14Zm-1.57,24.18c.92.4,1.57,1.31,1.57,2.38v2.32h-3.14v-2.32c0-1.06.65-1.98,1.57-2.38Zm1.57,5.45v7.29h-3.14v-7.29h3.14Zm0,9.58v5.15h-3.14v-5.15h3.14Zm.86,5.15v-5.15h3.14v5.15h-3.14Zm3.14-44.36v7.29h-3.14v-7.29h3.14Zm-3.14-.75v-2.32c0-1.06.65-1.98,1.57-2.38.92.4,1.57,1.31,1.57,2.38v2.32h-3.14Zm1.57,24.93c.92.4,1.57,1.31,1.57,2.38v2.32h-3.14v-2.32c0-1.06.65-1.98,1.57-2.38Zm1.57,5.45v7.29h-3.14v-7.29h3.14Zm-2.13,22.73c0-1.06.65-1.98,1.57-2.38.92.4,1.57,1.32,1.57,2.38v1.32h-3.14v-1.32Zm-16.43-25.8c0-1.06.65-1.98,1.57-2.38.92.4,1.57,1.31,1.57,2.38v2.32h-3.14v-2.32Zm0,3.07h3.14v7.29h-3.14v-7.29Zm0,9.58h3.14v5.15h-3.14v-5.15Zm-.88,45.82c0-1.71,1.04-3.18,2.52-3.82,1.48.64,2.52,2.11,2.52,3.82v1.26h-5.04v-1.26Zm0,2.47h5.04v5.45h-5.04v-5.45Zm26.86,94.54v3.54h.75v1.68h-5.15v-1.68h.75v-3.54h3.66Zm-3.66-1.03v-.12c0-1.19.49-1.9,1.83-2.65,1.34.75,1.83,1.45,1.83,2.65v.12h-3.66Zm-.75-4.7v-1.68h.75v-2.87c0-1.19.49-1.9,1.83-2.65,1.34.75,1.83,1.46,1.83,2.65v2.87h.75v1.68h-5.15Zm0-12.1v-1.68h.75v-2.87c0-1.19.49-1.9,1.83-2.65,1.34.75,1.83,1.45,1.83,2.65v2.87h.75v1.68h-5.15Zm.72-38.82v-.43l.81-.81h.39c0-.49.4-.89.89-.89s.89.4.89.89h.37l.81.81v.43l-.39.39v1.91l.39.39v.41h-4.17v-.41l.39-.39v-1.91l-.39-.39Zm4.17,3.67v8.22h-4.17v-8.22h4.17Zm-13.09,51.89v-4.17h2.87v4.17h-2.87Zm2.87,1.04v5.02h-2.87v-5.02h2.87Zm-2.87-6.26v-7.3h2.87v7.3h-2.87Zm0-8.34v-.24c0-1.07.59-1.98,1.43-2.52.84.55,1.43,1.45,1.43,2.52v.24h-2.87Zm.27-30.1v-8.22h4.17v8.22h-4.17Zm0-8.81v-.41l.39-.39v-1.91l-.39-.39v-.43l.81-.81h.39c0-.49.4-.89.89-.89s.89.4.89.89h.37l.81.81v.43l-.39.39v1.91l.39.39v.41h-4.17Zm-4.4,52.47v-4.17h2.87v4.17h-2.87Zm2.87,1.04v5.02h-2.87v-5.02h2.87Zm-2.87-6.26v-7.3h2.87v7.3h-2.87Zm0-8.34v-.24c0-1.07.59-1.98,1.43-2.52.84.55,1.43,1.45,1.43,2.52v.24h-2.87Zm-.63-30.1v-8.22h4.17v8.22h-4.17Zm0-8.81v-.41l.39-.39v-1.91l-.39-.39v-.43l.81-.81h.39c0-.49.4-.89.9-.89s.89.4.89.89h.37l.81.81v.43l-.39.39v1.91l.39.39v.41h-4.17Zm-4.95,53.56v3.54h.75v1.68h-5.15v-1.68h.75v-3.54h3.66Zm-3.66-1.03v-.12c0-1.19.49-1.9,1.83-2.65,1.34.75,1.83,1.45,1.83,2.65v.12h-3.66Zm-.75-4.7v-1.68h.75v-2.87c0-1.19.49-1.9,1.83-2.65,1.34.75,1.83,1.46,1.83,2.65v2.87h.75v1.68h-5.15Zm0-12.1v-1.68h.75v-2.87c0-1.19.49-1.9,1.83-2.65,1.34.75,1.83,1.45,1.83,2.65v2.87h.75v1.68h-5.15Zm.52-38.82v-.43l.81-.81h.39c0-.49.4-.89.89-.89s.89.4.89.89h.37l.81.81v.43l-.39.39v1.91l.39.39v.41h-4.17v-.41l.39-.39v-1.91l-.39-.39Zm4.17,3.67v8.22h-4.17v-8.22h4.17Zm-8.69-136.51v207.48h-.75l.75-207.48Zm-49.21,93.94c9.89-8.35,18.4-16.08,25.62-22.85-6.97,8.68-15.45,18.8-25.62,29.73v-6.88Zm-27.94,22.14c9.82-7.3,18.7-14.38,26.69-21.09v7.17c-7.89,8.41-16.76,17.27-26.69,26.27v-12.34Zm26.72,102.33l-2.78,2.78-2.78-2.78,1.19-1.19h3.17l1.19,1.19Zm-26.72-87.08c9.9-8.9,18.78-17.66,26.69-26.02v108.66h-26.69v-82.64Zm17.62,87.08l-2.78,2.78-2.78-2.78,1.19-1.19h3.18l1.19,1.19Zm-9.1,0l-2.78,2.78-2.78-2.78,1.19-1.19h3.17l1.19,1.19Zm-36.29-82.93c9.51-6.23,18.32-12.42,26.52-18.48v12.53c-8.13,7.31-16.95,14.7-26.52,22.02v-16.07Zm27.19,82.93l-2.78,2.78-2.78-2.78,1.19-1.19h3.17l1.19,1.19Zm-27.19-64.13c9.55-7.25,18.37-14.57,26.52-21.83v81.52h-26.52v-59.69Zm18.09,64.13l-2.78,2.78-2.78-2.78,1.19-1.19h3.17l1.19,1.19Zm-9.1,0l-2.78,2.78-2.78-2.78,1.19-1.19h3.17l1.19,1.19Zm-36.93-65.74c9.43-5.44,18.31-10.92,26.69-16.38v16.21c-8.34,6.34-17.21,12.61-26.69,18.71v-18.55Zm27.83,65.74l-2.78,2.78-3.98-3.98h5.56l1.19,1.19Zm-27.83-44.62c9.46-6.05,18.34-12.28,26.69-18.57v58.74H-9.76v-40.17Zm16.38,43.42l-3.98,3.98-2.78-2.78,1.19-1.19h5.56Zm-10.29,1.19l-2.78,2.78-2.78-2.78,1.19-1.19h3.17l1.19,1.19Zm-35.59-49.8c9.92-5,19.32-10.1,28.26-15.23v18.64c-8.9,5.69-18.33,11.21-28.26,16.51v-19.92Zm0,22.37c9.93-5.26,19.35-10.75,28.26-16.4v39.39h-28.26v-22.99Zm26.5,27.43l-2.78,2.78-2.78-2.78,1.19-1.19h3.17l1.19,1.19Zm-9.1,0l-2.78,2.78-2.78-2.78,1.19-1.19h3.18l1.19,1.19Zm-9.1,0l-2.78,2.78-2.78-2.78,1.19-1.19h3.17l1.19,1.19Zm-38.5-35.61c10.09-4.41,19.74-8.95,28.96-13.57v19.96c-9.2,4.87-18.85,9.52-28.96,13.91v-20.3Zm29.4,35.61l-2.78,2.78-2.78-2.78,1.19-1.19h3.17l1.19,1.19Zm-29.4-12.96c10.11-4.36,19.75-8.98,28.96-13.81v22.33h-28.96v-8.51Zm20.31,12.96l-2.78,2.78-2.78-2.78,1.19-1.19h3.17l1.19,1.19Zm-9.1,0l-2.78,2.78-2.78-2.78,1.19-1.19h3.17l1.19,1.19Zm-32.6-4.45c6.89-2.54,13.63-5.19,20.15-7.97v7.97h-20.15Zm2.26,3.25l-3.98,3.98-2.78-2.78,1.19-1.19h5.56Zm20.05,0l1.19,1.19-2.78,2.78-3.98-3.98h5.56Zm-34.44-20.89c11.21-4.16,21.99-8.49,32.28-12.97v20.28c-8.38,3.6-17.03,7.04-26.05,10.22l.04.11h-6.27v-17.64Zm2.9,20.89l1.19,1.19-2.78,2.78-2.78-2.78,1.19-1.19h3.17Zm-4.15-20.43v17.18h-53.46c18.88-5.23,36.71-11,53.46-17.18Zm-3.75,21.63l-2.78,2.78-2.78-2.78,1.19-1.19h3.17l1.19,1.19Zm-9.1,0l-2.78,2.78-2.78-2.78,1.19-1.19h3.18l1.19,1.19Zm-9.1,0l-2.78,2.78-2.78-2.78,1.19-1.19h3.17l1.19,1.19Zm-9.1,0l-2.78,2.78-2.78-2.78,1.19-1.19h3.17l1.19,1.19Zm-9.1,0l-2.78,2.78-2.78-2.78,1.19-1.19h3.17l1.19,1.19Zm-13.47-1.19h3.17l1.19,1.19-2.78,2.78-2.78-2.78,1.19-1.19Zm-11.49,0h5.56l1.19,1.19-2.78,2.78-3.98-3.98Zm5.63,11.42h-5.56l3.9-3.9,2.78,2.78-1.12,1.12Zm.11-5.67l2.78-2.78,2.78,2.78-2.78,2.78-2.78-2.78Zm8.99,5.67h-3.32l-1.12-1.12,2.78-2.78,2.78,2.78-1.12,1.12Zm.11-5.67l2.78-2.78,2.78,2.78-2.78,2.78-2.78-2.78Zm8.99,5.67h-3.32l-1.12-1.12,2.78-2.78,2.78,2.78-1.12,1.12Zm.11-5.67l2.78-2.78,2.78,2.78-2.78,2.78-2.78-2.78Zm8.99,5.67h-3.32l-1.12-1.12,2.78-2.78,2.78,2.78-1.12,1.12Zm.11-5.67l2.78-2.78,2.78,2.78-2.78,2.78-2.78-2.78Zm8.99,5.67h-3.32l-1.12-1.12,2.78-2.78,2.78,2.78-1.12,1.12Zm.11-5.67l2.78-2.78,2.78,2.78-2.78,2.78-2.78-2.78Zm8.99,5.67h-3.32l-1.12-1.12,2.78-2.78,2.78,2.78-1.12,1.12Zm.11-5.67l2.78-2.78,2.78,2.78-2.78,2.78-2.78-2.78Zm8.99,5.67h-3.32l-1.12-1.12,2.78-2.78,2.78,2.78-1.12,1.12Zm.11-5.67l2.78-2.78,2.78,2.78-2.78,2.78-2.78-2.78Zm8.99,5.67h-3.32l-1.12-1.12,2.78-2.78,2.78,2.78-1.12,1.12Zm.11-5.67l2.78-2.78,2.78,2.78-2.78,2.78-2.78-2.78Zm5.67,5.67l-1.12-1.12,2.78-2.78,3.9,3.9h-5.56Zm9.1,0l-5.67-5.67,5.74-5.74h7.41l5.74,5.74-5.67,5.67h-7.56Zm16.65,0h-5.56l3.9-3.9,2.78,2.78-1.12,1.12Zm.11-5.67l2.78-2.78,2.78,2.78-2.78,2.78-2.78-2.78Zm8.99,5.67h-3.32l-1.12-1.12,2.78-2.78,2.78,2.78-1.12,1.12Zm.11-5.67l2.78-2.78,2.78,2.78-2.78,2.78-2.78-2.78Zm8.99,5.67h-3.32l-1.12-1.12,2.78-2.78,2.78,2.78-1.12,1.12Zm.11-5.67l2.78-2.78,2.78,2.78-2.78,2.78-2.78-2.78Zm8.99,5.67h-3.32l-1.12-1.12,2.78-2.78,2.78,2.78-1.12,1.12Zm.11-5.67l2.78-2.78,2.78,2.78-2.78,2.78-2.78-2.78Zm8.99,5.67h-3.32l-1.12-1.12,2.78-2.78,2.78,2.78-1.12,1.12Zm.11-5.67l2.78-2.78,2.78,2.78-2.78,2.78-2.78-2.78Zm8.99,5.67h-3.32l-1.12-1.12,2.78-2.78,2.78,2.78-1.12,1.12Zm.11-5.67l2.78-2.78,2.78,2.78-2.78,2.78-2.78-2.78Zm8.99,5.67h-3.32l-1.12-1.12,2.78-2.78,2.78,2.78-1.12,1.12Zm.11-5.67l2.78-2.78,2.78,2.78-2.78,2.78-2.78-2.78Zm8.99,5.67h-3.32l-1.12-1.12,2.78-2.78,2.78,2.78-1.12,1.12Zm.11-5.67l2.78-2.78,2.78,2.78-2.78,2.78-2.78-2.78Zm5.67,5.67l-1.12-1.12,2.78-2.78,3.9,3.9H.99Zm3.43-5.67l4.56-4.56,4.56,4.56-4.56,4.56-4.56-4.56Zm12.54,5.67h-5.56l3.9-3.9,2.78,2.78-1.12,1.12Zm.11-5.67l2.78-2.78,2.78,2.78-2.78,2.78-2.78-2.78Zm8.99,5.67h-3.32l-1.12-1.12,2.78-2.78,2.78,2.78-1.12,1.12Zm.11-5.67l2.78-2.78,2.78,2.78-2.78,2.78-2.78-2.78Zm8.99,5.67h-3.32l-1.12-1.12,2.78-2.78,2.78,2.78-1.12,1.12Zm.11-5.67l2.78-2.78,2.78,2.78-2.78,2.78-2.78-2.78Zm8.99,5.67h-3.32l-1.12-1.12,2.78-2.78,2.78,2.78-1.12,1.12Zm.11-5.67l2.78-2.78,2.78,2.78-2.78,2.78-2.78-2.78Zm8.99,5.67h-3.32l-1.12-1.12,2.78-2.78,2.78,2.78-1.12,1.12Zm.11-5.67l2.78-2.78,2.78,2.78-2.78,2.78-2.78-2.78Zm8.99,5.67h-3.32l-1.12-1.12,2.78-2.78,2.78,2.78-1.12,1.12Zm.11-5.67l2.78-2.78,2.78,2.78-2.78,2.78-2.78-2.78Zm8.99,5.67h-3.32l-1.12-1.12,2.78-2.78,2.78,2.78-1.12,1.12Zm.11-5.67l2.78-2.78,2.78,2.78-2.78,2.78-2.78-2.78Zm4.55-4.55l1.19-1.19h3.17l1.19,1.19-2.78,2.78-2.78-2.78Zm4.44,10.22h-3.32l-1.12-1.12,2.78-2.78,2.78,2.78-1.12,1.12Zm4.64-5.64l-1.75,2.75-2.78-2.78,2.78-2.78,1.75,2.75v.06Zm0-9.03h0s-11.4,0-11.4,0v-109.98c13.99-14.9,24.9-28.39,33.13-38.86v5.35h-.29c-.63,0-1.14.51-1.14,1.14s.51,1.14,1.14,1.14h.29l1.79,10.27-.92,5.67v13.06h-1.17c-.63,0-1.14.51-1.14,1.14s.51,1.14,1.14,1.14h1.17v6.04h-1.17c-.63,0-1.14.51-1.14,1.14s.51,1.14,1.14,1.14h1.17v33.39h-1.17c-.63,0-1.14.51-1.14,1.14s.51,1.14,1.14,1.14h1.17v6.04h-1.17c-.63,0-1.14.51-1.14,1.14s.51,1.14,1.14,1.14h1.17v42.49h-1.17c-.63,0-1.14.51-1.14,1.14s.51,1.14,1.14,1.14h1.17v6.38h-6.77v3.74h-2.05v2.75h-13.79Zm194.42,8.11l8.92,5.11-11.49,1.33,2.58-6.44Zm-2.6-.25l-1.99,4.98-9.85-4.99h11.84Zm-15.72.84l12.33,6.25-13.69,1.59,1.36-7.84Zm-2.39-.84l-1.12,6.49-10.43-6.49h11.56Zm-15,.8l13.2,8.21-15.46,1.79,2.26-10.01Zm-2.38-.8l-1.94,8.58-10.75-8.59h12.69Zm-15.4,1.03l12.66,10.12-14.4,1.67,1.74-11.79Zm-2.38-1.03l-1.52,10.33-10.62-10.33h12.15Zm-14.81.89l12.61,12.27-14.34,1.66,1.73-13.93Zm-14.86-.39v-.51h12.46s-1.57,12.63-1.57,12.63l-11.24-12.12h.35Zm-3.76,0l.58.62h-105.67v-.62h105.09Zm46.29-184.26h3.17l1.19,1.19-2.78,2.78-2.78-2.78,1.19-1.19Zm-9.1,0h3.17l1.19,1.19-2.78,2.78-2.78-2.78,1.19-1.19Zm-9.1,0h3.18l1.19,1.19-2.78,2.78-2.78-2.78,1.19-1.19Zm-9.1,0h3.17l1.19,1.19-2.78,2.78-2.78-2.78,1.19-1.19Zm-9.1,0h3.17l1.19,1.19-2.78,2.78-2.78-2.78,1.19-1.19Zm-9.1,0h3.17l1.19,1.19-2.78,2.78-2.78-2.78,1.19-1.19Zm-9.1,0h3.17l1.19,1.19-2.78,2.78-2.78-2.78,1.19-1.19Zm-7.79,0h1.87l1.19,1.19-2.78,2.78-.28-.28v-3.7Zm1.94,11.42h-1.94v-3.63l.28-.28,2.78,2.78-1.12,1.12Zm.11-5.67l2.78-2.78,2.78,2.78-2.78,2.78-2.78-2.78Zm8.99,5.67h-3.32l-1.12-1.12,2.78-2.78,2.78,2.78-1.12,1.12Zm.11-5.67l2.78-2.78,2.78,2.78-2.78,2.78-2.78-2.78Zm8.99,5.67h-3.32l-1.12-1.12,2.78-2.78,2.78,2.78-1.12,1.12Zm.11-5.67l2.78-2.78,2.78,2.78-2.78,2.78-2.78-2.78Zm8.99,5.67h-3.32l-1.12-1.12,2.78-2.78,2.78,2.78-1.12,1.12Zm.11-5.67l2.78-2.78,2.78,2.78-2.78,2.78-2.78-2.78Zm8.99,5.67h-3.32l-1.12-1.12,2.78-2.78,2.78,2.78-1.12,1.12Zm.11-5.67l2.78-2.78,2.78,2.78-2.78,2.78-2.78-2.78Zm8.99,5.67h-3.32l-1.12-1.12,2.78-2.78,2.78,2.78-1.12,1.12Zm.11-5.67l2.78-2.78,2.78,2.78-2.78,2.78-2.78-2.78Zm8.99,5.67h-3.32l-1.12-1.12,2.78-2.78,2.78,2.78-1.12,1.12Zm.11-5.67l2.78-2.78,2.78,2.78-2.78,2.78-2.78-2.78Zm8.99,5.67h-3.32l-1.12-1.12,2.78-2.78,2.78,2.78-1.12,1.12Zm.11-5.67l2.78-2.78,2.78,2.78-2.78,2.78-2.78-2.78Zm7.74,5.67h-2.07l-1.12-1.12,2.78-2.78.41.41v3.49Zm0-7.85l-.41.41-2.78-2.78,1.19-1.19h2v3.56Zm74.34-3.56h3.17l1.19,1.19-2.78,2.78-2.78-2.78,1.19-1.19Zm-9.1,0h3.17l1.19,1.19-2.78,2.78-2.78-2.78,1.19-1.19Zm-9.1,0h3.18l1.19,1.19-2.78,2.78-2.78-2.78,1.19-1.19Zm-9.1,0h3.17l1.19,1.19-2.78,2.78-2.78-2.78,1.19-1.19Zm-9.1,0h3.17l1.19,1.19-2.78,2.78-2.78-2.78,1.19-1.19Zm-9.1,0h3.17l1.19,1.19-2.78,2.78-2.78-2.78,1.19-1.19Zm-9.1,0h3.17l1.19,1.19-2.78,2.78-2.78-2.78,1.19-1.19Zm-6.06,0h.13l1.19,1.19-1.33,1.33v-2.52Zm.2,11.42h-.2v-2.45l1.33,1.33-1.12,1.12Zm.11-5.67l2.78-2.78,2.78,2.78-2.78,2.78-2.78-2.78Zm8.99,5.67h-3.32l-1.12-1.12,2.78-2.78,2.78,2.78-1.12,1.12Zm.11-5.67l2.78-2.78,2.78,2.78-2.78,2.78-2.78-2.78Zm8.99,5.67h-3.32l-1.12-1.12,2.78-2.78,2.78,2.78-1.12,1.12Zm.11-5.67l2.78-2.78,2.78,2.78-2.78,2.78-2.78-2.78Zm8.99,5.67h-3.32l-1.12-1.12,2.78-2.78,2.78,2.78-1.12,1.12Zm.11-5.67l2.78-2.78,2.78,2.78-2.78,2.78-2.78-2.78Zm8.99,5.67h-3.32l-1.12-1.12,2.78-2.78,2.78,2.78-1.12,1.12Zm.11-5.67l2.78-2.78,2.78,2.78-2.78,2.78-2.78-2.78Zm8.99,5.67h-3.32l-1.12-1.12,2.78-2.78,2.78,2.78-1.12,1.12Zm.11-5.67l2.78-2.78,2.78,2.78-2.78,2.78-2.78-2.78Zm8.99,5.67h-3.32l-1.12-1.12,2.78-2.78,2.78,2.78-1.12,1.12Zm.11-5.67l2.78-2.78,2.78,2.78-2.78,2.78-2.78-2.78Zm8.99,5.67h-3.32l-1.12-1.12,2.78-2.78,2.78,2.78-1.12,1.12Zm4.61-4.61l-1.72,1.72-2.78-2.78,2.78-2.78,1.72,1.72v2.12Zm87.37-6.8h3.17l1.19,1.19-2.78,2.78-2.78-2.78,1.19-1.19Zm-9.1,0h3.17l1.19,1.19-2.78,2.78-2.78-2.78,1.19-1.19Zm-9.1,0h3.18l1.19,1.19-2.78,2.78-2.78-2.78,1.19-1.19Zm-9.1,0h3.17l1.19,1.19-2.78,2.78-2.78-2.78,1.19-1.19Zm-9.1,0h3.17l1.19,1.19-2.78,2.78-2.78-2.78,1.19-1.19Zm-9.1,0h3.17l1.19,1.19-2.78,2.78-2.78-2.78,1.19-1.19Zm-9.1,0h3.17l1.19,1.19-2.78,2.78-2.78-2.78,1.19-1.19Zm-3.39,8.1v-4.71l.43-.43,2.78,2.78-2.78,2.78-.43-.43Zm6.64,3.32h-3.32l-1.12-1.12,2.78-2.78,2.78,2.78-1.12,1.12Zm.11-5.67l2.78-2.78,2.78,2.78-2.78,2.78-2.78-2.78Zm8.99,5.67h-3.32l-1.12-1.12,2.78-2.78,2.78,2.78-1.12,1.12Zm.11-5.67l2.78-2.78,2.78,2.78-2.78,2.78-2.78-2.78Zm8.99,5.67h-3.32l-1.12-1.12,2.78-2.78,2.78,2.78-1.12,1.12Zm.11-5.67l2.78-2.78,2.78,2.78-2.78,2.78-2.78-2.78Zm8.99,5.67h-3.32l-1.12-1.12,2.78-2.78,2.78,2.78-1.12,1.12Zm.11-5.67l2.78-2.78,2.78,2.78-2.78,2.78-2.78-2.78Zm8.99,5.67h-3.32l-1.12-1.12,2.78-2.78,2.78,2.78-1.12,1.12Zm.11-5.67l2.78-2.78,2.78,2.78-2.78,2.78-2.78-2.78Zm8.99,5.67h-3.32l-1.12-1.12,2.78-2.78,2.78,2.78-1.12,1.12Zm.11-5.67l2.78-2.78,2.78,2.78-2.78,2.78-2.78-2.78Zm8.99,5.67h-3.32l-1.12-1.12,2.78-2.78,2.78,2.78-1.12,1.12Zm.11-5.67l2.78-2.78,2.78,2.78-2.78,2.78-2.78-2.78Zm6.74,5.67h-1.06l-1.12-1.12,2.19-2.19v3.31Zm0-8.03l-2.19-2.19,1.19-1.19h.99v3.38Zm66.25-3.38h3.17l1.19,1.19-2.78,2.78-2.78-2.78,1.19-1.19Zm-9.1,0h3.18l1.19,1.19-2.78,2.78-2.78-2.78,1.19-1.19Zm-9.1,0h3.17l1.19,1.19-2.78,2.78-2.78-2.78,1.19-1.19Zm-9.1,0h3.17l1.19,1.19-2.78,2.78-2.78-2.78,1.19-1.19Zm-9.1,0h3.17l1.19,1.19-2.78,2.78-2.78-2.78,1.19-1.19Zm-9.1,0h3.17l1.19,1.19-2.78,2.78-2.78-2.78,1.19-1.19Zm-7.06,0h1.14l1.19,1.19-2.33,2.33v-3.53Zm1.21,11.42h-1.21v-3.46l2.33,2.33-1.12,1.12Zm.11-5.67l2.78-2.78,2.78,2.78-2.78,2.78-2.78-2.78Zm8.99,5.67h-3.32l-1.12-1.12,2.78-2.78,2.78,2.78-1.12,1.12Zm.11-5.67l2.78-2.78,2.78,2.78-2.78,2.78-2.78-2.78Zm8.99,5.67h-3.32l-1.12-1.12,2.78-2.78,2.78,2.78-1.12,1.12Zm.11-5.67l2.78-2.78,2.78,2.78-2.78,2.78-2.78-2.78Zm8.99,5.67h-3.32l-1.12-1.12,2.78-2.78,2.78,2.78-1.12,1.12Zm.11-5.67l2.78-2.78,2.78,2.78-2.78,2.78-2.78-2.78Zm8.99,5.67h-3.32l-1.12-1.12,2.78-2.78,2.78,2.78-1.12,1.12Zm.11-5.67l2.78-2.78,2.78,2.78-2.78,2.78-2.78-2.78Zm8.99,5.67h-3.32l-1.12-1.12,2.78-2.78,2.78,2.78-1.12,1.12Zm.11-5.67l2.78-2.78,2.78,2.78-2.78,2.78-2.78-2.78Zm8.99,5.67h-3.32l-1.12-1.12,2.78-2.78,2.78,2.78-1.12,1.12Zm.11-5.67l2.78-2.78,2.78,2.78-2.78,2.78-2.78-2.78Zm9.37,5.29l-.38.38h-3.32l-1.12-1.12,2.78-2.78,2.04,2.04v1.48Zm0-5.02l-.27-.27.27-.27v.54Zm0-4.08l-2.04,2.04-2.78-2.78,1.19-1.19h3.17l.45.45v1.48Zm-115.33,187.22l8.92-5.11,2.58,6.44-11.49-1.33Zm11.51-5.35h11.84s-9.85,4.98-9.85,4.98l-1.99-4.98Zm3.38,7.08l12.33-6.25,1.36,7.84-13.69-1.59Zm14.73-7.09h11.56s-10.43,6.49-10.43,6.49l-1.12-6.49Zm1.8,9.01l13.2-8.21,2.26,10.01-15.46-1.79Zm15.58-9.02h12.69s-10.75,8.58-10.75,8.58l-1.94-8.58Zm2.74,11.14l12.66-10.12,1.74,11.79-14.4-1.67Zm15.04-11.15h12.15s-10.62,10.33-10.62,10.33l-1.52-10.33Zm2.2,13.15l12.61-12.27,1.73,13.93-14.34-1.66Zm16.59-.54l-1.57-12.62h13.28s-11.71,12.62-11.71,12.62Zm311.3-37.62c16.76,6.18,34.58,11.95,53.46,17.18h-53.46v-17.18Zm53.48,21.63l-2.78,2.78-2.78-2.78,1.19-1.19h3.17l1.19,1.19Zm-9.1,0l-2.78,2.78-2.78-2.78,1.19-1.19h3.17l1.19,1.19Zm-9.1,0l-2.78,2.78-2.78-2.78,1.19-1.19h3.17l1.19,1.19Zm-9.1,0l-2.78,2.78-2.78-2.78,1.19-1.19h3.17l1.19,1.19Zm-9.1,0l-2.78,2.78-2.78-2.78,1.19-1.19h3.18l1.19,1.19Zm-9.1,0l-2.78,2.78-2.78-2.78,1.19-1.19h3.17l1.19,1.19Zm-41.51-35.06c10.29,4.48,21.06,8.81,32.28,12.97v17.64h-6.27l.04-.11c-9.02-3.18-17.67-6.62-26.05-10.22v-20.28Zm32.41,35.06l-2.78,2.78-2.78-2.78,1.19-1.19h3.17l1.19,1.19Zm-9.1,0l-2.78,2.78-3.98-3.98h5.56l1.19,1.19Zm-23.31-12.42c6.52,2.78,13.26,5.43,20.15,7.97h-20.15v-7.97Zm2.07,11.23l-3.98,3.98-2.78-2.78,1.19-1.19h5.56Zm-32.28-47.99c9.22,4.62,18.87,9.16,28.96,13.57v20.3c-10.11-4.39-19.76-9.04-28.96-13.91v-19.96Zm0,22.41c9.2,4.84,18.85,9.46,28.96,13.81v8.51h-28.96v-22.33Zm21.98,26.77l-2.78,2.78-2.78-2.78,1.19-1.19h3.17l1.19,1.19Zm-9.1,0l-2.78,2.78-2.78-2.78,1.19-1.19h3.17l1.19,1.19Zm-10.29-1.19l1.19,1.19-2.78,2.78-2.78-2.78,1.19-1.19h3.17Zm-32.1-63.84c8.94,5.13,18.34,10.23,28.26,15.23v19.92c-9.93-5.3-19.36-10.82-28.26-16.51v-18.64Zm0,21.2c8.91,5.65,18.33,11.14,28.26,16.4v22.99h-28.26v-39.39Zm24.2,43.84l-2.78,2.78-2.78-2.78,1.19-1.19h3.17l1.19,1.19Zm-9.1,0l-2.78,2.78-2.78-2.78,1.19-1.19h3.18l1.19,1.19Zm-9.1,0l-2.78,2.78-2.78-2.78,1.19-1.19h3.17l1.19,1.19Zm-33.94-82.12c8.37,5.46,17.26,10.93,26.69,16.38v18.55c-9.47-6.1-18.34-12.38-26.69-18.71v-16.21Zm0,18.94c8.35,6.29,17.22,12.52,26.69,18.57v40.17h-26.69v-58.74Zm24.84,63.19l-2.78,2.78-2.78-2.78,1.19-1.19h3.17l1.19,1.19Zm-9.1,0l-2.78,2.78-3.98-3.98h5.56l1.19,1.19Zm-11.45-1.19l-3.98,3.98-2.78-2.78,1.19-1.19h5.56Zm-32.05-100.21c8.19,6.06,17,12.24,26.52,18.48v16.07c-9.56-7.32-18.39-14.71-26.52-22.02v-12.53Zm0,15.44c8.14,7.26,16.97,14.58,26.52,21.83v59.69h-26.52v-81.52Zm21.76,85.97l-2.78,2.78-2.78-2.78,1.19-1.19h3.17l1.19,1.19Zm-9.1,0l-2.78,2.78-2.78-2.78,1.19-1.19h3.17l1.19,1.19Zm-10.29-1.19l1.19,1.19-2.78,2.78-2.78-2.78,1.19-1.19h3.17Zm-30.3-122.23c7.99,6.71,16.87,13.79,26.69,21.09v12.34c-9.93-9-18.8-17.85-26.69-26.27v-7.17Zm0,10.32c7.91,8.36,16.79,17.12,26.69,26.02v82.64h-26.69v-108.66Zm22.4,113.1l-2.78,2.78-2.78-2.78,1.19-1.19h3.17l1.19,1.19Zm-9.1,0l-2.78,2.78-2.78-2.78,1.19-1.19h3.18l1.19,1.19Zm-10.3-1.19l1.19,1.19-2.78,2.78-2.78-2.78,1.19-1.19h3.17Zm-4.26-123.28v6.88c-10.18-10.94-18.65-21.06-25.62-29.73,7.22,6.77,15.74,14.5,25.62,22.85Zm-34.12-21.19h.63c.63,0,1.14-.51,1.14-1.14s-.51-1.14-1.14-1.14h-.63v-6.04h.46c8.28,10.56,19.36,24.32,33.67,39.55v109.98h-12.43s-13.75,0-13.75,0v-2.75h-2.05v-3.74h-6.77v-6.38h1.51c.63,0,1.14-.51,1.14-1.14s-.51-1.14-1.14-1.14h-1.51v-42.49h1.51c.63,0,1.14-.51,1.14-1.14s-.51-1.14-1.14-1.14h-1.51v-6.04h1.51c.63,0,1.14-.51,1.14-1.14s-.51-1.14-1.14-1.14h-1.51v-33.39h1.51c.63,0,1.14-.51,1.14-1.14s-.51-1.14-1.14-1.14h-1.51v-6.04h1.51c.63,0,1.14-.51,1.14-1.14s-.51-1.14-1.14-1.14h-1.51v-13.06l-.92-5.67,1.79-10.27Zm30.47,145.66l-2.78,2.78-2.78-2.78,1.19-1.19h3.17l1.19,1.19Zm-46.39-218.41l.75,207.48h-.75v-207.48Zm-7.7,34.02c0-1.06.65-1.98,1.57-2.38.92.4,1.57,1.31,1.57,2.38v2.32h-3.14v-2.32Zm0,3.07h3.14v7.29h-3.14v-7.29Zm0,9.58h3.14v5.15h-3.14v-5.15Zm-1.02,45.82c0-1.71,1.04-3.18,2.52-3.82,1.48.64,2.52,2.11,2.52,3.82v1.26h-5.04v-1.26Zm0,2.47h5.04v5.45h-5.04v-5.45Zm-14.4-43.13v-5.15h3.14v5.15h-3.14Zm2.18,8v1.32h-3.14v-1.32c0-1.06.65-1.98,1.57-2.38.92.4,1.57,1.32,1.57,2.38Zm.96-52.36v7.29h-3.14v-7.29h3.14Zm-3.14-.75v-2.32c0-1.06.65-1.98,1.57-2.38.92.4,1.57,1.31,1.57,2.38v2.32h-3.14Zm1.57,24.93c.92.4,1.57,1.31,1.57,2.38v2.32h-3.14v-2.32c0-1.06.65-1.98,1.57-2.38Zm1.57,5.45v7.29h-3.14v-7.29h3.14Zm-.09,57.87h5.04v5.45h-5.04v-5.45Zm0-1.21v-1.26c0-1.71,1.04-3.18,2.52-3.82,1.48.64,2.52,2.11,2.52,3.82v1.26h-5.04Zm4.09-87.04h-3.14v-2.32c0-1.06.65-1.98,1.57-2.38.92.4,1.57,1.31,1.57,2.38v2.32Zm.02,53.11v1.32h-3.14v-1.32c0-1.06.65-1.98,1.57-2.38.92.4,1.57,1.32,1.57,2.38Zm-.02-52.36v7.29h-3.14v-7.29h3.14Zm-1.57,24.18c.92.4,1.57,1.31,1.57,2.38v2.32h-3.14v-2.32c0-1.06.65-1.98,1.57-2.38Zm1.57,5.45v7.29h-3.14v-7.29h3.14Zm0,9.58v5.15h-3.14v-5.15h3.14Zm.87,5.15v-5.15h3.14v5.15h-3.14Zm3.14-44.36v7.29h-3.14v-7.29h3.14Zm-3.14-.75v-2.32c0-1.06.65-1.98,1.57-2.38.92.4,1.57,1.31,1.57,2.38v2.32h-3.14Zm1.57,24.93c.92.4,1.57,1.31,1.57,2.38v2.32h-3.14v-2.32c0-1.06.65-1.98,1.57-2.38Zm1.57,5.45v7.29h-3.14v-7.29h3.14Zm-2.13,22.73c0-1.06.65-1.98,1.57-2.38.92.4,1.57,1.32,1.57,2.38v1.32h-3.14v-1.32Zm-16.43-25.8c0-1.06.65-1.98,1.57-2.38.92.4,1.57,1.31,1.57,2.38v2.32h-3.14v-2.32Zm0,3.07h3.14v7.29h-3.14v-7.29Zm0,9.58h3.14v5.15h-3.14v-5.15Zm-.88,45.82c0-1.71,1.04-3.18,2.52-3.82,1.48.64,2.52,2.11,2.52,3.82v1.26h-5.04v-1.26Zm0,2.47h5.04v5.45h-5.04v-5.45Zm26.86,94.54v3.54h.75v1.68h-5.15v-1.68h.75v-3.54h3.66Zm-3.66-1.03v-.12c0-1.19.49-1.9,1.83-2.65,1.34.75,1.83,1.45,1.83,2.65v.12h-3.66Zm-.75-4.7v-1.68h.75v-2.87c0-1.19.49-1.9,1.83-2.65,1.34.75,1.83,1.46,1.83,2.65v2.87h.75v1.68h-5.15Zm0-12.1v-1.68h.75v-2.87c0-1.19.49-1.9,1.83-2.65,1.34.75,1.83,1.45,1.83,2.65v2.87h.75v1.68h-5.15Zm.72-38.82v-.43l.81-.81h.39c0-.49.4-.89.89-.89s.89.4.89.89h.37l.81.81v.43l-.39.39v1.91l.39.39v.41h-4.17v-.41l.39-.39v-1.91l-.39-.39Zm4.17,3.67v8.22h-4.17v-8.22h4.17Zm-13.09,51.89v-4.17h2.87v4.17h-2.87Zm2.87,1.04v5.02h-2.87v-5.02h2.87Zm-2.87-6.26v-7.3h2.87v7.3h-2.87Zm0-8.34v-.24c0-1.07.59-1.98,1.43-2.52.84.55,1.43,1.45,1.43,2.52v.24h-2.87Zm.27-30.1v-8.22h4.17v8.22h-4.17Zm0-8.81v-.41l.39-.39v-1.91l-.39-.39v-.43l.81-.81h.39c0-.49.4-.89.89-.89s.89.4.89.89h.37l.81.81v.43l-.39.39v1.91l.39.39v.41h-4.17Zm-4.4,52.47v-4.17h2.87v4.17h-2.87Zm2.87,1.04v5.02h-2.87v-5.02h2.87Zm-2.87-6.26v-7.3h2.87v7.3h-2.87Zm0-8.34v-.24c0-1.07.59-1.98,1.43-2.52.84.55,1.43,1.45,1.43,2.52v.24h-2.87Zm-.63-30.1v-8.22h4.17v8.22h-4.17Zm0-8.81v-.41l.39-.39v-1.91l-.39-.39v-.43l.81-.81h.39c0-.49.4-.89.89-.89s.89.4.89.89h.37l.81.81v.43l-.39.39v1.91l.39.39v.41h-4.17Zm-4.95,53.56v3.54h.75v1.68h-5.15v-1.68h.75v-3.54h3.66Zm-3.66-1.03v-.12c0-1.19.49-1.9,1.83-2.65,1.34.75,1.83,1.45,1.83,2.65v.12h-3.66Zm-.75-4.7v-1.68h.75v-2.87c0-1.19.49-1.9,1.83-2.65,1.34.75,1.83,1.46,1.83,2.65v2.87h.75v1.68h-5.15Zm0-12.1v-1.68h.75v-2.87c0-1.19.49-1.9,1.83-2.65,1.34.75,1.83,1.45,1.83,2.65v2.87h.75v1.68h-5.15Zm.52-38.82v-.43l.81-.81h.39c0-.49.4-.89.89-.89s.89.4.89.89h.37l.81.81v.43l-.39.39v1.91l.39.39v.41h-4.17v-.41l.39-.39v-1.91l-.39-.39Zm4.17,3.67v8.22h-4.17v-8.22h4.17Zm-8.69-136.51v207.48h-.75l.75-207.48Zm72.58,222.91h-106.34l.58-.62h105.76v.62Zm.31.54v-.54h-.28l1.74-2.73,2.78,2.78-2.78,2.78-1.45-2.29Zm7.66,5.18h-3.32l-1.12-1.12,2.78-2.78,2.78,2.78-1.12,1.12Zm.11-5.67l2.78-2.78,2.78,2.78-2.78,2.78-2.78-2.78Zm8.99,5.67h-3.32l-1.12-1.12,2.78-2.78,2.78,2.78-1.12,1.12Zm.11-5.67l2.78-2.78,2.78,2.78-2.78,2.78-2.78-2.78Zm8.99,5.67h-3.32l-1.12-1.12,2.78-2.78,2.78,2.78-1.12,1.12Zm.11-5.67l2.78-2.78,2.78,2.78-2.78,2.78-2.78-2.78Zm8.99,5.67h-3.32l-1.12-1.12,2.78-2.78,2.78,2.78-1.12,1.12Zm.11-5.67l2.78-2.78,2.78,2.78-2.78,2.78-2.78-2.78Zm8.99,5.67h-3.32l-1.12-1.12,2.78-2.78,2.78,2.78-1.12,1.12Zm.11-5.67l2.78-2.78,2.78,2.78-2.78,2.78-2.78-2.78Zm8.99,5.67h-3.32l-1.12-1.12,2.78-2.78,2.78,2.78-1.12,1.12Zm.11-5.67l2.78-2.78,2.78,2.78-2.78,2.78-2.78-2.78Zm8.99,5.67h-3.32l-1.12-1.12,2.78-2.78,2.78,2.78-1.12,1.12Zm.11-5.67l2.78-2.78,2.78,2.78-2.78,2.78-2.78-2.78Zm5.67,5.67l-1.12-1.12,2.78-2.78,3.9,3.9h-5.56Zm3.43-5.67l4.56-4.56,4.56,4.56-4.56,4.56-4.56-4.56Zm12.54,5.67h-5.56l3.9-3.9,2.78,2.78-1.12,1.12Zm.11-5.67l2.78-2.78,2.78,2.78-2.78,2.78-2.78-2.78Zm8.99,5.67h-3.32l-1.12-1.12,2.78-2.78,2.78,2.78-1.12,1.12Zm.11-5.67l2.78-2.78,2.78,2.78-2.78,2.78-2.78-2.78Zm8.99,5.67h-3.32l-1.12-1.12,2.78-2.78,2.78,2.78-1.12,1.12Zm.11-5.67l2.78-2.78,2.78,2.78-2.78,2.78-2.78-2.78Zm8.99,5.67h-3.32l-1.12-1.12,2.78-2.78,2.78,2.78-1.12,1.12Zm.11-5.67l2.78-2.78,2.78,2.78-2.78,2.78-2.78-2.78Zm8.99,5.67h-3.32l-1.12-1.12,2.78-2.78,2.78,2.78-1.12,1.12Zm.11-5.67l2.78-2.78,2.78,2.78-2.78,2.78-2.78-2.78Zm8.99,5.67h-3.32l-1.12-1.12,2.78-2.78,2.78,2.78-1.12,1.12Zm.11-5.67l2.78-2.78,2.78,2.78-2.78,2.78-2.78-2.78Zm8.99,5.67h-3.32l-1.12-1.12,2.78-2.78,2.78,2.78-1.12,1.12Zm.11-5.67l2.78-2.78,2.78,2.78-2.78,2.78-2.78-2.78Zm8.99,5.67h-3.32l-1.12-1.12,2.78-2.78,2.78,2.78-1.12,1.12Zm.11-5.67l2.78-2.78,2.78,2.78-2.78,2.78-2.78-2.78Zm5.67,5.67l-1.12-1.12,2.78-2.78,3.9,3.9h-5.56Zm9.1,0l-5.67-5.67,5.74-5.74h7.41l5.74,5.74-5.67,5.67h-7.56Zm16.65,0h-5.56l3.9-3.9,2.78,2.78-1.12,1.12Zm.11-5.67l2.78-2.78,2.78,2.78-2.78,2.78-2.78-2.78Zm8.99,5.67h-3.32l-1.12-1.12,2.78-2.78,2.78,2.78-1.12,1.12Zm.11-5.67l2.78-2.78,2.78,2.78-2.78,2.78-2.78-2.78Zm8.99,5.67h-3.32l-1.12-1.12,2.78-2.78,2.78,2.78-1.12,1.12Zm.11-5.67l2.78-2.78,2.78,2.78-2.78,2.78-2.78-2.78Zm8.99,5.67h-3.32l-1.12-1.12,2.78-2.78,2.78,2.78-1.12,1.12Zm.11-5.67l2.78-2.78,2.78,2.78-2.78,2.78-2.78-2.78Zm8.99,5.67h-3.32l-1.12-1.12,2.78-2.78,2.78,2.78-1.12,1.12Zm.11-5.67l2.78-2.78,2.78,2.78-2.78,2.78-2.78-2.78Zm8.99,5.67h-3.32l-1.12-1.12,2.78-2.78,2.78,2.78-1.12,1.12Zm.11-5.67l2.78-2.78,2.78,2.78-2.78,2.78-2.78-2.78Zm8.99,5.67h-3.32l-1.12-1.12,2.78-2.78,2.78,2.78-1.12,1.12Zm.11-5.67l2.78-2.78,2.78,2.78-2.78,2.78-2.78-2.78Zm8.99,5.67h-3.32l-1.12-1.12,2.78-2.78,2.78,2.78-1.12,1.12Zm.11-5.67l2.78-2.78,2.78,2.78-2.78,2.78-2.78-2.78Zm11.24,5.67h-5.56l-1.12-1.12,2.78-2.78,3.9,3.9Zm-3.9-7.44l-2.78-2.78,1.19-1.19h5.56l-3.98,3.98Zm-703.44-97.67h-.66v-1.33h-1.7v1.33h-.66v1.32h3.01v-1.32Zm399.41,0h-.66v-1.33h-1.7v1.33h-.66v1.32h3.01v-1.32Z"/>
            <polygon class="cls-23" points="-71.34 1088.72 -48.25 1088.72 -43.62 1093.35 -43.62 1105.79 -30.89 1105.79 -30.89 1086.99 -24.82 1086.99 -24.82 1074.84 -5.44 1074.84 -5.44 1063.85 5.55 1063.85 8.88 1060.52 24.64 1060.52 24.64 1049.67 29.56 1049.67 29.56 1046.2 47.21 1046.2 47.21 1050.83 66.59 1050.83 66.59 1061.24 73.24 1061.24 73.24 1025.09 130.51 1025.09 130.51 1062.98 143.53 1062.98 143.53 1042.44 157.99 1042.44 157.99 1023.35 171.01 1023.35 171.01 1014.1 207.45 1014.1 207.45 1024.22 213.24 1024.22 213.24 1049.38 227.7 1049.38 227.7 1043.31 249.97 1043.31 249.97 1050.25 258.07 1050.25 258.07 1077.44 273.11 1077.44 273.11 1040.42 297.7 1040.42 297.7 1076.28 333.56 1076.28 333.56 1035.21 369.43 1035.21 369.43 1066.45 381.58 1066.45 381.58 1061.53 389.97 1061.53 389.97 1067.9 396.62 1067.9 396.62 1021.62 405.88 1021.62 405.88 997.32 463.73 997.32 463.73 1063.56 469.8 1063.56 469.8 1005.71 515.5 1005.71 515.5 1030.29 525.34 1030.29 525.34 1043.53 597.65 1043.53 597.65 1024.8 624.26 1024.8 624.26 1016.99 642.48 1016.99 642.48 1006 681.53 1006 681.53 1018.15 691.08 1018.15 691.08 1025.96 707.56 1025.96 707.56 1076.86 722.61 1076.86 722.61 1085.83 745.78 1085.83 745.78 1345.21 -71.34 1345.21 -71.34 1088.72"/>
          </g>
        </g>
        <path class="cls-14" d="m820.96,1062.75c-.09.1-.19.19-.28.29.1-.12.18-.26.28-.39v.09Z"/>
      </g>
      <g>
        <g>
          <g>
            <g>
              <rect class="cls-17" x="-21.7" y="661.89" width="183.48" height="135.99"/>
              <rect class="cls-17" x="-21.7" y="797.88" width="183.48" height="135.99"/>
              <rect class="cls-17" x="-21.7" y="933.88" width="183.48" height="135.99"/>
            </g>
            <g>
              <rect class="cls-3" x="10.05" y="661.89" width="7.82" height="415.77"/>
              <rect class="cls-3" x="32.48" y="661.89" width="7.82" height="415.77"/>
              <rect class="cls-3" x="54.91" y="661.89" width="7.82" height="415.77"/>
              <rect class="cls-3" x="77.34" y="661.89" width="7.82" height="415.77"/>
              <rect class="cls-3" x="99.77" y="661.89" width="7.82" height="415.77"/>
              <rect class="cls-3" x="122.2" y="661.89" width="7.82" height="415.77"/>
              <rect class="cls-3" x="144.63" y="661.89" width="7.82" height="415.77"/>
            </g>
            <g>
              <rect class="cls-26" x="-21.7" y="790.09" width="183.48" height="15.57"/>
              <rect class="cls-26" x="-21.7" y="926.09" width="183.48" height="15.57"/>
              <rect class="cls-26" x="-21.7" y="1062.08" width="183.48" height="15.57"/>
            </g>
            <g>
              <rect class="cls-26" x="-21.7" y="794.68" width="183.48" height="6.39"/>
              <rect class="cls-26" x="-21.7" y="930.68" width="183.48" height="6.39"/>
              <rect class="cls-9" x="-21.7" y="1066.67" width="183.48" height="6.39"/>
            </g>
          </g>
          <rect class="cls-17" x="-17.74" y="427.11" width="175.55" height="43.34"/>
          <g class="cls-6">
            <rect class="cls-3" x="10.05" y="427.11" width="7.82" height="48.78"/>
            <rect class="cls-3" x="32.48" y="427.11" width="7.82" height="48.78"/>
            <rect class="cls-3" x="54.91" y="427.11" width="7.82" height="48.78"/>
            <rect class="cls-3" x="77.34" y="427.11" width="7.82" height="48.78"/>
            <rect class="cls-3" x="99.77" y="427.11" width="7.82" height="48.78"/>
            <rect class="cls-3" x="122.2" y="427.11" width="7.82" height="48.78"/>
            <rect class="cls-3" x="144.63" y="427.11" width="7.82" height="48.78"/>
          </g>
          <path class="cls-26" d="m157.81,427.11s-33.66-14.28-33.66-62.23H15.92c0,47.96-33.66,62.23-33.66,62.23"/>
          <g>
            <rect class="cls-35" x="-20.46" y="480" width="180.99" height="172.34"/>
            <g>
              <rect class="cls-5" x="-.49" y="490.55" width="5.74" height="151.24"/>
              <rect class="cls-5" x="14.55" y="490.55" width="5.74" height="151.24"/>
              <rect class="cls-5" x="29.58" y="490.55" width="5.74" height="151.24"/>
              <rect class="cls-5" x="44.62" y="490.55" width="5.74" height="151.24"/>
              <rect class="cls-5" x="59.65" y="490.55" width="5.74" height="151.24"/>
              <rect class="cls-5" x="74.68" y="490.55" width="5.74" height="151.24"/>
              <rect class="cls-5" x="89.72" y="490.55" width="5.74" height="151.24"/>
              <rect class="cls-5" x="104.75" y="490.55" width="5.74" height="151.24"/>
              <rect class="cls-5" x="119.79" y="490.55" width="5.74" height="151.24"/>
              <rect class="cls-5" x="134.82" y="490.55" width="5.74" height="151.24"/>
              <rect class="cls-5" x="149.85" y="490.55" width="5.74" height="151.24"/>
            </g>
            <rect class="cls-9" x="-20.46" y="480" width="180.99" height="10.55"/>
            <rect class="cls-20" x="-20.46" y="480" width="180.99" height="5.27"/>
            <rect class="cls-9" x="-20.46" y="641.79" width="180.99" height="10.55"/>
            <rect class="cls-20" x="-20.46" y="647.06" width="180.99" height="5.27"/>
            <path class="cls-11" d="m174.02,662.12v-191.9c-4.44,0-8.03-3.6-8.03-8.03H-25.91c0,4.44-3.6,8.03-8.03,8.03v191.9c4.44,0,8.03,3.6,8.03,8.03h191.9c0-4.44,3.6-8.03,8.03-8.03Z"/>
          </g>
          <path class="cls-11" d="m-52.82,686.22v-226.73c5.24,0,9.49-4.25,9.49-9.49h226.73c0,5.24,4.25,9.49,9.49,9.49v226.73c-5.24,0-9.49,4.25-9.49,9.49H-43.33c0-5.24-4.25-9.49-9.49-9.49Z"/>
          <rect class="cls-17" x="15.61" y="313.1" width="108.58" height="51.77"/>
          <rect class="cls-13" x="15.61" y="313.1" width="108.58" height="8.72"/>
          <g>
            <path class="cls-26" d="m124.19,313.1s-29.95-26.29-29.95-94.14h-13.21c0,67.85-65.41,94.14-65.41,94.14"/>
            <polygon class="cls-13" points="87.63 196.84 85.98 216.78 89.29 216.78 87.63 196.84"/>
            <polygon class="cls-9" points="89.11 210.95 86.14 210.95 81.02 218.97 94.23 218.97 89.11 210.95"/>
          </g>
        </g>
        <path class="cls-22" d="m-43.33,450h25.59v-22.89s33.66-14.28,33.66-62.23h-.31v-51.77s65.41-26.29,65.41-94.14h13.21c0,67.85,29.95,94.14,29.95,94.14v51.77h-.04c0,47.96,33.66,62.23,33.66,62.23v22.89h25.59c0,5.24,4.25,9.49,9.49,9.49v226.73c-5.24,0-9.49,4.25-9.49,9.49h-21.62v381.95H-21.7v-381.95h-21.62c0-5.24-4.25-9.49-9.49-9.49v-226.73c5.24,0,9.49-4.25,9.49-9.49Z"/>
        <polygon class="cls-13" points="86.15 210.95 86.46 210.95 87.63 196.84 88.81 210.95 89.12 210.95 94.24 218.97 81.03 218.97 86.15 210.95"/>
        <g>
          <g>
            <g>
              <rect class="cls-17" x="14.36" y="661.89" width="183.48" height="135.99" transform="translate(212.2 1459.77) rotate(180)"/>
              <rect class="cls-17" x="14.36" y="797.88" width="183.48" height="135.99" transform="translate(212.2 1731.76) rotate(180)"/>
              <rect class="cls-17" x="14.36" y="933.88" width="183.48" height="135.99" transform="translate(212.2 2003.75) rotate(180)"/>
            </g>
            <g>
              <rect class="cls-3" x="180.69" y="661.89" width="7.82" height="415.77" transform="translate(369.2 1739.54) rotate(180)"/>
              <rect class="cls-3" x="158.26" y="661.89" width="7.82" height="415.77" transform="translate(324.34 1739.54) rotate(180)"/>
              <rect class="cls-3" x="135.83" y="661.89" width="7.82" height="415.77" transform="translate(279.48 1739.54) rotate(180)"/>
              <rect class="cls-3" x="113.4" y="661.89" width="7.82" height="415.77" transform="translate(234.63 1739.54) rotate(180)"/>
              <rect class="cls-3" x="90.97" y="661.89" width="7.82" height="415.77" transform="translate(189.77 1739.54) rotate(180)"/>
              <rect class="cls-3" x="68.54" y="661.89" width="7.82" height="415.77" transform="translate(144.91 1739.54) rotate(180)"/>
              <rect class="cls-3" x="46.12" y="661.89" width="7.82" height="415.77" transform="translate(100.05 1739.54) rotate(180)"/>
              <rect class="cls-3" x="23.69" y="661.89" width="7.82" height="415.77" transform="translate(55.2 1739.54) rotate(180)"/>
            </g>
            <g>
              <path class="cls-11" d="m161.03,797.88h15.14v-118.74c0-4.18-3.39-7.57-7.57-7.57h0c-4.18,0-7.57,3.39-7.57,7.57v118.74Zm-17.43-126.31h0c4.18,0,7.57,3.39,7.57,7.57v118.74h-15.14v-118.74c0-4.18,3.39-7.57,7.57-7.57Zm-25,0h0c4.18,0,7.57,3.39,7.57,7.57v118.74h-15.14v-118.74c0-4.18,3.39-7.57,7.57-7.57Zm-25,0h0c4.18,0,7.57,3.39,7.57,7.57v118.74h-15.14v-118.74c0-4.18,3.39-7.57,7.57-7.57Zm-25,0h0c4.18,0,7.57,3.39,7.57,7.57v118.74h-15.14v-118.74c0-4.18,3.39-7.57,7.57-7.57Zm-25,0h0c4.18,0,7.57,3.39,7.57,7.57v118.74h-15.14v-118.74c0-4.18,3.39-7.57,7.57-7.57Z"/>
              <g>
                <path class="cls-9" d="m143.6,671.57c4.18,0,7.57,3.47,7.57,7.75v4.64c0-4.28-3.39-7.75-7.57-7.75s-7.57,3.47-7.57,7.75v-4.64c0-4.28,3.39-7.75,7.57-7.75Z"/>
                <path class="cls-9" d="m168.59,671.57c4.18,0,7.57,3.47,7.57,7.75v4.64c0-4.28-3.39-7.75-7.57-7.75s-7.57,3.47-7.57,7.75v-4.64c0-4.28,3.39-7.75,7.57-7.75Z"/>
                <path class="cls-9" d="m118.6,671.57c4.18,0,7.57,3.47,7.57,7.75v4.64c0-4.28-3.39-7.75-7.57-7.75s-7.57,3.47-7.57,7.75v-4.64c0-4.28,3.39-7.75,7.57-7.75Z"/>
                <path class="cls-9" d="m43.6,671.57c4.18,0,7.57,3.47,7.57,7.75v4.64c0-4.28-3.39-7.75-7.57-7.75s-7.57,3.47-7.57,7.75v-4.64c0-4.28,3.39-7.75,7.57-7.75Z"/>
                <path class="cls-9" d="m68.6,671.57h0c4.18,0,7.57,3.47,7.57,7.75v4.64c0-4.28-3.39-7.75-7.57-7.75h0c-4.18,0-7.57,3.47-7.57,7.75v-4.64c0-4.28,3.39-7.75,7.57-7.75Z"/>
                <path class="cls-9" d="m93.6,671.57c4.18,0,7.57,3.47,7.57,7.75v4.64c0-4.28-3.39-7.75-7.57-7.75s-7.57,3.47-7.57,7.75v-4.64c0-4.28,3.39-7.75,7.57-7.75Z"/>
              </g>
            </g>
            <g>
              <path class="cls-11" d="m161.03,933.88h15.14v-110.43c0-4.18-3.39-7.57-7.57-7.57h0c-4.18,0-7.57,3.39-7.57,7.57v110.43Zm-17.43-117.99h0c4.18,0,7.57,3.39,7.57,7.57v110.43h-15.14v-110.43c0-4.18,3.39-7.57,7.57-7.57Zm-25,0h0c4.18,0,7.57,3.39,7.57,7.57v110.43h-15.14v-110.43c0-4.18,3.39-7.57,7.57-7.57Zm-25,0h0c4.18,0,7.57,3.39,7.57,7.57v110.43h-15.14v-110.43c0-4.18,3.39-7.57,7.57-7.57Zm-25,0h0c4.18,0,7.57,3.39,7.57,7.57v110.43h-15.14v-110.43c0-4.18,3.39-7.57,7.57-7.57Zm-25,0h0c4.18,0,7.57,3.39,7.57,7.57v110.43h-15.14v-110.43c0-4.18,3.39-7.57,7.57-7.57Z"/>
              <g>
                <path class="cls-9" d="m143.6,815.88c4.18,0,7.57,3.47,7.57,7.75v4.64c0-4.28-3.39-7.75-7.57-7.75s-7.57,3.47-7.57,7.75v-4.64c0-4.28,3.39-7.75,7.57-7.75Z"/>
                <path class="cls-9" d="m168.59,815.88c4.18,0,7.57,3.47,7.57,7.75v4.64c0-4.28-3.39-7.75-7.57-7.75s-7.57,3.47-7.57,7.75v-4.64c0-4.28,3.39-7.75,7.57-7.75Z"/>
                <path class="cls-9" d="m118.6,815.88c4.18,0,7.57,3.47,7.57,7.75v4.64c0-4.28-3.39-7.75-7.57-7.75s-7.57,3.47-7.57,7.75v-4.64c0-4.28,3.39-7.75,7.57-7.75Z"/>
                <path class="cls-9" d="m43.6,815.88c4.18,0,7.57,3.47,7.57,7.75v4.64c0-4.28-3.39-7.75-7.57-7.75s-7.57,3.47-7.57,7.75v-4.64c0-4.28,3.39-7.75,7.57-7.75Z"/>
                <path class="cls-9" d="m68.6,815.88h0c4.18,0,7.57,3.47,7.57,7.75v4.64c0-4.28-3.39-7.75-7.57-7.75h0c-4.18,0-7.57,3.47-7.57,7.75v-4.64c0-4.28,3.39-7.75,7.57-7.75Z"/>
                <path class="cls-9" d="m93.6,815.88c4.18,0,7.57,3.47,7.57,7.75v4.64c0-4.28-3.39-7.75-7.57-7.75s-7.57,3.47-7.57,7.75v-4.64c0-4.28,3.39-7.75,7.57-7.75Z"/>
              </g>
            </g>
            <g>
              <path class="cls-11" d="m161.03,1069.87h15.14v-110.43c0-4.18-3.39-7.57-7.57-7.57h0c-4.18,0-7.57,3.39-7.57,7.57v110.43Zm-17.43-117.99h0c4.18,0,7.57,3.39,7.57,7.57v110.43h-15.14v-110.43c0-4.18,3.39-7.57,7.57-7.57Zm-25,0h0c4.18,0,7.57,3.39,7.57,7.57v110.43h-15.14v-110.43c0-4.18,3.39-7.57,7.57-7.57Zm-25,0h0c4.18,0,7.57,3.39,7.57,7.57v110.43h-15.14v-110.43c0-4.18,3.39-7.57,7.57-7.57Zm-25,0h0c4.18,0,7.57,3.39,7.57,7.57v110.43h-15.14v-110.43c0-4.18,3.39-7.57,7.57-7.57Zm-25,0h0c4.18,0,7.57,3.39,7.57,7.57v110.43h-15.14v-110.43c0-4.18,3.39-7.57,7.57-7.57Z"/>
              <g>
                <path class="cls-9" d="m143.6,951.88c4.18,0,7.57,3.47,7.57,7.75v4.64c0-4.28-3.39-7.75-7.57-7.75s-7.57,3.47-7.57,7.75v-4.64c0-4.28,3.39-7.75,7.57-7.75Z"/>
                <path class="cls-9" d="m168.59,951.88c4.18,0,7.57,3.47,7.57,7.75v4.64c0-4.28-3.39-7.75-7.57-7.75s-7.57,3.47-7.57,7.75v-4.64c0-4.28,3.39-7.75,7.57-7.75Z"/>
                <path class="cls-9" d="m118.6,951.88c4.18,0,7.57,3.47,7.57,7.75v4.64c0-4.28-3.39-7.75-7.57-7.75s-7.57,3.47-7.57,7.75v-4.64c0-4.28,3.39-7.75,7.57-7.75Z"/>
                <path class="cls-9" d="m43.6,951.88c4.18,0,7.57,3.47,7.57,7.75v4.64c0-4.28-3.39-7.75-7.57-7.75s-7.57,3.47-7.57,7.75v-4.64c0-4.28,3.39-7.75,7.57-7.75Z"/>
                <path class="cls-9" d="m68.6,951.88h0c4.18,0,7.57,3.47,7.57,7.75v4.64c0-4.28-3.39-7.75-7.57-7.75h0c-4.18,0-7.57,3.47-7.57,7.75v-4.64c0-4.28,3.39-7.75,7.57-7.75Z"/>
                <path class="cls-9" d="m93.6,951.88c4.18,0,7.57,3.47,7.57,7.75v4.64c0-4.28-3.39-7.75-7.57-7.75s-7.57,3.47-7.57,7.75v-4.64c0-4.28,3.39-7.75,7.57-7.75Z"/>
              </g>
            </g>
            <g>
              <rect class="cls-26" x="14.36" y="790.09" width="183.48" height="15.57" transform="translate(212.2 1595.76) rotate(180)"/>
              <rect class="cls-26" x="14.36" y="926.09" width="183.48" height="15.57" transform="translate(212.2 1867.75) rotate(180)"/>
              <rect class="cls-26" x="14.36" y="1062.08" width="183.48" height="15.57" transform="translate(212.2 2139.74) rotate(180)"/>
            </g>
            <g>
              <rect class="cls-26" x="14.36" y="794.68" width="183.48" height="6.39" transform="translate(212.2 1595.76) rotate(180)"/>
              <rect class="cls-26" x="14.36" y="930.68" width="183.48" height="6.39" transform="translate(212.2 1867.75) rotate(180)"/>
              <rect class="cls-9" x="14.36" y="1066.67" width="183.48" height="6.39" transform="translate(212.2 2139.74) rotate(180)"/>
            </g>
          </g>
          <rect class="cls-17" x="18.32" y="427.11" width="175.55" height="43.34" transform="translate(212.2 897.55) rotate(180)"/>
          <g class="cls-6">
            <rect class="cls-3" x="180.69" y="427.11" width="7.82" height="48.78" transform="translate(369.2 902.99) rotate(180)"/>
            <rect class="cls-3" x="158.26" y="427.11" width="7.82" height="48.78" transform="translate(324.34 902.99) rotate(180)"/>
            <rect class="cls-3" x="135.83" y="427.11" width="7.82" height="48.78" transform="translate(279.48 902.99) rotate(180)"/>
            <rect class="cls-3" x="113.4" y="427.11" width="7.82" height="48.78" transform="translate(234.63 902.99) rotate(180)"/>
            <rect class="cls-3" x="90.97" y="427.11" width="7.82" height="48.78" transform="translate(189.77 902.99) rotate(180)"/>
            <rect class="cls-3" x="68.54" y="427.11" width="7.82" height="48.78" transform="translate(144.91 902.99) rotate(180)"/>
            <rect class="cls-3" x="46.11" y="427.11" width="7.82" height="48.78" transform="translate(100.05 902.99) rotate(180)"/>
            <rect class="cls-3" x="23.69" y="427.11" width="7.82" height="48.78" transform="translate(55.2 902.99) rotate(180)"/>
          </g>
          <g>
            <path class="cls-11" d="m161.03,476.3h15.14v-32.21c0-4.18-3.39-7.57-7.57-7.57h0c-4.18,0-7.57,3.39-7.57,7.57v32.21Zm-25-32.21c0-4.18,3.39-7.57,7.57-7.57h0c4.18,0,7.57,3.39,7.57,7.57v32.21h-15.14v-32.21Zm-25,0c0-4.18,3.39-7.57,7.57-7.57h0c4.18,0,7.57,3.39,7.57,7.57v32.21h-15.14v-32.21Zm-25,0c0-4.18,3.39-7.57,7.57-7.57h0c4.18,0,7.57,3.39,7.57,7.57v32.21h-15.14v-32.21Zm-25,0c0-4.18,3.39-7.57,7.57-7.57h0c4.18,0,7.57,3.39,7.57,7.57v32.21h-15.14v-32.21Zm-25,0c0-4.18,3.39-7.57,7.57-7.57h0c4.18,0,7.57,3.39,7.57,7.57v32.21h-15.14v-32.21Z"/>
            <g>
              <path class="cls-9" d="m143.6,436.52c4.18,0,7.57,3.39,7.57,7.57v4.53c0-4.18-3.39-7.57-7.57-7.57s-7.57,3.39-7.57,7.57v-4.53c0-4.18,3.39-7.57,7.57-7.57Z"/>
              <path class="cls-9" d="m118.6,436.52c4.18,0,7.57,3.39,7.57,7.57v4.53c0-4.18-3.39-7.57-7.57-7.57s-7.57,3.39-7.57,7.57v-4.53c0-4.18,3.39-7.57,7.57-7.57Z"/>
              <path class="cls-9" d="m168.59,436.52c4.18,0,7.57,3.39,7.57,7.57v4.53c0-4.18-3.39-7.57-7.57-7.57s-7.57,3.39-7.57,7.57v-4.53c0-4.18,3.39-7.57,7.57-7.57Z"/>
              <path class="cls-9" d="m68.6,436.52h0c4.18,0,7.57,3.39,7.57,7.57v4.53c0-4.18-3.39-7.57-7.57-7.57h0c-4.18,0-7.57,3.39-7.57,7.57v-4.53c0-4.18,3.39-7.57,7.57-7.57Z"/>
              <path class="cls-9" d="m43.6,436.52c4.18,0,7.57,3.39,7.57,7.57v4.53c0-4.18-3.39-7.57-7.57-7.57s-7.57,3.39-7.57,7.57v-4.53c0-4.18,3.39-7.57,7.57-7.57Z"/>
              <path class="cls-9" d="m93.6,436.52c4.18,0,7.57,3.39,7.57,7.57v4.53c0-4.18-3.39-7.57-7.57-7.57s-7.57,3.39-7.57,7.57v-4.53c0-4.18,3.39-7.57,7.57-7.57Z"/>
            </g>
          </g>
          <path class="cls-26" d="m18.32,427.11s33.66-14.28,33.66-62.23h108.23c0,47.96,33.66,62.23,33.66,62.23"/>
          <g>
            <rect class="cls-35" x="-.82" y="471.05" width="213.84" height="203.61"/>
            <g>
              <rect class="cls-5" x="5.01" y="483.51" width="6.78" height="178.69"/>
              <rect class="cls-5" x="22.78" y="483.51" width="6.78" height="178.69"/>
              <rect class="cls-5" x="40.54" y="483.51" width="6.78" height="178.69"/>
              <rect class="cls-5" x="58.3" y="483.51" width="6.78" height="178.69"/>
              <rect class="cls-5" x="76.06" y="483.51" width="6.78" height="178.69"/>
              <rect class="cls-5" x="93.83" y="483.51" width="6.78" height="178.69"/>
              <rect class="cls-5" x="111.59" y="483.51" width="6.78" height="178.69"/>
              <rect class="cls-5" x="129.35" y="483.51" width="6.78" height="178.69"/>
              <rect class="cls-5" x="147.11" y="483.51" width="6.78" height="178.69"/>
              <rect class="cls-5" x="164.88" y="483.51" width="6.78" height="178.69"/>
              <rect class="cls-5" x="182.64" y="483.51" width="6.78" height="178.69"/>
              <rect class="cls-5" x="200.4" y="483.51" width="6.78" height="178.69"/>
            </g>
            <rect class="cls-9" x="-.82" y="471.05" width="213.84" height="12.46"/>
            <rect class="cls-20" x="-.82" y="471.05" width="213.84" height="6.23"/>
            <rect class="cls-9" x="-.82" y="662.2" width="213.84" height="12.46"/>
            <rect class="cls-20" x="-.82" y="668.43" width="213.84" height="6.23"/>
            <path class="cls-11" d="m228.95,686.22v-226.73c-5.24,0-9.49-4.25-9.49-9.49H-7.26c0,5.24-4.25,9.49-9.49,9.49v226.73c5.24,0,9.49,4.25,9.49,9.49h226.73c0-5.24,4.25-9.49,9.49-9.49Z"/>
            <g>
              <circle class="cls-26" cx="106.1" cy="572.85" r="114.48" transform="translate(-373.99 242.81) rotate(-45)"/>
              <g>
                <g class="cls-16">
                  <circle class="cls-36" cx="105.09" cy="572.94" r="110.25" transform="translate(-45.29 10.19) rotate(-4.57)"/>
                </g>
                <path class="cls-18" d="m160.04,517.99c30.35,30.35,30.35,79.55,0,109.9-30.35,30.35-79.55,30.35-109.9,0-30.35-30.35-30.35-79.55,0-109.9,30.35-30.35,79.55-30.35,109.9,0Z"/>
                <g>
                  <path class="cls-17" d="m50.42,518.28l-23.39-23.39c-43.05,43.06-43.05,112.86,0,155.92l23.39-23.39c-30.09-30.09-30.09-79.05,0-109.14Z"/>
                  <path class="cls-28" d="m50.42,518.28l-23.39-23.39c43.05-43.05,112.86-43.05,155.92,0l-23.39,23.39c-30.09-30.09-79.05-30.09-109.14,0Z"/>
                  <path class="cls-28" d="m159.75,627.61l23.39,23.39c-43.05,43.05-112.86,43.05-155.91,0l23.39-23.39c30.09,30.09,79.05,30.09,109.14,0Z"/>
                  <path class="cls-17" d="m159.75,627.61l23.39,23.39c43.05-43.05,43.05-112.86,0-155.91l-23.39,23.39c30.09,30.09,30.09,79.05,0,109.14Z"/>
                </g>
                <g>
                  <g>
                    <path class="cls-38" d="m89.99,509.46c-.71,1.23-2.28,1.65-3.51.94-1.23-.71-1.65-2.28-.94-3.51.71-1.23,2.28-1.65,3.51-.94,1.23.71,1.65,2.28.94,3.51Z"/>
                    <path class="cls-38" d="m74.11,515.52c-.37,1.37-1.78,2.19-3.15,1.82-1.37-.37-2.18-1.78-1.82-3.15.37-1.37,1.78-2.18,3.15-1.82,1.37.37,2.18,1.78,1.82,3.15Z"/>
                    <path class="cls-38" d="m60.34,525.49c0,1.42-1.15,2.57-2.57,2.57-1.42,0-2.57-1.15-2.57-2.57s1.15-2.57,2.57-2.57c1.42,0,2.57,1.15,2.57,2.57Z"/>
                    <path class="cls-38" d="m49.61,538.69c.37,1.37-.45,2.78-1.82,3.15-1.37.37-2.78-.45-3.15-1.82-.37-1.37.45-2.78,1.82-3.15,1.37-.37,2.78.45,3.15,1.82Z"/>
                    <path class="cls-38" d="m42.67,554.21c.71,1.23.29,2.8-.94,3.51-1.23.71-2.8.29-3.51-.94-.71-1.23-.29-2.8.94-3.51,1.23-.71,2.8-.29,3.51.94Z"/>
                    <path class="cls-38" d="m41.73,587.91c1.23.71,1.65,2.28.94,3.51-.71,1.23-2.28,1.65-3.51.94-1.23-.71-1.65-2.28-.94-3.51.71-1.23,2.28-1.65,3.51-.94Z"/>
                    <path class="cls-38" d="m47.8,603.79c1.37.37,2.18,1.78,1.82,3.15-.37,1.37-1.78,2.18-3.15,1.82-1.37-.37-2.18-1.78-1.82-3.15.37-1.37,1.78-2.19,3.15-1.82Z"/>
                    <path class="cls-38" d="m57.77,617.56c1.42,0,2.57,1.15,2.57,2.57s-1.15,2.57-2.57,2.57-2.57-1.15-2.57-2.57,1.15-2.57,2.57-2.57Z"/>
                    <path class="cls-38" d="m70.96,628.29c1.37-.37,2.78.45,3.15,1.82.37,1.37-.45,2.78-1.82,3.15-1.37.37-2.78-.45-3.15-1.82-.37-1.37.45-2.78,1.82-3.15Z"/>
                    <path class="cls-38" d="m86.48,635.23c1.23-.71,2.8-.29,3.51.94.71,1.23.29,2.8-.94,3.51-1.23.71-2.8.29-3.51-.94-.71-1.23-.29-2.8.94-3.51Z"/>
                    <path class="cls-38" d="m120.18,636.17c.71-1.23,2.28-1.65,3.51-.94,1.23.71,1.65,2.28.94,3.51-.71,1.23-2.28,1.65-3.51.94-1.23-.71-1.65-2.28-.94-3.51Z"/>
                    <path class="cls-38" d="m136.07,630.11c.37-1.37,1.78-2.19,3.15-1.82,1.37.37,2.18,1.78,1.82,3.15-.37,1.37-1.78,2.19-3.15,1.82-1.37-.37-2.19-1.78-1.82-3.15Z"/>
                    <path class="cls-38" d="m149.84,620.14c0-1.42,1.15-2.57,2.57-2.57,1.42,0,2.57,1.15,2.57,2.57,0,1.42-1.15,2.57-2.57,2.57-1.42,0-2.57-1.15-2.57-2.57Z"/>
                    <path class="cls-38" d="m160.56,606.94c-.37-1.37.45-2.78,1.82-3.15,1.37-.37,2.78.45,3.15,1.82.37,1.37-.45,2.78-1.81,3.15-1.37.37-2.78-.45-3.15-1.82Z"/>
                    <path class="cls-38" d="m167.51,591.42c-.71-1.23-.29-2.8.94-3.51,1.23-.71,2.8-.29,3.51.94.71,1.23.29,2.8-.94,3.51-1.23.71-2.8.29-3.51-.94Z"/>
                    <path class="cls-38" d="m168.45,557.72c-1.23-.71-1.65-2.28-.94-3.51.71-1.23,2.28-1.65,3.51-.94,1.23.71,1.65,2.28.94,3.51-.71,1.23-2.28,1.65-3.51.94Z"/>
                    <path class="cls-38" d="m162.38,541.84c-1.37-.37-2.18-1.78-1.82-3.15.37-1.37,1.78-2.19,3.15-1.82,1.37.37,2.18,1.78,1.82,3.15-.37,1.37-1.78,2.19-3.15,1.82Z"/>
                    <path class="cls-38" d="m152.41,528.06c-1.42,0-2.57-1.15-2.57-2.57s1.15-2.57,2.57-2.57c1.42,0,2.57,1.15,2.57,2.57,0,1.42-1.15,2.57-2.57,2.57Z"/>
                    <path class="cls-38" d="m139.22,517.34c-1.37.37-2.78-.45-3.15-1.82-.37-1.37.45-2.78,1.82-3.15,1.37-.37,2.78.44,3.15,1.81.37,1.37-.45,2.78-1.82,3.15Z"/>
                    <path class="cls-38" d="m123.7,510.4c-1.23.71-2.8.29-3.51-.94-.71-1.23-.29-2.8.94-3.51,1.23-.71,2.8-.29,3.51.94.71,1.23.29,2.8-.94,3.51Z"/>
                  </g>
                  <g>
                    <path class="cls-32" d="m110.34,505.89c0,2.9-2.35,5.24-5.25,5.24s-5.24-2.35-5.24-5.24,2.35-5.25,5.24-5.25,5.25,2.35,5.25,5.25Z"/>
                    <path class="cls-32" d="m172.01,578.06c-2.9,0-5.24-2.35-5.24-5.24s2.35-5.25,5.24-5.25,5.25,2.35,5.25,5.25-2.35,5.24-5.25,5.24Z"/>
                    <path class="cls-32" d="m99.84,639.74c0-2.9,2.35-5.25,5.24-5.25s5.25,2.35,5.25,5.25-2.35,5.25-5.25,5.24c-2.9,0-5.24-2.35-5.24-5.24Z"/>
                    <path class="cls-32" d="m38.17,567.57c2.9,0,5.25,2.35,5.25,5.25s-2.35,5.24-5.25,5.24-5.25-2.35-5.25-5.24c0-2.9,2.35-5.25,5.25-5.25Z"/>
                  </g>
                </g>
              </g>
            </g>
          </g>
          <rect class="cls-17" x="51.94" y="313.1" width="108.58" height="51.77" transform="translate(212.47 677.98) rotate(180)"/>
          <rect class="cls-13" x="51.94" y="313.1" width="108.58" height="8.72" transform="translate(212.47 634.93) rotate(180)"/>
          <g>
            <path class="cls-11" d="m136.03,338.08c0-4.18,3.39-7.57,7.57-7.57h0c4.18,0,7.57,3.39,7.57,7.57v26.79h-15.14v-26.79Zm-25,0c0-4.18,3.39-7.57,7.57-7.57h0c4.18,0,7.57,3.39,7.57,7.57v26.79h-15.14v-26.79Zm-25,0c0-4.18,3.39-7.57,7.57-7.57h0c4.18,0,7.57,3.39,7.57,7.57v26.79h-15.14v-26.79Zm-25,0c0-4.18,3.39-7.57,7.57-7.57h0c4.18,0,7.57,3.39,7.57,7.57v26.79h-15.14v-26.79Z"/>
            <g>
              <path class="cls-9" d="m118.6,330.51c4.18,0,7.57,3.39,7.57,7.57v4.53c0-4.18-3.39-7.57-7.57-7.57s-7.57,3.39-7.57,7.57v-4.53c0-4.18,3.39-7.57,7.57-7.57Z"/>
              <rect class="cls-9" x="111.03" y="364.87" width="15.14" height="0"/>
              <path class="cls-9" d="m143.6,330.51c4.18,0,7.57,3.39,7.57,7.57v4.53c0-4.18-3.39-7.57-7.57-7.57s-7.57,3.39-7.57,7.57v-4.53c0-4.18,3.39-7.57,7.57-7.57Z"/>
              <rect class="cls-9" x="136.03" y="364.87" width="15.14" height="0"/>
              <rect class="cls-9" x="86.03" y="364.87" width="15.14" height="0"/>
              <rect class="cls-9" x="61.03" y="364.87" width="15.14" height="0"/>
              <path class="cls-9" d="m68.6,330.51h0c4.18,0,7.57,3.39,7.57,7.57v4.53c0-4.18-3.39-7.57-7.57-7.57h0c-4.18,0-7.57,3.39-7.57,7.57v-4.53c0-4.18,3.39-7.57,7.57-7.57Z"/>
              <path class="cls-9" d="m93.6,330.51c4.18,0,7.57,3.39,7.57,7.57v4.53c0-4.18-3.39-7.57-7.57-7.57s-7.57,3.39-7.57,7.57v-4.53c0-4.18,3.39-7.57,7.57-7.57Z"/>
            </g>
          </g>
          <g>
            <path class="cls-26" d="m51.94,313.1s29.25-26.29,29.25-94.14h13.21c0,67.85,66.11,94.14,66.11,94.14"/>
            <polygon class="cls-13" points="87.81 196.84 89.46 216.78 86.15 216.78 87.81 196.84"/>
            <polygon class="cls-9" points="86.32 210.95 89.29 210.95 94.41 218.97 81.2 218.97 86.32 210.95"/>
          </g>
        </g>
      </g>
      <g>
        <g>
          <rect class="cls-12" x="1.75" y="1024.08" width="155.34" height="65.21" transform="translate(158.83 2113.38) rotate(180)"/>
          <polygon class="cls-12" points="-16.49 888.5 7.38 872.79 8.84 1069.28 -16.49 1069.28 -16.49 888.5"/>
          <path class="cls-7" d="m-.7,1084.38s-3.01-9.54.83-33.49h151.8s-12.09,9.57-1.67,33.49H-.7Z"/>
          <path class="cls-25" d="m2.11,1060.46c-1.37,0-2.49,1.36-2.5,2.68,0,1.32,1.1,2.11,2.49,2.11h54.13c1.37,0,2.49-1.41,2.5-2.73.01-1.32-1.1-2.07-2.49-2.08l-54.11.02h-.02Z"/>
          <path class="cls-25" d="m1.72,1070.03c-1.16,0-2.1,1.36-2.11,2.68,0,1.32.93,2.11,2.1,2.11h45.67c1.16,0,2.11-1.41,2.12-2.73,0-1.32-.93-2.07-2.1-2.08l-45.67.02h-.01Z"/>
          <path class="cls-8" d="m.96,1086.37l.7-36.31s-14.46,6.41-14.05,17.58c.42,11.16,13.35,18.74,13.35,18.74Z"/>
          <path class="cls-12" d="m-2.37,1046.5c-1.12,0-2.24.36-3.18,1.09-7.23,5.7-11.09,12.36-11.47,19.8-.65,12.95,9.83,23.13,10.28,23.56,1.95,1.87,5.12,1.87,7.08,0,1.95-1.86,1.95-4.88,0-6.76-.12-.11-7.83-7.72-7.36-16.39.25-4.62,2.88-8.93,7.83-12.82,2.14-1.68,2.44-4.7.68-6.73-.99-1.15-2.42-1.74-3.87-1.74Z"/>
          <path class="cls-12" d="m-2.37,868.95c-1.12,0-2.24.37-3.18,1.14-7.23,5.96-11.09,12.93-11.47,20.71-.65,13.55,9.83,24.19,10.28,24.64,1.95,1.95,5.12,1.95,7.08,0,1.95-1.95,1.95-5.11,0-7.07-.12-.12-7.83-8.08-7.36-17.14.25-4.83,2.88-9.34,7.83-13.42,2.14-1.76,2.44-4.91.68-7.04-.99-1.2-2.42-1.82-3.87-1.82Z"/>
          <path class="cls-25" d="m81.79,1070.03c-1.16,0-2.1,1.36-2.11,2.68,0,1.32.93,2.11,2.1,2.11h45.67c1.16,0,2.11-1.41,2.12-2.73,0-1.32-.93-2.07-2.1-2.08l-45.66.02h-.01Z"/>
          <rect class="cls-29" x="-.95" y="869.13" width="163.44" height="186.59" transform="translate(161.53 1924.85) rotate(180)"/>
          <polygon class="cls-7" points="162.08 869.13 136.89 869.13 28.38 952.76 40.85 968.93 162.08 875.5 162.08 869.13"/>
          <polygon class="cls-7" points="162.49 1053.34 46.17 983.56 35.67 1001.07 126.76 1055.72 162.49 1055.72 162.49 1053.34"/>
          <polygon class="cls-37" points="132.75 1055.72 161.54 1055.72 139.85 1043.1 57.33 994.05 49.63 994.27 44.52 1004.17 132.75 1055.72"/>
          <polygon class="cls-30" points="54.09 951.76 58.54 951.7 162.08 871.9 162.08 869.13 141.16 869.13 43.84 944.13 54.09 951.76"/>
          <rect class="cls-7" x="-1.15" y="869.02" width="50.32" height="186.74"/>
          <rect class="cls-7" x="55.46" y="890.35" width="50.32" height="163.73" transform="translate(1052.83 891.6) rotate(90)"/>
          <polygon class="cls-19" points="162.49 952.68 42.83 952.68 42.83 869.28 -1.3 869.28 -1.3 1055.46 42.83 1055.46 42.83 992.26 162.49 992.26 162.49 952.68"/>
          <g>
            <path class="cls-7" d="m37.72,977.31l-1.72,5.1h-4.69l7.49-22.06h5.99l7.81,22.06h-5.01l-1.81-5.1h-8.06Zm7.03-3.91c-1.57-4.66-2.56-7.63-3.1-9.61h-.03c-.54,2.17-1.65,5.64-2.9,9.61h6.03Z"/>
            <path class="cls-7" d="m55.16,970.34c0-1.65,0-3.11-.03-4.49h4.5c.06.37.12,2.01.12,2.91.73-1.89,2.5-3.28,5.31-3.29v4.38c-3.33-.09-5.31.81-5.31,5.35v7.22h-4.59v-12.07Z"/>
            <path class="cls-7" d="m66.79,965.85h2.55v-4.48h4.58v4.48h3.25v3.45h-3.25v8.17c0,1.26.38,1.75,1.75,1.75.25,0,.7,0,1.04-.05v3.15c-.91.31-2.16.32-3.08.32-3.23,0-4.3-1.73-4.3-4.63v-8.71h-2.55v-3.45Z"/>
            <path class="cls-7" d="m79.73,959.05h4.59v4.09h-4.59v-4.09Zm0,6.79h4.59v16.56h-4.59v-16.56Z"/>
            <path class="cls-7" d="m102.78,977.06c-.57,2.76-2.51,5.74-7.45,5.74s-7.81-3.57-7.81-8.54,2.98-8.79,8.03-8.79c5.58,0,7.14,4.01,7.23,5.88h-4.48c-.28-1.35-1.05-2.29-2.84-2.29-2.1,0-3.28,1.84-3.28,5.05,0,3.53,1.26,5.13,3.26,5.13,1.58,0,2.42-.93,2.83-2.18h4.5Z"/>
            <path class="cls-7" d="m105.59,982.41v-23.36h4.59v23.36h-4.59Z"/>
            <path class="cls-7" d="m117.94,975.11c0,2.07,1.04,4.1,3.32,4.1,1.91,0,2.46-.77,2.89-1.77h4.59c-.59,2.03-2.4,5.36-7.6,5.36s-7.82-4.08-7.82-8.42c0-5.2,2.67-8.91,7.99-8.91,5.69,0,7.62,4.11,7.62,8.25,0,.56,0,.92-.06,1.4h-10.93Zm6.4-2.82c-.03-1.93-.8-3.55-3.04-3.55s-3.08,1.52-3.26,3.55h6.3Z"/>
          </g>
        </g>
        <path class="cls-1" d="m85.97,1060.26v31.47l12.75-4.35,12.42,4.97v-32.09s-25.67.31-25.17,0Z"/>
      </g>
    </g>
    <g id="Layer_1" data-name="Layer 1">
      <g id="Layer_1-2" data-name="Layer 1-2">
        <g>
          <path class="cls-21" d="m198.6,23.82h4.02c.14,0,.3.05.41.14,3.85,2.59,7.43,5.51,10.35,9.15,1.89,2.36,3.4,4.92,4.31,7.82.53,1.7.81,3.44.85,5.23.1,4.31-1.26,8.16-3.54,11.74-2,3.14-4.55,5.77-7.4,8.15-3.45,2.88-7.22,5.26-11.17,7.38-5.73,3.06-11.74,5.47-17.89,7.5-5.01,1.66-10.09,3.05-15.23,4.22-4.55,1.05-9.13,1.95-13.74,2.68-3.17.5-6.36.94-9.54,1.35-2.99.37-5.99.69-8.99.97-2.43.22-4.87.39-7.31.54-3.11.18-6.22.33-9.34.46-2.11.08-4.22.13-6.34.14-3.19.01-6.4.03-9.59-.03-3.45-.07-6.9-.2-10.35-.39-3.19-.17-6.39-.4-9.57-.7-3.24-.3-6.46-.65-9.68-1.07-3.47-.46-6.93-.94-10.38-1.54-8.62-1.46-17.13-3.43-25.47-6.05-5.09-1.6-10.1-3.45-14.96-5.67-.17-.07-.33-.15-.52-.24v-4.85c.14.04.25.07.37.12,8.37,3.87,17.12,6.62,26.06,8.8,4.37,1.06,8.78,2,13.22,2.73,3.53.57,7.08,1.11,10.62,1.6,2.78.38,5.58.68,8.38.97,2.22.22,4.44.38,6.65.55,8.74.66,17.5.88,26.26.75,3.24-.05,6.46-.15,9.69-.29,2.81-.12,5.62-.29,8.43-.51,3.3-.25,6.61-.55,9.9-.9,4.13-.44,8.25-1,12.34-1.64,5.67-.9,11.3-2,16.88-3.34,7.4-1.79,14.66-3.99,21.69-6.92,4.78-1.98,9.38-4.28,13.68-7.15,3.14-2.1,6.06-4.48,8.52-7.36,1.75-2.06,3.19-4.3,4.12-6.84,1.77-4.87,1.36-9.56-1.23-14.05-1.49-2.58-3.43-4.78-5.61-6.78-2.6-2.38-5.48-4.4-8.48-6.24-.15-.1-.31-.19-.46-.29,0-.03.02-.06.03-.1h-.01Z"/>
          <path class="cls-21" d="m192.17,62.64c-.16,0-.32.02-.48.02-1.59,0-3.18-.01-4.78,0-.36,0-.56-.11-.76-.41-3.48-5.22-6.98-10.43-10.47-15.64-.1-.15-.2-.3-.36-.42-.06,1.38-.06,2.74-.06,4.11v12.33h-6.4c-.11-.37-.13-25.15-.02-25.74.15,0,.32-.02.48-.02h5.03c.34,0,.54.1.73.38,3.42,5.19,6.83,10.37,10.26,15.55.1.15.19.29.3.44.03-.01.07-.03.11-.04v-16.22c.41-.12,5.71-.15,6.41-.05.11.37.13,25.18.01,25.74h.01Z"/>
          <path class="cls-21" d="m60.32,36.88h4.05c3.77,8.56,7.53,17.15,11.33,25.77h-7.39c-.89-2.19-1.79-4.38-2.7-6.59h-8.91c-.92,2.18-1.86,4.37-2.8,6.58h-5.14c3.86-8.61,7.7-17.18,11.55-25.77h0Zm1.05,8.55c-.4.64-2.84,6.43-2.88,6.78h5.66c-.93-2.28-1.85-4.5-2.78-6.78Z"/>
          <path class="cls-21" d="m160.96,62.64h-7.39c-.89-2.18-1.78-4.37-2.68-6.58h-8.92c-.93,2.19-1.86,4.37-2.79,6.58h-5.14c3.85-8.61,7.69-17.18,11.55-25.76h4.05c3.77,8.57,7.53,17.15,11.32,25.77h0Zm-14.3-17.18h-.12c-.96,2.23-1.9,4.47-2.88,6.75h5.75c-.93-2.28-1.85-4.51-2.77-6.74h.01Z"/>
          <path class="cls-21" d="m84.57,36.66c.13-.02.24-.04.35-.04,3.32.02,6.63,0,9.95.07,1.55.03,3.06.35,4.49.99,2.61,1.17,3.97,3.23,4.3,6.03.17,1.42.08,2.81-.41,4.15-.72,1.97-2.01,3.5-3.83,4.55-.96.55-2.02.83-3.11.91-1.34.1-2.67.08-4.01.12h-1.38c-.04,3.04,0,6.04-.02,9.07h-6.32v-25.85h0Zm6.25,12.66c1.23,0,2.41.06,3.58-.12.81-.12,1.51-.45,2.02-1.1.33-.44.57-.9.72-1.42.24-.87.29-1.75.17-2.64-.23-1.73-1.06-2.61-2.78-2.99-1.19-.27-2.4-.17-3.61-.15-.03,0-.05.03-.1.06v8.36Z"/>
          <path class="cls-21" d="m112.55,62.63v-25.73h6.36c0,.64,0,1.28.01,1.93v19.45h8.96v4.34h-15.32Z"/>
          <path class="cls-21" d="m24.64,36.91v25.72h-7.05s-.01-.01-.03-.02c-.01-.01-.02-.02-.03-.04,0-.03-.02-.06-.02-.1,0-8.4,0-16.82,0-25.24,0-.1.01-.2.02-.29.36-.11,6.34-.15,7.11-.04Z"/>
          <path class="cls-21" d="m33.3,49.89c.54,0,1.06.03,1.57,0,.44-.03.69.12.93.49,2.53,3.93,5.07,7.83,7.62,11.75.1.15.19.31.32.52-.17.01-.28.02-.38.02h-7.13c-.29,0-.45-.08-.6-.33-2.59-4.06-5.19-8.12-7.79-12.18-.06-.1-.12-.2-.18-.32.25-.44.5-.87.75-1.31,2.16-3.74,4.33-7.47,6.47-11.22.2-.35.41-.49.82-.48,1.44.02,2.88,0,4.32,0h.48c.02.05.03.06.03.07v.05c-.02.06-.05.13-.08.18-2.38,4.19-4.75,8.38-7.14,12.56,0,.01,0,.03-.01.15v.03Z"/>
        </g>
      </g>
    </g>
  </g>
</svg>