<?xml version="1.0" encoding="UTF-8"?>
<svg id="Layer_2" data-name="Layer 2" xmlns="http://www.w3.org/2000/svg" viewBox="0 0 23.11 131.59">
  <defs>
    <style>
      .cls-1 {
        fill: #5a4545;
      }

      .cls-1, .cls-2 {
        stroke-width: 0px;
      }

      .cls-3 {
        opacity: 0;
      }

      .cls-2 {
        fill: #a08878;
      }
    </style>
  </defs>
  <g id="Layer_1-2" data-name="Layer 1">
    <g class="cls-3">
      <path class="cls-1" d="m11.56,58.42c-4.07,0-7.38,3.3-7.38,7.38v58.42c0,4.07,3.3,7.38,7.38,7.38s7.38-3.3,7.38-7.38v-58.42c0-4.07-3.3-7.38-7.38-7.38Z"/>
      <path class="cls-1" d="m23.11,65.79c0-6.38-5.17-11.56-11.56-11.56S0,59.41,0,65.79s5.17,11.56,11.56,11.56,11.56-5.17,11.56-11.56Z"/>
      <path class="cls-2" d="m20.15,65.79c0-4.75-3.85-1.21-8.6-1.21s-8.59-3.53-8.59,1.21,3.85,8.59,8.59,8.59,8.6-3.85,8.6-8.59Z"/>
    </g>
    <g>
      <path class="cls-1" d="m11.56,73.17c-4.07,0-7.38-3.3-7.38-7.38V7.38C4.18,3.3,7.48,0,11.56,0s7.38,3.3,7.38,7.38v58.42c0,4.07-3.3,7.38-7.38,7.38Z"/>
      <path class="cls-1" d="m23.11,65.79c0,6.38-5.17,11.56-11.56,11.56S0,72.18,0,65.79s5.17-11.56,11.56-11.56,11.56,5.17,11.56,11.56Z"/>
      <path class="cls-2" d="m20.15,65.79c0,4.75-3.85,1.21-8.6,1.21s-8.59,3.53-8.59-1.21,3.85-8.59,8.59-8.59,8.6,3.85,8.6,8.59Z"/>
    </g>
  </g>
</svg>