<?xml version="1.0" encoding="UTF-8"?>
<svg xmlns="http://www.w3.org/2000/svg" width="51.84" height="51.84" xmlns:xlink="http://www.w3.org/1999/xlink" viewBox="0 0 51.84 51.84">
  <defs>
    <style>
      .cls-1 {
        fill: url(#linear-gradient);
      }

      .cls-1, .cls-2, .cls-3, .cls-4, .cls-5 {
        stroke-width: 0px;
      }

      .cls-2 {
        fill: #547093;
      }

      .cls-6 {
        isolation: isolate;
      }

      .cls-7 {
        filter: url(#drop-shadow-1);
      }

      .cls-3 {
        fill: #fff;
      }

      .cls-4 {
        fill: url(#linear-gradient-2);
      }

      .cls-5 {
        fill: url(#radial-gradient);
        mix-blend-mode: color-dodge;
      }
    </style>
    <linearGradient id="linear-gradient" x1="25.92" y1="1.45" x2="25.92" y2="57.2" gradientUnits="userSpaceOnUse">
      <stop offset="0" stop-color="#f5f5f5"/>
      <stop offset=".41" stop-color="#ddd"/>
      <stop offset="1" stop-color="#b3b3b3"/>
    </linearGradient>
    <linearGradient id="linear-gradient-2" x1="4.48" y1="25.92" x2="47.35" y2="25.92" gradientTransform="translate(45.19 -5.26) rotate(76.72)" gradientUnits="userSpaceOnUse">
      <stop offset="0" stop-color="#765293"/>
      <stop offset="1" stop-color="#3b8693"/>
    </linearGradient>
    <radialGradient id="radial-gradient" cx="28.95" cy="37.67" fx="28.95" fy="37.67" r="35.15" gradientUnits="userSpaceOnUse">
      <stop offset="0" stop-color="#1f1f1f"/>
      <stop offset=".25" stop-color="#121212"/>
      <stop offset=".65" stop-color="#040404"/>
      <stop offset="1" stop-color="#000"/>
    </radialGradient>
    <filter id="drop-shadow-1" filterUnits="userSpaceOnUse">
      <feOffset dx="-1.42" dy="0"/>
      <feGaussianBlur result="blur" stdDeviation="0"/>
      <feFlood flood-color="#010101" flood-opacity=".2"/>
      <feComposite in2="blur" operator="in"/>
      <feComposite in="SourceGraphic"/>
    </filter>
  </defs>
  <g class="cls-6">
    <g id="Layer_2" data-name="Layer 2">
      <g id="Layer_1-2" data-name="Layer 1">
        <g>
          <g>
            <circle class="cls-1" cx="25.92" cy="25.92" r="25.92"/>
            <circle class="cls-4" cx="25.92" cy="25.92" r="21.44" transform="translate(-5.26 45.19) rotate(-76.72)"/>
            <circle class="cls-3" cx="25.92" cy="25.92" r="17.62"/>
            <path class="cls-5" d="m14.51,30.74c5.29-5.29,13.14-8.54,20.61-8.54,2.87,0,5.63.44,8.24,1.25-1.2-8.56-8.55-15.16-17.45-15.16-9.73,0-17.62,7.89-17.62,17.62,0,3.4.97,6.57,2.63,9.27,1.08-1.64,2.29-3.15,3.58-4.44Z"/>
          </g>
          <g class="cls-7">
            <path class="cls-2" d="m27.31,12.42c-4.23-.77-8.28,2.03-9.05,6.26-.08.46-.13.93-.13,1.4,0,1.07.87,1.95,1.95,1.95s1.95-.87,1.95-1.95c0-2.15,1.74-3.89,3.89-3.9.24,0,.49.02.73.07,1.57.31,2.8,1.53,3.11,3.1.31,1.65-.47,3.32-1.95,4.14-2.42,1.4-3.89,4.02-3.84,6.82v1.45c0,1.07.87,1.95,1.95,1.95s1.95-.87,1.95-1.95v-1.45c-.05-1.38.64-2.68,1.81-3.41,3.77-2.07,5.14-6.8,3.08-10.57-1.13-2.06-3.13-3.49-5.44-3.91Z"/>
            <path class="cls-2" d="m25.91,35.65h0c1.07,0,1.95.87,1.95,1.95h0c0,1.07-.87,1.95-1.95,1.95h0c-1.07,0-1.95-.87-1.95-1.95h0c0-1.07.87-1.95,1.95-1.95Z"/>
          </g>
        </g>
      </g>
    </g>
  </g>
</svg>