<?xml version="1.0" encoding="UTF-8"?>
<svg id="Layer_2" data-name="Layer 2" xmlns="http://www.w3.org/2000/svg" xmlns:xlink="http://www.w3.org/1999/xlink" viewBox="0 0 625.05 993.61">
  <defs>
    <style>
      .cls-1 {
        fill: url(#linear-gradient);
      }

      .cls-1, .cls-2, .cls-3, .cls-4, .cls-5, .cls-6 {
        stroke-width: 0px;
      }

      .cls-2, .cls-5 {
        fill: #f5f5f5;
      }

      .cls-3 {
        fill: #455b64;
      }

      .cls-4 {
        fill: #7a8caf;
      }

      .cls-5 {
        opacity: .5;
      }

      .cls-6 {
        fill: #fafbfb;
      }
    </style>
    <linearGradient id="linear-gradient" x1="1778.72" y1="-890.52" x2="2761.15" y2="-890.52" gradientTransform="translate(1204.12 2766.74) rotate(-90)" gradientUnits="userSpaceOnUse">
      <stop offset="0" stop-color="#765293"/>
      <stop offset="1" stop-color="#3b8693"/>
    </linearGradient>
  </defs>
  <g id="Layer_1-2" data-name="Layer 1">
    <g>
      <g>
        <path class="cls-3" d="m4.1,208.22h5.58v66.51h-5.58C1.84,274.72,0,272.88,0,270.62v-58.3c0-2.26,1.84-4.1,4.1-4.1Z"/>
        <path class="cls-3" d="m4.1,276.95h5.58v66.51h-5.58C1.84,343.46,0,341.62,0,339.35v-58.3c0-2.26,1.84-4.1,4.1-4.1Z"/>
        <path class="cls-3" d="m6.29,127.7h3.39v57.06h-3.39c-2.73,0-4.95-2.22-4.95-4.95v-47.15c0-2.73,2.22-4.96,4.96-4.96Z"/>
        <path class="cls-3" d="m618.73,79.65h6.32v83.01h-6.32c-1.85,0-3.36-1.5-3.36-3.36v-76.3c0-1.85,1.5-3.36,3.36-3.36Z" transform="translate(1240.42 242.32) rotate(-180)"/>
        <path class="cls-4" d="m-140.51,190.2h908.22c23.56,0,42.69,19.13,42.69,42.69v536.26c0,18.91-15.35,34.25-34.25,34.25H-148.95c-18.91,0-34.25-15.35-34.25-34.25V232.9c0-23.56,19.13-42.69,42.69-42.69Z" transform="translate(-183.21 810.41) rotate(-90)"/>
        <path class="cls-1" d="m50.03,5.59h537.35c15.04,0,27.24,12.21,27.24,27.24v927.94c0,15.04-12.21,27.24-27.24,27.24H50.03c-20.66,0-37.44-16.78-37.44-37.44V43.03C12.59,22.37,29.36,5.59,50.03,5.59Z"/>
        <path class="cls-6" d="m17.78,46.66v896.79c0,21.01,17,38.03,37.98,38.03h529.53c10.8,0,19.56-8.77,19.56-19.59V31.57c0-9.09-7.36-16.46-16.44-16.46H49.28c-17.4,0-31.51,14.13-31.51,31.55Z"/>
        <path class="cls-2" d="m407.94,121.9c36.97-28.16,78.76,13.63,50.6,50.6-36.97,28.16-78.76-13.63-50.6-50.6Z"/>
        <path class="cls-5" d="m17.33,903.34v40.05c0,21.06,17.03,38.13,38.04,38.13h6.96c.62-.15,1.24-.3,1.86-.47h24.07c20.89,0,41.77,0,62.66,0,28.98,0,57.96,0,86.94,0,32.31,0,64.61,0,96.92,0,30.86,0,61.73,0,92.59,0,24.65,0,80.21,0,104.86,0,12.31,0,26.34.02,38.65-.01,1.79,0,6.87,1.46,8.16-.7,9.15-15.34.18-40.37-3.36-56.27-5.01-22.49-11.22-44.79-20.34-65.98-12.78-29.69-33.34-57.39-59.39-76.47-44.09-32.3-131.7-36.18-181.56-54.94-54.17-20.38-93.17-63.74-122.79-112.26-.87-1.43-1.74-2.87-2.6-4.31-1.51-2.53-2.99-5.08-4.44-7.65-28.63-50.53-44.26-105.58-63.54-159.92-7.66-21.6-16.17-43.15-27.42-63.15-4.45-7.92-9.89-15.46-17.16-20.91-16.83-12.62-35.38-7.36-49.25,6.58-5.04,5.06-10.03,10.05-9.77,17.73.15,4.5-.1,9.09-.1,13.6,0,6.89,0,221.49,0,243.7,0,24.89,0,49.78,0,74.67,0,23.04,0,46.08,0,69.11,0,19.34,0,38.69,0,58.03,0,13.81,0,27.61,0,41.42,0,6.43,0,12.85,0,19.28,0,.24.11.51,0,.72Z"/>
      </g>
      <path class="cls-2" d="m604.85,154.72V31.57c0-9.09-7.37-16.46-16.46-16.46h-167.31c11.63,86.73,91.47,151.84,183.78,139.61Z"/>
    </g>
  </g>
</svg>