<?xml version="1.0" encoding="UTF-8"?>
<svg  id="Layer_2" data-name="Layer 2" xmlns="http://www.w3.org/2000/svg" viewBox="0 0 201.04 67.47">
        <defs>
          <style>
            .cls-1 {
              fill: rgb(38, 26, 104);
              stroke-width: 0px;
            }
          
          </style>
        </defs>
        <g id="Layer_1-2" data-name="Layer 1" >
          <g id="Layer_1-2" data-name="Layer 1-2">
            <g>
              <path class="cls-1" d="m181.09,0h4.02c.14,0,.3.05.41.14,3.85,2.59,7.43,5.51,10.35,9.15,1.89,2.36,3.4,4.92,4.31,7.82.53,1.7.81,3.44.85,5.23.1,4.31-1.26,8.16-3.54,11.74-2,3.14-4.55,5.77-7.4,8.15-3.45,2.88-7.22,5.26-11.17,7.38-5.73,3.06-11.74,5.47-17.89,7.5-5.01,1.66-10.09,3.05-15.23,4.22-4.55,1.05-9.13,1.95-13.74,2.68-3.17.5-6.36.94-9.54,1.35-2.99.37-5.99.69-8.99.97-2.43.22-4.87.39-7.31.54-3.11.18-6.22.33-9.34.46-2.11.08-4.22.13-6.34.14-3.19.01-6.4.03-9.59-.03-3.45-.07-6.9-.2-10.35-.39-3.19-.17-6.39-.4-9.57-.7-3.24-.3-6.46-.65-9.68-1.07-3.47-.46-6.93-.94-10.38-1.54-8.62-1.46-17.13-3.43-25.47-6.05-5.09-1.6-10.1-3.45-14.96-5.67-.17-.07-.33-.15-.52-.24v-4.85c.14.04.25.07.37.12,8.37,3.87,17.12,6.62,26.06,8.8,4.37,1.06,8.78,2,13.22,2.73,3.53.57,7.08,1.11,10.62,1.6,2.78.38,5.58.68,8.38.97,2.22.22,4.44.38,6.65.55,8.74.66,17.5.88,26.26.75,3.24-.05,6.46-.15,9.69-.29,2.81-.12,5.62-.29,8.43-.51,3.3-.25,6.61-.55,9.9-.9,4.13-.44,8.25-1,12.34-1.64,5.67-.9,11.3-2,16.88-3.34,7.4-1.79,14.66-3.99,21.69-6.92,4.78-1.98,9.38-4.28,13.68-7.15,3.14-2.1,6.06-4.48,8.52-7.36,1.75-2.06,3.19-4.3,4.12-6.84,1.77-4.87,1.36-9.56-1.23-14.05-1.49-2.58-3.43-4.78-5.61-6.78-2.6-2.38-5.48-4.4-8.48-6.24-.15-.1-.31-.19-.46-.29,0-.03.02-.06.03-.1h-.01Z"/>
              <path class="cls-1" d="m174.66,38.82c-.16,0-.32.02-.48.02-1.59,0-3.18-.01-4.78,0-.36,0-.56-.11-.76-.41-3.48-5.22-6.98-10.43-10.47-15.64-.1-.15-.2-.3-.36-.42-.06,1.38-.06,2.74-.06,4.11v12.33h-6.4c-.11-.37-.13-25.15-.02-25.74.15,0,.32-.02.48-.02h5.03c.34,0,.54.1.73.38,3.42,5.19,6.83,10.37,10.26,15.55.1.15.19.29.3.44.03-.01.07-.03.11-.04V13.14c.41-.12,5.71-.15,6.41-.05.11.37.13,25.18.01,25.74h.01Z"/>
              <path class="cls-1" d="m42.82,13.05h4.05c3.77,8.56,7.53,17.15,11.33,25.77h-7.39c-.89-2.19-1.79-4.38-2.7-6.59h-8.91c-.92,2.18-1.86,4.37-2.8,6.58h-5.14c3.86-8.61,7.7-17.18,11.55-25.77h0Zm1.05,8.54c-.4.64-2.84,6.43-2.88,6.78h5.66c-.93-2.28-1.85-4.5-2.78-6.78Z"/>
              <path class="cls-1" d="m143.45,38.82h-7.39c-.89-2.18-1.78-4.37-2.68-6.58h-8.92c-.93,2.19-1.86,4.37-2.79,6.58h-5.14c3.85-8.61,7.69-17.18,11.55-25.76h4.05c3.77,8.57,7.53,17.15,11.32,25.77h0Zm-14.3-17.17h-.12c-.96,2.23-1.9,4.47-2.88,6.75h5.75c-.93-2.28-1.85-4.51-2.77-6.74h.01Z"/>
              <path class="cls-1" d="m67.07,12.84c.13-.02.24-.04.35-.04,3.32.02,6.63,0,9.95.07,1.55.03,3.06.35,4.49.99,2.61,1.17,3.97,3.23,4.3,6.03.17,1.42.08,2.81-.41,4.15-.72,1.97-2.01,3.5-3.83,4.55-.96.55-2.02.83-3.11.91-1.34.1-2.67.08-4.01.12h-1.38c-.04,3.04,0,6.04-.02,9.07h-6.32V12.84h0Zm6.25,12.66c1.23,0,2.41.06,3.58-.12.81-.12,1.51-.45,2.02-1.1.33-.44.57-.9.72-1.42.24-.87.29-1.75.17-2.64-.23-1.73-1.06-2.61-2.78-2.99-1.19-.27-2.4-.17-3.61-.15-.03,0-.05.03-.1.06v8.36Z"/>
              <path class="cls-1" d="m95.04,38.81V13.07h6.36c0,.64,0,1.28.01,1.93v19.45h8.96v4.34h-15.32Z"/>
              <path class="cls-1" d="m7.13,13.08v25.72H.08s-.01-.01-.03-.02c-.01-.01-.02-.02-.03-.04,0-.03-.02-.06-.02-.1,0-8.4,0-16.82,0-25.24C0,13.32.01,13.21.02,13.13c.36-.11,6.34-.15,7.11-.04Z"/>
              <path class="cls-1" d="m15.79,26.06c.54,0,1.06.03,1.57,0,.44-.03.69.12.93.49,2.53,3.93,5.07,7.83,7.62,11.75.1.15.19.31.32.52-.17.01-.28.02-.38.02h-7.13c-.29,0-.45-.08-.6-.33-2.59-4.06-5.19-8.12-7.79-12.18-.06-.1-.12-.2-.18-.32.25-.44.5-.87.75-1.31,2.16-3.74,4.33-7.47,6.47-11.22.2-.35.41-.49.82-.48,1.44.02,2.88,0,4.32,0h.48c.02.05.03.06.03.07v.05c-.02.06-.05.13-.08.18-2.38,4.19-4.75,8.38-7.14,12.56,0,.01,0,.03-.01.15v.03Z"/>
            </g>
          </g>
        </g>
      </svg>